<svg width="223" height="139" viewBox="0 0 223 139" fill="none" xmlns="http://www.w3.org/2000/svg">
<rect x="0.5" y="0.5" width="222" height="138" rx="19.5" fill="#151515"/>
<rect x="0.5" y="0.5" width="222" height="138" rx="19.5" stroke="#4B4B4B"/>
<g clip-path="url(#clip0_1189_5777)">
<path fill-rule="evenodd" clip-rule="evenodd" d="M189.727 57.049C189.727 55.8317 190.717 54.9337 191.887 54.9337C193.046 54.9337 194.037 55.8317 194.037 57.049C194.037 58.2776 193.046 59.1756 191.887 59.1756C190.717 59.1756 189.727 58.2776 189.727 57.049Z" fill="white"/>
<path fill-rule="evenodd" clip-rule="evenodd" d="M29.0074 50V55.1895H35.6171V81.7014H41.6653V55.1895H48.6966V50H29.0074ZM68.9492 60.3789V55.1904H50.6657V81.7014H68.9492V76.5775H56.713V71.0379H62.6203L67.121 65.8484H56.713V60.3789H68.9492ZM183.113 55.1904V69.947L174.71 55.1904H168.311V81.7014H172.882V63.7499L183.113 81.7014H187.683V55.1904H183.113ZM154.685 82.3382C161.995 82.3382 165.991 76.2114 165.991 68.6529C165.991 61.0953 162.406 54.9675 154.685 54.9675C147.167 54.9675 143.376 61.0943 143.376 68.6529C143.376 76.2114 147.44 82.3382 154.685 82.3382Z" fill="white"/>
<path fill-rule="evenodd" clip-rule="evenodd" d="M85.8533 72.2983C85.2091 75.3528 83.6823 77.4775 81.2784 77.4775C78.0661 77.4775 76.3495 73.5268 76.3495 68.652C76.3495 63.7781 78.0661 59.8256 81.2784 59.8256C83.8626 59.8256 85.4345 62.2808 85.9838 65.7071H92.3888C91.5493 59.5653 87.967 54.9667 81.2784 54.9667C73.7607 54.9667 69.9708 61.0935 69.9708 68.652C69.9708 76.2105 74.0349 82.3373 81.2784 82.3373C87.3679 82.3373 91.1549 78.0852 92.2508 72.2983H85.8533ZM137.665 70.2467C140.018 69.1548 142.364 66.8822 142.364 63.0486C142.364 57.2983 136.668 55.1895 134.417 55.1895H121.337V65.3952C119.982 65.2361 118.622 65.1246 117.259 65.0609V55.1895H111.211V65.0947C107.836 65.3156 104.451 66.238 101.296 67.7446V55.1895H95.249V71.5951C94.091 72.5469 93.0094 73.5876 92.0141 74.7076L91.7944 74.9567L92.1888 75.202L91.939 75.4914L95.249 77.4737V81.7025H101.296V76.7499C103.86 72.8583 107.076 70.1352 111.211 68.3055V81.7025H117.259V66.6734C118.612 66.4978 119.973 66.404 121.337 66.3925V81.7025H127.385V59.9689L127.408 60.0082H133.096C133.967 60.0082 136.175 60.8228 136.175 63.0505C136.175 65.2782 134.132 66.1481 133.096 66.1481H131.253L127.408 71.0445H131.801L141.87 88.2197H148.199L137.665 70.2467Z" fill="white"/>
<path fill-rule="evenodd" clip-rule="evenodd" d="M191.438 58.278H191.066V55.8322H192.001C192.578 55.8322 192.867 56.0457 192.867 56.5279C192.867 56.9652 192.592 57.1562 192.23 57.2012L192.929 58.278H192.513L191.866 57.2171H191.438V58.278H191.438Z" fill="white"/>
</g>
<defs>
<clipPath id="clip0_1189_5777">
<rect width="181" height="38.1927" fill="white" transform="translate(21 50)"/>
</clipPath>
</defs>
</svg>
