<svg width="223" height="139" viewBox="0 0 223 139" fill="none" xmlns="http://www.w3.org/2000/svg">
<rect x="0.5" y="0.5" width="222" height="138" rx="19.5" fill="#151515"/>
<rect x="0.5" y="0.5" width="222" height="138" rx="19.5" stroke="#4B4B4B"/>
<g clip-path="url(#clip0_1189_5789)">
<path d="M40.9799 90.9505C40.0469 90.8957 39.7947 90.8741 39.1887 90.7986C37.1331 90.5414 35.1279 89.9786 33.2404 89.1291C32.7147 88.8926 32.3603 88.7143 32.3806 88.6964C32.3898 88.6883 32.574 88.5413 32.7902 88.3699C35.6696 86.0856 38.7292 83.5294 41.3153 81.2479C51.4241 72.329 57.8627 64.6861 60.0591 58.9986C60.1294 58.8165 60.1839 58.6646 60.1802 58.661C60.1766 58.6573 60.0922 58.7764 59.9928 58.9254C59.4527 59.735 58.7385 60.5872 57.9056 61.4156C57.4301 61.8888 57.1382 62.1519 56.2771 62.8841C52.7324 65.8977 47.9278 69.3557 42.5988 72.7283C39.8101 74.4932 36.9804 76.1932 34.112 77.827C32.6833 78.6402 29.7051 80.2986 29.0925 80.622C28.9822 80.6805 28.3527 81.015 27.6941 81.3656C25.2824 82.6491 25.1826 82.7006 25.1554 82.6725C25.0993 82.6142 24.7002 82.0493 24.456 81.6824C23.9045 80.8542 23.3611 79.8936 22.9807 79.075C22.9112 78.9251 22.841 78.7756 22.7702 78.6264C22.6676 78.4123 22.45 77.8853 22.3102 77.5125C20.2862 72.1169 20.6021 66.1435 23.1823 61.0162C24.4838 58.4303 26.2991 56.1629 28.566 54.2924C28.9115 54.0072 29.6285 53.4677 30.0027 53.2107C32.8445 51.2623 36.1303 50.0496 39.5623 49.6824C40.8225 49.5475 42.2996 49.5298 43.5569 49.6341C47.7817 49.984 51.7971 51.6135 55.0616 54.3031C55.563 54.7158 55.9551 55.0734 56.5086 55.6236C57.1882 56.2989 57.6408 56.801 58.1629 57.4582C58.2358 57.5498 58.302 57.6248 58.3097 57.6248C58.3462 57.6248 58.743 57.1033 58.9841 56.7386C59.9351 55.3 60.2452 53.8573 59.8801 52.5719C59.4076 50.9097 57.8536 49.5799 55.6454 48.9481C53.7703 48.4116 51.4296 48.3172 49.2316 48.6896C49.1228 48.7082 49.0407 48.717 49.0491 48.7098C49.0708 48.691 49.5953 48.5526 49.9841 48.463C52.498 47.8848 55.1297 47.9104 57.0534 48.532C57.8933 48.8034 58.5517 49.1198 59.2361 49.5806C60.1985 50.2287 61.0256 51.1233 61.6364 52.1771C62.1636 53.0871 62.443 53.9282 62.5723 54.9959C62.6143 55.3422 62.6302 56.2928 62.601 56.696C62.4831 58.3176 62.0699 59.952 61.2744 61.9435L61.0824 62.424L61.1789 62.6676C62.6042 66.2732 62.9878 70.1708 62.2925 73.9887C61.1467 80.2816 57.0627 85.7513 51.3253 88.6781C48.7882 89.9722 46.1772 90.6975 43.2695 90.9158C42.9042 90.9431 41.2745 90.968 40.9799 90.9505ZM43.2885 86.6283C44.639 86.5063 45.8698 86.2484 47.1392 85.8214C51.9518 84.2032 55.8294 80.3496 57.4552 75.5697C57.8976 74.2692 58.1585 73.0133 58.2828 71.5883C58.3255 71.0976 58.3319 69.5161 58.2929 69.0643C58.263 68.7158 58.1948 68.0976 58.1765 68.0085L58.1633 67.9432L58.0215 68.1704C54.7895 73.3463 49.6211 79.6829 43.2725 86.2521C42.9544 86.5811 42.8898 86.6568 42.927 86.6566C42.9521 86.6566 43.1147 86.6439 43.2885 86.6283ZM26.7399 75.8861C27.7199 75.4629 30.8084 74.0583 32.4933 73.2701C35.2883 71.962 38.661 70.2792 41.4303 68.8115C44.9747 66.9327 48.2628 65.0199 51.3443 63.0442C52.7144 62.1657 55.0798 60.5305 55.0666 60.4708C55.0581 60.4339 54.6073 59.8631 54.3612 59.5774C53.1334 58.1539 51.6271 56.9132 50.0031 55.988C49.6382 55.7801 48.8972 55.4061 48.526 55.2426C45.6513 53.9763 42.4955 53.5557 39.3324 54.0169C38.6355 54.1185 37.7579 54.3133 37.0528 54.5226C33.9713 55.4376 31.1995 57.2638 29.1058 59.7583C27.2521 61.9671 26.0143 64.6273 25.5292 67.445C25.1164 69.8449 25.2391 72.3382 25.8841 74.6472C26.0419 75.2114 26.3219 76.046 26.3538 76.046C26.3627 76.046 26.5363 75.9741 26.7399 75.8861ZM178.445 70.6835V59.8536H183.369V81.5132H178.445V70.6835ZM187.756 70.6835V59.8536H192.679V77.246H202.009V81.5132H187.756L187.756 70.6835Z" fill="#636363"/>
<path d="M40.9226 90.9413C40.2895 90.91 39.6085 90.8499 39.0589 90.7766L38.824 90.7453L40.199 89.3711C40.9552 88.6155 41.8626 87.7016 42.2154 87.3404C42.5685 86.9791 42.8745 86.6775 42.8957 86.6703C42.9167 86.6628 43.1021 86.643 43.3076 86.626C45.4962 86.4462 47.7341 85.7763 49.6872 84.7157C51.5357 83.7106 53.1775 82.3683 54.5265 80.759C55.7726 79.2722 56.7442 77.5778 57.3963 75.7542C57.7092 74.8759 57.976 73.8363 58.1256 72.9141C58.3719 71.3942 58.4025 69.7277 58.2112 68.2281L58.1726 67.9271L58.4675 67.4373C59.5181 65.6927 60.4356 63.9398 61.0012 62.5987L61.0758 62.4213L61.11 62.5014C61.1987 62.7091 61.4484 63.3874 61.5674 63.7436C62.1647 65.5324 62.5002 67.3251 62.6008 69.2692C62.6263 69.7608 62.6144 71.2212 62.5814 71.6532C62.4366 73.5472 62.1145 75.1623 61.5467 76.8442C60.3471 80.3969 58.2237 83.5261 55.3427 85.9868C52.4576 88.4474 48.948 90.0723 45.1972 90.6841C44.495 90.797 43.7876 90.8765 43.0777 90.9222C42.6759 90.9492 41.3249 90.961 40.9226 90.9413ZM145.063 81.6815C143.904 81.6058 142.791 81.3781 141.754 81.0048C138.073 79.6791 135.442 76.6479 134.691 72.8694C134.472 71.7673 134.42 70.4994 134.548 69.3769C134.936 65.9694 136.909 63.0016 139.931 61.2802C141.267 60.5194 142.779 60.0216 144.354 59.8237C144.992 59.7436 145.244 59.7289 145.973 59.7291C146.722 59.7291 147.029 59.7502 147.664 59.8441C149.849 60.1666 151.999 61.1174 153.645 62.4903C153.931 62.7284 154.405 63.1679 154.398 63.1881C154.395 63.1971 153.851 63.8818 153.188 64.7097L151.983 66.215L151.684 65.9148C150.951 65.1782 150.138 64.5961 149.241 64.165C147.725 63.4371 146.176 63.233 144.565 63.5491C141.646 64.1221 139.415 66.3447 138.868 69.2245C138.776 69.708 138.76 69.9093 138.76 70.577C138.76 71.3571 138.798 71.7045 138.952 72.3421C139.621 75.1133 141.897 77.2107 144.76 77.6928C145.265 77.7779 145.619 77.8021 146.193 77.7908C146.728 77.7801 146.946 77.759 147.41 77.672C148.971 77.3787 150.502 76.603 151.76 75.4677L151.981 75.2675L153.193 76.6093C153.859 77.3475 154.409 77.9622 154.414 77.9754C154.424 78.0026 154.034 78.3865 153.732 78.6457C151.655 80.4281 149.102 81.5012 146.509 81.6822C146.194 81.7044 145.406 81.704 145.063 81.6815ZM83.2223 81.6516C82.9897 81.6368 82.3334 81.5668 82.0729 81.5291C79.8608 81.208 77.6163 80.3048 75.8277 79.0156C75.5597 78.8224 75.0881 78.4498 74.9187 78.2974L74.8142 78.2035L75.6441 76.5381C76.1002 75.6219 76.4927 74.8355 76.5157 74.7901L76.5579 74.7076L76.7693 74.8868C78.2941 76.1812 80.2417 77.191 82.0634 77.632C82.7512 77.7985 83.2807 77.8708 83.9218 77.886C86.3027 77.9423 87.7556 77.1005 87.8238 75.6251C87.8724 74.5788 87.3084 73.8066 86.0577 73.2071C85.4242 72.9032 84.7613 72.6782 83.1074 72.2054C81.4289 71.7258 80.5696 71.4357 79.7869 71.0847C77.5712 70.0903 76.4425 68.7165 76.1693 66.6812C76.1219 66.3268 76.1214 65.4054 76.1688 65.0716C76.3919 63.4983 77.1221 62.2676 78.3947 61.3192C79.6877 60.3557 81.4027 59.8035 83.4905 59.6785C83.8965 59.654 85.0436 59.6663 85.3873 59.6985C86.8787 59.8382 88.1508 60.1203 89.432 60.5958C90.3522 60.9371 91.3192 61.4068 91.9924 61.8392L92.1605 61.9472L92.1345 61.9998C92.1203 62.0286 91.7429 62.8343 91.2959 63.7904C90.8489 64.7464 90.4786 65.5288 90.4726 65.5288C90.4667 65.5288 90.3244 65.4503 90.1566 65.3544C88.1077 64.1856 85.6659 63.4332 83.9216 63.4332C82.7108 63.4332 81.7375 63.7271 81.2061 64.2527C80.8649 64.5902 80.7039 64.9843 80.7035 65.4834C80.7023 66.403 81.2148 67.0951 82.3163 67.6616C82.9806 68.0033 83.5831 68.2158 85.5309 68.7957C87.2833 69.3172 88.2028 69.654 89.0464 70.0824C89.8434 70.4872 90.417 70.8965 90.9431 71.4362C91.7041 72.2174 92.1365 73.1173 92.3174 74.2969C92.3539 74.5357 92.3589 74.6473 92.3591 75.2346C92.3591 75.9528 92.3404 76.1553 92.2268 76.6538C91.838 78.3632 90.7085 79.7408 88.9793 80.615C87.9292 81.1459 86.7378 81.4708 85.3008 81.6182C85.0176 81.6473 83.5293 81.6711 83.2223 81.6516ZM95.7418 70.6722V59.8327L100.172 59.8332C104.592 59.8337 105.377 59.8427 106.01 59.8996C108.019 60.0811 109.635 60.6584 110.867 61.6358C111.148 61.8585 111.631 62.3433 111.842 62.6143C112.425 63.3613 112.811 64.167 113.051 65.1383C113.448 66.7441 113.374 68.7061 112.86 70.2436C112.505 71.3047 112.006 72.1199 111.25 72.8744C110.697 73.4273 110.14 73.8214 109.411 74.1767C108.425 74.6573 107.308 74.9523 105.982 75.0825C105.665 75.1135 103.989 75.1636 103.936 75.1437C103.905 75.1319 103.903 75.0151 103.903 73.3143V71.4974L104.482 71.4854C105.076 71.4729 105.325 71.4564 105.694 71.4047C106.863 71.2414 107.758 70.8382 108.371 70.1992C108.887 69.6613 109.182 69.0075 109.309 68.1197C109.348 67.8394 109.343 66.9686 109.299 66.691C109.165 65.8318 108.875 65.2295 108.34 64.6997C107.617 63.984 106.622 63.6037 105.179 63.4908C105.029 63.479 103.945 63.4713 102.425 63.4713H99.9182V81.5117H95.7418V70.6722ZM111.815 81.5053C111.815 81.5019 113.964 76.6263 116.591 70.6706L121.367 59.8423L123.527 59.8377L125.687 59.8327L125.742 59.9518C125.779 60.0337 133.932 78.7598 135.093 81.4307L135.129 81.5117L132.884 81.5069L130.64 81.5021L129.307 78.3255L127.975 75.1491H125.401C123.74 75.1491 122.83 75.1423 122.834 75.1305C122.837 75.1201 123.185 74.2974 123.607 73.3021L124.373 71.4924L125.404 71.4918C126.078 71.4918 126.433 71.485 126.429 71.4725C126.397 71.3779 123.432 64.2915 123.424 64.2911C123.412 64.2904 119.926 72.5038 118.715 75.387C118.146 76.7414 117.577 78.0955 117.007 79.4494L116.138 81.5117H113.977C112.788 81.5117 111.815 81.5087 111.815 81.5053ZM157.18 70.6722V59.8327L165.164 59.8375L173.148 59.8423V63.4618L167.252 63.4665L161.357 63.4715V68.8242H171.932V72.4435H161.357V77.8919H173.522V81.5112H157.18V70.6722ZM22.3756 77.6704C22.3163 77.5291 22.12 76.9753 22.0053 76.6252C20.8654 73.1488 20.688 69.3386 21.4978 65.734C22.0591 63.2364 23.0566 60.9219 24.497 58.7755C27.5337 54.2508 32.2513 51.0841 37.5795 49.9945C38.9068 49.7228 40.0852 49.5954 41.4877 49.5713C45.1628 49.5085 48.7453 50.4049 51.9572 52.1905C54.2973 53.4949 56.3632 55.2345 58.0426 57.3147L58.3083 57.6446L58.1313 57.848C57.8775 58.1394 57.1781 58.8306 56.846 59.1182C56.3933 59.51 55.8182 59.9591 55.1915 60.4101L55.0923 60.4815L54.9201 60.257C54.1828 59.296 53.2498 58.3374 52.2833 57.5476C49.7335 55.4638 46.6746 54.2127 43.3651 53.8995C42.394 53.8076 41.2503 53.8076 40.2615 53.8993C36.9861 54.2025 33.8905 55.4642 31.3642 57.5253C30.5251 58.2102 29.6348 59.0987 28.9634 59.9216C26.0131 63.538 24.7611 68.1798 25.4833 72.8245C25.6263 73.7436 25.8674 74.704 26.1882 75.6335C26.2676 75.8635 26.3296 76.0546 26.3262 76.058C26.3114 76.073 22.631 77.6527 22.4488 77.7225C22.4101 77.7373 22.4009 77.7311 22.3756 77.6704Z" fill="white"/>
</g>
<defs>
<clipPath id="clip0_1189_5789">
<rect width="181.588" height="63" fill="white" transform="translate(20.7059 38)"/>
</clipPath>
</defs>
</svg>
