<svg width="223" height="139" viewBox="0 0 223 139" fill="none" xmlns="http://www.w3.org/2000/svg">
<rect x="0.5" y="0.5" width="222" height="138" rx="19.5" fill="#151515"/>
<rect x="0.5" y="0.5" width="222" height="138" rx="19.5" stroke="#4B4B4B"/>
<g clip-path="url(#clip0_1189_5793)">
<path d="M190.929 67.4117C190.292 72.2393 188.35 75.1192 185.602 75.3132C184.671 75.3213 183.75 75.1129 182.913 74.7043C182.076 74.2957 181.346 73.6982 180.779 72.9589C182.809 71.5301 184.521 69.6948 185.804 67.5696C187.088 65.4443 187.916 63.0754 188.235 60.6133C177.242 63.8865 165.872 65.7247 154.408 66.082C155.739 68.8391 157.755 71.2084 160.264 72.9624C155.852 78.0272 153.484 84.5535 153.621 91.2693H158.254C158.144 86.0425 159.847 80.939 163.072 76.8247C162.379 81.6127 161.944 86.4345 161.767 91.2692H169.994C169.994 91.2692 168.485 85.0315 170.941 85.0262C173.397 85.0315 171.889 91.2692 171.889 91.2692H180.115C179.952 86.7018 179.553 82.1459 178.918 77.6197C179.834 78.3572 180.862 78.9425 181.964 79.3535C183.229 79.8263 184.58 80.0248 185.929 79.9356C187.143 79.8446 188.326 79.5043 189.402 78.9361C190.48 78.3678 191.428 77.5838 192.189 76.6328C193.92 74.5658 195.041 71.6674 195.523 68.018L190.929 67.4117Z" fill="#EFEFEF"/>
<path d="M171.739 65.9531C188.08 63.2946 200.801 57.9108 200.153 53.928C199.504 49.9452 185.733 48.8716 169.393 51.53C153.052 54.1885 140.33 59.5723 140.979 63.5551C141.627 67.538 155.398 68.6116 171.739 65.9531Z" fill="url(#paint0_linear_1189_5793)"/>
<path d="M28.8135 81.4541C25.2648 80.9745 24.9757 80.3198 24.9757 79.5767C24.9757 78.9442 25.353 77.8833 27.8786 77.8833C30.7673 77.8833 31.3885 79.0677 31.6037 79.9585L31.6423 80.1194H35.392L35.3704 79.8898C35.2639 78.7528 34.4233 75.0449 28.0598 75.0449C22.997 75.0449 21.2 77.6491 21.2 79.8793C21.2 82.5937 23.2512 84.075 27.8526 84.6817C31.7858 85.1613 32.1108 85.9857 32.1108 86.8605C32.1108 88.1445 30.9514 88.7963 28.6635 88.7963C26.268 88.7963 24.8114 87.963 24.3326 86.3187L24.2886 86.1671H20.5L20.5387 86.41C21.0724 89.7686 23.9571 91.6946 28.453 91.6946C33.1764 91.6946 35.8857 89.8332 35.8857 86.5883C35.8865 84.4303 35.0295 82.3145 28.8135 81.4541Z" fill="#EFEFEF"/>
<path d="M48.427 75.0449C45.4542 75.0449 43.7845 76.2748 42.8588 77.5015C42.8495 76.7604 42.823 76.0106 42.7717 75.6486L42.746 75.4683H39.0242L39.0294 75.6835C39.0591 76.9504 39.0591 78.2487 39.0591 79.5167V97.9502H42.8642V89.6048C43.4882 90.3179 44.2684 90.8774 45.144 91.2398C46.0196 91.6022 46.967 91.7577 47.9125 91.6943C52.4257 91.6943 55.8299 88.0052 55.8299 83.1131C55.8298 78.5137 52.647 75.0449 48.427 75.0449ZM51.934 83.2638C51.934 85.6763 50.7305 88.4936 47.3393 88.4936C44.4805 88.4936 42.7738 86.6063 42.7738 83.4453C42.7738 80.1405 44.46 78.2457 47.4 78.2457C50.5324 78.2457 51.934 80.7661 51.934 83.2638Z" fill="#EFEFEF"/>
<path d="M73.265 87.132V80.6346C73.265 76.9259 70.8252 75.0449 66.0137 75.0449C59.9167 75.0449 58.9337 78.6239 58.7932 80.1625L58.7727 80.3915H62.5561L62.5921 80.2255C62.83 79.121 63.3115 77.9436 66.0444 77.9436C69.1257 77.9436 69.5205 79.4304 69.5205 80.7255V81.2709H66.1347C60.6046 81.2709 57.9158 82.9909 57.9158 86.5284C57.9158 89.0997 59.8213 91.6946 64.0794 91.6946C66.7087 91.6946 68.5672 90.993 69.6158 89.6071C69.6301 90.1108 69.6811 90.6126 69.7684 91.1088L69.8064 91.2713H73.4054L73.3859 91.0432C73.3552 90.6759 73.265 88.7611 73.265 87.132ZM61.6604 86.3463C61.6604 84.6719 63.0164 83.9575 66.1951 83.9575C67.9931 83.9575 69.013 83.9575 69.5205 83.9769V84.3213C69.5205 87.2305 67.9439 88.7049 64.835 88.7049C62.8177 88.7052 61.6604 87.8455 61.6604 86.3463Z" fill="#EFEFEF"/>
<path d="M89.0312 86.0771C88.7071 86.8881 88.1303 87.573 87.3861 88.0301C86.6419 88.4872 85.7702 88.6922 84.9003 88.6146C82.1264 88.6146 80.3346 86.5502 80.3346 83.3548C80.3346 80.1777 82.1264 78.125 84.9003 78.125C85.7757 78.0481 86.6517 78.2667 87.3884 78.7458C88.1252 79.225 88.6801 79.9372 88.9646 80.7686L89.0159 80.9055H92.7604L92.7224 80.6635C92.4016 78.5765 90.3985 75.0452 84.93 75.0452C83.815 75.0018 82.703 75.1879 81.6628 75.5919C80.6227 75.996 79.6767 76.6093 78.8835 77.3941C78.0903 78.1789 77.4667 79.1182 77.0514 80.1539C76.6362 81.1896 76.4381 82.2996 76.4695 83.4149C76.4695 88.4444 79.7793 91.6943 84.9007 91.6943C88.9496 91.6943 91.8957 89.6468 92.7792 86.2175L92.8469 85.9551H89.0876L89.0312 86.0771Z" fill="#EFEFEF"/>
<path d="M103.151 75.0449C98.2581 75.0449 94.8405 78.487 94.8405 83.4149C94.8405 87.5362 97.4286 91.6943 103.211 91.6943C108.571 91.6943 110.483 88.5577 111.145 86.6885L111.245 86.4082H107.438L107.378 86.5165C106.561 87.9884 105.313 88.645 103.332 88.645C102.149 88.6929 100.995 88.2719 100.12 87.4734C99.2459 86.6748 98.7222 85.5633 98.6627 84.3807H111.369V83.3244C111.369 79.5053 109.216 75.0449 103.151 75.0449ZM103.12 78.0043C106.487 78.0043 107.293 80.2189 107.454 81.6939H98.7346C99.0726 79.345 100.66 78.0043 103.12 78.0043Z" fill="#EFEFEF"/>
<path d="M118.289 68.1836H114.482V91.2698H118.289V68.1836Z" fill="#EFEFEF"/>
<path d="M124.515 68.2441C124.133 68.2441 123.759 68.3574 123.441 68.5697C123.123 68.782 122.876 69.0838 122.729 69.4369C122.583 69.7899 122.545 70.1784 122.62 70.5533C122.694 70.9281 122.878 71.2725 123.148 71.5427C123.419 71.8129 123.763 71.997 124.137 72.0716C124.512 72.1461 124.901 72.1079 125.254 71.9616C125.607 71.8153 125.909 71.5677 126.121 71.2499C126.333 70.9321 126.447 70.5585 126.447 70.1764C126.446 69.6641 126.243 69.173 125.88 68.8108C125.518 68.4486 125.027 68.2448 124.515 68.2441Z" fill="#EFEFEF"/>
<path d="M126.447 75.4668H122.641V91.2696H126.447V75.4668Z" fill="#EFEFEF"/>
<path d="M149.412 78.486V75.4668H145.514V70.631H141.709V75.4668H135.722V73.9241C135.722 71.7453 136.26 71.0815 138.022 71.0815C138.432 71.0792 138.841 71.1179 139.244 71.1969L139.501 71.2564V68.1714L139.345 68.13C138.712 67.989 138.065 67.9259 137.417 67.9419C133.82 67.9419 131.919 69.9684 131.919 73.8031V75.4668H129.106V78.486H131.918V91.2696H135.722V78.486H141.709V86.7085C141.709 90.0558 143.022 91.421 146.24 91.421C147.12 91.4561 148 91.3506 148.846 91.1085L148.989 91.0603V88.2322L148.735 88.2863C148.271 88.3683 147.799 88.4071 147.328 88.4024C145.936 88.4024 145.513 87.8939 145.513 86.2246V78.4865L149.412 78.486Z" fill="#EFEFEF"/>
<path d="M186.617 50.6065C184.753 46.7398 181.56 43.673 177.621 41.9667C173.682 40.2605 169.261 40.0289 165.165 41.3141C161.07 42.5994 157.573 45.3157 155.316 48.9665C153.058 52.6174 152.189 56.9587 152.869 61.1971C153.731 66.5287 189.06 61.0771 188.157 55.4924C187.882 53.7982 187.363 52.1526 186.617 50.6065Z" fill="#EFEFEF"/>
</g>
<defs>
<linearGradient id="paint0_linear_1189_5793" x1="140.955" y1="58.7417" x2="200.176" y2="58.7417" gradientUnits="userSpaceOnUse">
<stop offset="0.0817" stop-color="#858585"/>
<stop offset="0.9512" stop-color="#363636"/>
</linearGradient>
<clipPath id="clip0_1189_5793">
<rect width="181" height="58.0128" fill="white" transform="translate(20.5 40.4941)"/>
</clipPath>
</defs>
</svg>
