<svg width="223" height="139" viewBox="0 0 223 139" fill="none" xmlns="http://www.w3.org/2000/svg">
<rect x="0.5" y="0.5" width="222" height="138" rx="19.5" fill="#151515"/>
<rect x="0.5" y="0.5" width="222" height="138" rx="19.5" stroke="#4B4B4B"/>
<g clip-path="url(#clip0_1189_5807)">
<path fill-rule="evenodd" clip-rule="evenodd" d="M111.045 122.223C158.661 122.223 197.265 98.5857 197.265 69.4345C197.265 40.2833 158.661 16.6465 111.045 16.6465C63.4291 16.6465 24.829 40.2833 24.829 69.4345C24.829 98.5857 63.4291 122.223 111.045 122.223Z" fill="white"/>
<path fill-rule="evenodd" clip-rule="evenodd" d="M111.045 123.183C141.812 123.183 169.693 113.509 185.632 97.3044C193.858 88.9329 198.207 79.2983 198.207 69.4345C198.207 59.5706 193.858 49.9361 185.632 41.5682C169.693 25.3601 141.812 15.6855 111.045 15.6855C62.9851 15.6855 23.8827 39.7992 23.8827 69.4345C23.8827 79.2983 28.2323 88.9329 36.4618 97.3044C52.3969 113.509 80.2778 123.183 111.045 123.183ZM25.7754 69.4345C25.7754 60.0911 29.932 50.9261 37.7976 42.9258C53.154 27.3111 81.2205 17.611 111.045 17.611C140.87 17.611 168.936 27.3111 184.292 42.9258C192.162 50.9261 196.318 60.0911 196.318 69.4345C196.318 98.0106 158.064 121.258 111.045 121.258C81.2205 121.258 53.154 111.558 37.7976 95.9432C29.932 87.9429 25.7754 78.7779 25.7754 69.4345Z" fill="#231F20"/>
<path fill-rule="evenodd" clip-rule="evenodd" d="M111.005 109.5C150.624 109.5 182.749 91.5627 182.749 69.4363C182.749 47.31 150.624 29.373 111.005 29.373C71.3821 29.373 39.2609 47.31 39.2609 69.4363C39.2609 91.5627 71.3821 109.5 111.005 109.5Z" fill="#231F20"/>
<path fill-rule="evenodd" clip-rule="evenodd" d="M55.4652 80.331C54.9265 80.0944 54.8282 79.927 54.8282 79.1844C54.8282 77.3318 54.9629 75.3117 54.9957 74.773C55.0284 74.2671 55.1304 73.8958 55.3997 73.8958C55.7018 73.8958 55.7382 74.2016 55.7382 74.4709C55.7382 74.9077 55.8729 75.6174 56.0403 76.1889C56.7792 78.6785 58.7665 79.5885 60.8558 79.5885C63.8877 79.5885 65.3691 77.5356 65.3691 75.7485C65.3691 74.0996 64.8632 72.5163 62.0678 70.3616L60.5209 69.1495C56.8156 66.2522 55.5344 63.8936 55.5344 61.1674C55.5344 57.4585 58.6318 54.8014 63.3163 54.8014C65.5038 54.8014 66.9197 55.1363 67.7932 55.3729C68.099 55.4384 68.2664 55.5403 68.2664 55.7769C68.2664 56.2137 68.1317 57.1891 68.1317 59.8171C68.1317 60.5596 68.0298 60.8289 67.7605 60.8289C67.5239 60.8289 67.4256 60.6251 67.4256 60.2247C67.4256 59.919 67.2545 58.8744 66.5484 58.0008C66.0425 57.3602 65.067 56.3483 62.8758 56.3483C60.3862 56.3483 58.8684 57.797 58.8684 59.8171C58.8684 61.3676 59.6437 62.5469 62.4391 64.6689L63.3818 65.375C67.4256 68.5089 68.907 70.7656 68.907 73.965C68.907 75.9195 68.1645 78.2417 65.7404 79.8251C64.0551 80.9024 62.1697 81.2082 60.3862 81.2082C58.4316 81.2082 56.9139 80.9716 55.4652 80.331ZM107.187 70.2597H100.988C100.854 70.2597 100.821 70.1577 100.854 70.0231L103.951 61.7389C103.984 61.6042 104.053 61.4368 104.155 61.4368C104.253 61.4368 104.289 61.6042 104.322 61.7389L107.354 70.0595C107.387 70.1577 107.354 70.2597 107.187 70.2597ZM163.516 75.6174C163.283 75.6174 163.214 75.7485 163.149 76.1197C162.912 77.5029 162.508 78.209 161.631 78.613C160.757 79.017 159.341 79.017 158.464 79.017C155.028 79.017 154.49 78.5111 154.424 76.1889C154.391 75.2134 154.424 72.1123 154.424 70.9658V68.3051C154.424 68.1049 154.457 67.9702 154.624 67.9702C155.432 67.9702 158.77 68.003 159.407 68.0721C160.655 68.2032 161.125 68.7091 161.292 69.3861C161.394 69.8229 161.394 70.2597 161.431 70.5982C161.431 70.7656 161.496 70.9003 161.733 70.9003C162.035 70.9003 162.035 70.529 162.035 70.2597C162.035 70.0231 162.104 68.6763 162.17 68.003C162.272 66.285 162.439 65.7463 162.439 65.5461C162.439 65.3423 162.341 65.2768 162.202 65.2768C162.035 65.2768 161.9 65.4442 161.664 65.7135C161.362 66.0484 160.856 66.1503 160.048 66.2195C159.272 66.285 155.4 66.285 154.657 66.285C154.457 66.285 154.424 66.1503 154.424 65.9137V57.393C154.424 57.1564 154.49 57.0545 154.657 57.0545C155.33 57.0545 158.868 57.1236 159.443 57.1891C161.125 57.393 161.463 57.797 161.7 58.4048C161.868 58.8088 161.9 59.3803 161.9 59.6169C161.9 59.919 161.969 60.0864 162.202 60.0864C162.439 60.0864 162.508 59.8862 162.541 59.7188C162.606 59.3148 162.676 57.8297 162.708 57.4949C162.81 55.9443 162.978 55.5403 162.978 55.3037C162.978 55.1363 162.945 55.0016 162.777 55.0016C162.606 55.0016 162.406 55.1035 162.239 55.1363C161.969 55.2054 161.431 55.271 160.79 55.3401C160.15 55.3729 153.445 55.3729 152.368 55.3729C151.425 55.3729 149.303 55.271 147.519 55.271C147.519 55.271 147.519 55.271 147.516 55.271C155.436 49.1743 158.948 44.4935 156.073 42.8228C151.254 40.0311 130.132 46.6264 106.775 57.8989C106.328 56.7851 105.997 55.9698 105.836 55.6095C105.502 54.8342 105.298 54.5321 104.996 54.5321C104.657 54.5321 104.457 54.8997 104.053 55.8788L102.382 60.0609C100.97 60.7671 99.5541 61.4914 98.1382 62.2303C95.1936 63.7626 92.4056 65.3423 89.7085 66.8601C91.0879 65.4296 91.936 63.5042 91.936 61.2002C91.936 59.413 90.9933 57.8989 90.2508 57.1891C89.7121 56.6868 88.1979 55.271 83.9867 55.271C82.4361 55.271 80.4852 55.3729 79.1021 55.3729C78.1594 55.3729 76.0374 55.271 74.2539 55.271C73.7479 55.271 73.5113 55.3401 73.5113 55.5731C73.5113 55.8096 73.7152 55.8788 74.0828 55.8788C74.556 55.8788 75.1274 55.9116 75.3968 55.9771C76.5105 56.2137 76.7799 56.7524 76.8454 57.8989C76.9146 58.9763 76.9146 59.919 76.9146 65.0402V70.9658C76.9146 74.0669 76.9146 76.7276 76.7471 78.1435C76.6088 79.1189 76.4414 79.8578 75.768 79.9925C75.4659 80.0616 75.0619 80.1272 74.556 80.1272C74.1519 80.1272 74.0173 80.2291 74.0173 80.4001C74.0173 80.6331 74.2539 80.735 74.6906 80.735C76.0374 80.735 78.1594 80.6331 78.9346 80.6331C79.8118 80.6331 81.9338 80.735 84.1578 80.735C84.5254 80.735 84.7947 80.6331 84.7947 80.4001C84.7947 80.2291 84.6273 80.1272 84.256 80.1272C83.7501 80.1272 83.0112 80.0616 82.538 79.9925C81.5298 79.8578 81.326 79.1189 81.2241 78.1762C81.0567 76.7276 81.0567 74.0669 81.0567 70.9658V57.4949C81.0567 57.1236 81.1586 56.9234 81.326 56.8543C81.6281 56.7524 82.134 56.7196 82.64 56.7196C83.4152 56.7196 84.7947 56.9234 86.0068 58.0336C87.8958 59.7188 87.9941 61.6006 87.9941 63.0856C87.9941 66.3068 86.702 68.6399 85.2788 69.7574C84.9549 69.9903 84.8639 70.5217 85.752 69.9721C89.7485 67.5735 94.149 65.0729 98.8771 62.6015C99.9217 62.0555 100.966 61.5169 102.011 60.9854L95.5977 77.0297C94.9243 78.7149 94.2837 79.8578 92.7368 80.0616C92.4674 80.0944 91.9943 80.1272 91.6922 80.1272C91.4228 80.1272 91.2881 80.1963 91.2881 80.4001C91.2881 80.6695 91.4883 80.735 91.9251 80.735C93.6795 80.735 95.5321 80.6331 95.9034 80.6331C96.9444 80.6331 98.393 80.735 99.474 80.735C99.8417 80.735 100.045 80.6695 100.045 80.4001C100.045 80.1963 99.9436 80.1272 99.5396 80.1272H99.0336C97.989 80.1272 97.6869 79.6904 97.6869 79.0825C97.6869 78.6785 97.8543 77.8705 98.1928 77.0297L100.013 72.2142C100.078 72.0104 100.144 71.9449 100.315 71.9449H107.824C107.995 71.9449 108.093 72.0104 108.162 72.1815L109.906 76.804C87.965 87.5196 67.9606 93.831 63.4291 91.1921C60.2334 89.3322 64.4191 83.9926 75.0255 76.6329C75.4805 76.3126 75.4987 75.6939 75.0401 76.0579C61.7875 84.7934 56.0803 90.8391 59.782 92.9866C64.6739 95.822 86.3598 88.9864 110.135 77.4046L110.856 79.3191C111.027 79.7231 110.79 80.0289 110.554 80.0944C110.215 80.1272 110.08 80.1963 110.08 80.4001C110.08 80.6331 110.484 80.6331 111.092 80.6695C113.786 80.735 116.246 80.735 117.458 80.735C118.703 80.735 119.009 80.6695 119.009 80.4001C119.009 80.1636 118.841 80.1272 118.568 80.1272C118.164 80.1272 117.658 80.0944 117.156 79.9925C116.45 79.8251 115.471 79.3555 114.19 76.3236C114.091 76.0833 113.982 75.8285 113.869 75.5556C115.151 74.9077 116.436 74.2525 117.72 73.5828C118.401 73.2261 119.078 72.8694 119.748 72.5163C121.746 77.532 126.645 81.0808 132.378 81.0808C136.469 81.0808 140.138 79.2682 142.631 76.4036C140.549 78.6312 137.696 80.007 134.544 80.007C128.181 80.007 123.02 74.4017 123.02 67.4898C123.02 60.5814 128.181 54.9761 134.544 54.9761C137.452 54.9761 140.345 56.392 142.398 58.3357L142.78 58.736L142.824 58.6924C144.265 57.6914 145.612 56.716 146.861 55.7732C146.952 55.8497 147.119 55.8788 147.348 55.8788C147.822 55.8788 148.393 55.9116 148.662 55.9771C149.776 56.2137 150.042 56.7524 150.111 57.8989C150.18 58.9763 150.18 59.919 150.18 65.0402V70.9658C150.18 74.0669 150.18 76.7276 150.009 78.1435C149.878 79.1189 149.707 79.8578 149.034 79.9925C148.731 80.0616 148.327 80.1272 147.822 80.1272C147.417 80.1272 147.283 80.2291 147.283 80.4001C147.283 80.6331 147.519 80.735 147.956 80.735C149.303 80.735 151.425 80.6331 152.2 80.6331C154.188 80.6331 156.444 80.8369 161.529 80.8369C162.81 80.8369 163.112 80.8369 163.349 79.9597C163.516 79.2864 163.786 76.9969 163.786 76.2216C163.786 75.8831 163.786 75.6174 163.516 75.6174ZM142.391 58.2192C139.894 55.6204 136.24 53.9024 132.378 53.9024C124.869 53.9024 118.783 59.9845 118.783 67.4898C118.783 69.0294 119.045 70.5108 119.518 71.8903C118.707 72.3198 117.884 72.7529 117.047 73.1897C115.904 73.7903 114.761 74.3763 113.622 74.955C111.809 70.5581 108.748 62.809 107.019 58.5031C128.567 48.0824 148.033 42.0002 152.495 44.6027C155.902 46.5864 151.811 51.6057 142.391 58.2192Z" fill="white"/>
<path fill-rule="evenodd" clip-rule="evenodd" d="M161.755 93.0349C161.685 92.2341 164.011 91.5098 163.211 91.579C162.41 91.6481 161.685 89.3223 161.755 90.1231C161.824 90.9238 159.498 91.6481 160.299 91.579C161.099 91.5098 161.824 93.8357 161.755 93.0349Z" fill="white"/>
<path fill-rule="evenodd" clip-rule="evenodd" d="M116.261 105.789C116.192 104.988 118.517 104.26 117.717 104.333C116.916 104.402 116.192 102.076 116.261 102.877C116.33 103.678 114.004 104.402 114.805 104.333C115.606 104.26 116.33 106.59 116.261 105.789Z" fill="white"/>
<path fill-rule="evenodd" clip-rule="evenodd" d="M129.644 37.9424C129.59 37.3018 131.45 36.7194 130.809 36.7777C130.169 36.8323 129.59 34.9723 129.644 35.6129C129.703 36.2535 127.839 36.8323 128.48 36.7777C129.12 36.7194 129.703 38.583 129.644 37.9424Z" fill="white"/>
<path fill-rule="evenodd" clip-rule="evenodd" d="M169.864 66.9073C169.81 66.2667 171.669 65.6843 171.029 65.7425C170.388 65.7971 169.81 63.9372 169.864 64.5778C169.922 65.2184 168.059 65.7971 168.699 65.7425C169.34 65.6843 169.922 67.5479 169.864 66.9073Z" fill="white"/>
<path fill-rule="evenodd" clip-rule="evenodd" d="M136.855 97.7547C136.797 97.1141 138.66 96.5354 138.02 96.59C137.375 96.6482 136.797 94.7846 136.855 95.4252C136.909 96.0658 135.046 96.6482 135.69 96.59C136.327 96.5354 136.909 98.3953 136.855 97.7547Z" fill="white"/>
<path fill-rule="evenodd" clip-rule="evenodd" d="M108.847 46.2782C108.799 45.7177 110.426 45.2081 109.866 45.2591C109.305 45.3064 108.799 43.6757 108.847 44.2399C108.898 44.8004 107.267 45.3064 107.827 45.2591C108.388 45.2081 108.898 46.8387 108.847 46.2782Z" fill="white"/>
<path fill-rule="evenodd" clip-rule="evenodd" d="M52.0147 84.9899C51.9637 84.4294 53.5943 83.9198 53.0338 83.9708C52.4733 84.0181 51.9637 82.3911 52.0147 82.9516C52.062 83.5122 50.435 84.0181 50.9955 83.9708C51.556 83.9198 52.062 85.5505 52.0147 84.9899Z" fill="white"/>
<path fill-rule="evenodd" clip-rule="evenodd" d="M165.678 50.7829C165.631 50.2224 167.262 49.7164 166.697 49.7637C166.141 49.8111 165.631 48.1841 165.678 48.7446C165.729 49.3051 164.099 49.8111 164.663 49.7637C165.223 49.7164 165.729 51.3434 165.678 50.7829Z" fill="white"/>
<path fill-rule="evenodd" clip-rule="evenodd" d="M80.9401 100.336C80.8892 99.775 82.5198 99.2691 81.9593 99.3164C81.3988 99.3674 80.8892 97.7367 80.9401 98.2973C80.9875 98.8614 79.3568 99.3674 79.9174 99.3164C80.4815 99.2691 80.9875 100.9 80.9401 100.336Z" fill="white"/>
<path fill-rule="evenodd" clip-rule="evenodd" d="M46.6605 66.457C46.6096 65.8964 48.2402 65.3905 47.6797 65.4378C47.1192 65.4851 46.6096 63.8581 46.6605 64.4187C46.7079 64.9792 45.0809 65.4851 45.6414 65.4378C46.2019 65.3905 46.7079 67.0175 46.6605 66.457Z" fill="white"/>
<path fill-rule="evenodd" clip-rule="evenodd" d="M123.879 86.6362C123.832 86.0757 125.459 85.5697 124.898 85.6171C124.338 85.668 123.832 84.0374 123.879 84.5979C123.93 85.1584 122.299 85.668 122.86 85.6171C123.42 85.5697 123.93 87.1967 123.879 86.6362Z" fill="white"/>
<path fill-rule="evenodd" clip-rule="evenodd" d="M112.967 34.7434C112.93 34.343 114.095 33.9827 113.695 34.0191C113.294 34.0518 112.93 32.8907 112.967 33.2911C113 33.6879 111.839 34.0518 112.239 34.0191C112.639 33.9827 113 35.1474 112.967 34.7434Z" fill="white"/>
<path fill-rule="evenodd" clip-rule="evenodd" d="M80.8419 37.6294C80.8055 37.2254 81.9702 36.865 81.5698 36.9014C81.1695 36.9342 80.8055 35.7694 80.8419 36.1698C80.8783 36.5702 79.7135 36.9342 80.1139 36.9014C80.5143 36.865 80.8783 38.0298 80.8419 37.6294Z" fill="white"/>
<path fill-rule="evenodd" clip-rule="evenodd" d="M55.72 50.393C55.7018 50.1928 56.2842 50.0108 56.084 50.029C55.8838 50.0472 55.7018 49.4648 55.72 49.665C55.7382 49.8652 55.1558 50.0472 55.356 50.029C55.5562 50.0108 55.7382 50.5931 55.72 50.393Z" fill="white"/>
<path fill-rule="evenodd" clip-rule="evenodd" d="M82.6945 52.0433C82.6799 51.8432 83.2587 51.6612 83.0585 51.6794C82.8583 51.6976 82.6799 51.1152 82.6945 51.3154C82.7127 51.5156 82.1303 51.6976 82.3305 51.6794C82.5307 51.6612 82.7127 52.2435 82.6945 52.0433Z" fill="white"/>
<path fill-rule="evenodd" clip-rule="evenodd" d="M94.2291 33.7172C94.2109 33.517 94.7933 33.335 94.5931 33.3532C94.3929 33.3714 94.2109 32.789 94.2291 32.9892C94.2436 33.1894 93.6613 33.3714 93.8651 33.3532C94.0616 33.335 94.2436 33.9174 94.2291 33.7172Z" fill="white"/>
<path fill-rule="evenodd" clip-rule="evenodd" d="M92.784 50.1912C92.7695 49.991 93.3519 49.809 93.1517 49.8272C92.9515 49.8418 92.7695 49.2594 92.784 49.4632C92.8022 49.6634 92.2199 49.8418 92.4237 49.8272C92.6203 49.809 92.8022 50.3914 92.784 50.1912Z" fill="white"/>
<path fill-rule="evenodd" clip-rule="evenodd" d="M96.0818 58.6312C96.0636 58.431 96.6459 58.2491 96.4457 58.2673C96.2456 58.2855 96.0636 57.7031 96.0818 57.9033C96.1 58.1035 95.5176 58.2855 95.7178 58.2673C95.918 58.2491 96.1 58.8314 96.0818 58.6312Z" fill="white"/>
<path fill-rule="evenodd" clip-rule="evenodd" d="M110.495 52.4555C110.477 52.2553 111.06 52.0733 110.859 52.0915C110.659 52.1097 110.477 51.5273 110.495 51.7275C110.514 51.9277 109.931 52.1097 110.131 52.0915C110.332 52.0733 110.514 52.6556 110.495 52.4555Z" fill="white"/>
<path fill-rule="evenodd" clip-rule="evenodd" d="M102.051 46.6898C102.037 46.4896 102.615 46.3076 102.415 46.3258C102.215 46.344 102.037 45.7617 102.051 45.9619C102.069 46.1621 101.487 46.344 101.687 46.3258C101.887 46.3076 102.069 46.89 102.051 46.6898Z" fill="white"/>
<path fill-rule="evenodd" clip-rule="evenodd" d="M107.816 38.6547C107.802 38.4545 108.384 38.2761 108.184 38.2943C107.98 38.3089 107.802 37.7265 107.816 37.9267C107.835 38.1305 107.252 38.3089 107.452 38.2943C107.653 38.2761 107.835 38.8548 107.816 38.6547Z" fill="white"/>
<path fill-rule="evenodd" clip-rule="evenodd" d="M103.7 33.098C103.682 32.8978 104.264 32.7159 104.064 32.7341C103.864 32.7522 103.682 32.1699 103.7 32.3701C103.718 32.5703 103.136 32.7522 103.336 32.7341C103.536 32.7159 103.718 33.2982 103.7 33.098Z" fill="white"/>
<path fill-rule="evenodd" clip-rule="evenodd" d="M77.7554 44.8365C77.7372 44.6363 78.3195 44.4543 78.1194 44.4725C77.9192 44.4871 77.7372 43.9084 77.7554 44.1086C77.7699 44.3087 77.1912 44.4871 77.3914 44.4725C77.5916 44.4543 77.7699 45.0367 77.7554 44.8365Z" fill="white"/>
<path fill-rule="evenodd" clip-rule="evenodd" d="M71.7824 52.2465C71.7642 52.0463 72.3466 51.8643 72.1464 51.8825C71.9462 51.9007 71.7642 51.3183 71.7824 51.5185C71.8006 51.7223 71.2182 51.9007 71.4184 51.8825C71.6186 51.8643 71.8006 52.4467 71.7824 52.2465Z" fill="white"/>
<path fill-rule="evenodd" clip-rule="evenodd" d="M71.3711 39.481C71.3529 39.2809 71.9353 39.0989 71.7351 39.1171C71.5349 39.1316 71.3529 38.5529 71.3711 38.7531C71.3893 38.9533 70.807 39.1316 71.0072 39.1171C71.2073 39.0989 71.3893 39.6812 71.3711 39.481Z" fill="white"/>
<path fill-rule="evenodd" clip-rule="evenodd" d="M51.3959 58.2211C51.3777 58.0209 51.9601 57.8389 51.7599 57.8571C51.5597 57.8753 51.3777 57.2929 51.3959 57.4931C51.4141 57.6933 50.8317 57.8753 51.0319 57.8571C51.2321 57.8389 51.4141 58.4213 51.3959 58.2211Z" fill="white"/>
<path fill-rule="evenodd" clip-rule="evenodd" d="M44.393 60.2797C44.3784 60.0795 44.9608 59.8975 44.757 59.9157C44.5568 59.9339 44.3784 59.3515 44.393 59.5517C44.4112 59.7519 43.8324 59.9339 44.0326 59.9157C44.2292 59.8975 44.4112 60.4799 44.393 60.2797Z" fill="white"/>
<path fill-rule="evenodd" clip-rule="evenodd" d="M44.393 77.1664C44.3784 76.9662 44.9608 76.7842 44.757 76.8024C44.5568 76.8206 44.3784 76.2382 44.393 76.4384C44.4112 76.6386 43.8324 76.8206 44.0326 76.8024C44.2292 76.7842 44.4112 77.3666 44.393 77.1664Z" fill="white"/>
<path fill-rule="evenodd" clip-rule="evenodd" d="M53.6598 69.7504C53.6453 69.5502 54.224 69.3682 54.0238 69.3864C53.8236 69.4046 53.6453 68.8222 53.6598 69.0224C53.678 69.2226 53.0957 69.4046 53.2959 69.3864C53.496 69.3682 53.678 69.9506 53.6598 69.7504Z" fill="white"/>
<path fill-rule="evenodd" clip-rule="evenodd" d="M60.4554 74.6936C60.4408 74.4934 61.0195 74.3114 60.8193 74.3296C60.6192 74.3478 60.4408 73.7655 60.4554 73.9657C60.4736 74.1658 59.8912 74.3478 60.0914 74.3296C60.2916 74.3114 60.4736 74.8938 60.4554 74.6936Z" fill="white"/>
<path fill-rule="evenodd" clip-rule="evenodd" d="M57.984 85.1937C57.9694 84.9935 58.5482 84.8116 58.348 84.8298C58.1478 84.848 57.9694 84.2656 57.984 84.4658C58.0022 84.666 57.4235 84.848 57.62 84.8298C57.8238 84.8116 58.0022 85.3939 57.984 85.1937Z" fill="white"/>
<path fill-rule="evenodd" clip-rule="evenodd" d="M71.3711 69.1329C71.3529 68.9327 71.9353 68.7543 71.7351 68.7725C71.5349 68.7871 71.3529 68.2047 71.3711 68.4086C71.3893 68.6051 70.807 68.7871 71.0072 68.7725C71.2073 68.7543 71.3893 69.3367 71.3711 69.1329Z" fill="white"/>
<path fill-rule="evenodd" clip-rule="evenodd" d="M64.987 63.1625C64.9688 62.9623 65.5511 62.7803 65.351 62.7985C65.1508 62.8167 64.9688 62.2343 64.987 62.4345C65.0052 62.6347 64.4228 62.8167 64.623 62.7985C64.8232 62.7803 65.0052 63.3627 64.987 63.1625Z" fill="white"/>
<path fill-rule="evenodd" clip-rule="evenodd" d="M61.2816 44.8365C61.2634 44.6363 61.8458 44.4543 61.6456 44.4725C61.4454 44.4871 61.2634 43.9084 61.2816 44.1086C61.2962 44.3087 60.7174 44.4871 60.9176 44.4725C61.1178 44.4543 61.2962 45.0367 61.2816 44.8365Z" fill="white"/>
<path fill-rule="evenodd" clip-rule="evenodd" d="M85.3735 74.8966C85.3553 74.7 85.9376 74.518 85.7374 74.5362C85.5372 74.5508 85.3553 73.9684 85.3735 74.1722C85.3917 74.3688 84.8093 74.5508 85.0095 74.5362C85.2097 74.518 85.3917 75.1004 85.3735 74.8966Z" fill="white"/>
<path fill-rule="evenodd" clip-rule="evenodd" d="M85.9922 63.1625C85.974 62.9623 86.5564 62.7803 86.3562 62.7985C86.156 62.8167 85.974 62.2343 85.9922 62.4345C86.0067 62.6347 85.428 62.8167 85.6282 62.7985C85.8284 62.7803 86.0067 63.3627 85.9922 63.1625Z" fill="white"/>
<path fill-rule="evenodd" clip-rule="evenodd" d="M89.905 83.7523C89.8868 83.5521 90.4692 83.3701 90.269 83.3883C90.0652 83.4065 89.8868 82.8242 89.905 83.0244C89.9196 83.2246 89.3372 83.4065 89.5374 83.3883C89.7412 83.3701 89.9196 83.9525 89.905 83.7523Z" fill="white"/>
<path fill-rule="evenodd" clip-rule="evenodd" d="M76.9291 84.9906C76.9146 84.7904 77.4933 84.6084 77.2931 84.6266C77.0929 84.6448 76.9146 84.0625 76.9291 84.2626C76.9473 84.4628 76.365 84.6448 76.5651 84.6266C76.7653 84.6084 76.9473 85.1908 76.9291 84.9906Z" fill="white"/>
<path fill-rule="evenodd" clip-rule="evenodd" d="M68.8997 88.6957C68.8815 88.4955 69.4639 88.3135 69.2637 88.3317C69.0635 88.3499 68.8815 87.7675 68.8997 87.9677C68.9179 88.1679 68.3355 88.3499 68.5357 88.3317C68.7359 88.3135 68.9179 88.8959 68.8997 88.6957Z" fill="white"/>
<path fill-rule="evenodd" clip-rule="evenodd" d="M71.7824 98.3734C71.7642 98.1732 72.3466 97.9912 72.1464 98.0094C71.9462 98.0276 71.7642 97.4453 71.7824 97.6455C71.8006 97.8457 71.2182 98.0276 71.4184 98.0094C71.6186 97.9912 71.8006 98.5736 71.7824 98.3734Z" fill="white"/>
<path fill-rule="evenodd" clip-rule="evenodd" d="M62.308 97.1404C62.2934 96.9402 62.8758 96.7583 62.672 96.7728C62.4754 96.791 62.2934 96.2086 62.308 96.4125C62.3262 96.609 61.7438 96.791 61.9476 96.7728C62.1442 96.7583 62.3262 97.3406 62.308 97.1404Z" fill="white"/>
<path fill-rule="evenodd" clip-rule="evenodd" d="M90.7276 91.1664C90.7094 90.9662 91.2918 90.7842 91.0916 90.8024C90.8914 90.8206 90.7094 90.2382 90.7276 90.4384C90.7458 90.6386 90.1634 90.8206 90.3636 90.8024C90.5638 90.7842 90.7458 91.3666 90.7276 91.1664Z" fill="white"/>
<path fill-rule="evenodd" clip-rule="evenodd" d="M78.5779 93.639C78.5597 93.4389 79.1421 93.2569 78.9419 93.2751C78.7417 93.2933 78.5597 92.7109 78.5779 92.9111C78.5961 93.1113 78.0138 93.2933 78.2139 93.2751C78.4141 93.2569 78.5961 93.8392 78.5779 93.639Z" fill="white"/>
<path fill-rule="evenodd" clip-rule="evenodd" d="M89.2863 104.758C89.2681 104.558 89.8505 104.376 89.6503 104.394C89.4501 104.412 89.2681 103.83 89.2863 104.03C89.3045 104.23 88.7221 104.412 88.9223 104.394C89.1225 104.376 89.3045 104.958 89.2863 104.758Z" fill="white"/>
<path fill-rule="evenodd" clip-rule="evenodd" d="M94.4329 97.3441C94.4147 97.1439 94.9971 96.9619 94.7969 96.9801C94.5967 96.9983 94.4147 96.416 94.4329 96.6162C94.4511 96.8164 93.8687 96.9983 94.0689 96.9801C94.2691 96.9619 94.4511 97.5443 94.4329 97.3441Z" fill="white"/>
<path fill-rule="evenodd" clip-rule="evenodd" d="M101.64 86.0212C101.622 85.821 102.204 85.639 102.004 85.6572C101.804 85.6717 101.622 85.0894 101.64 85.2932C101.658 85.4934 101.076 85.6717 101.276 85.6572C101.476 85.639 101.658 86.2214 101.64 86.0212Z" fill="white"/>
<path fill-rule="evenodd" clip-rule="evenodd" d="M110.084 95.0805C110.066 94.8803 110.648 94.6983 110.448 94.7165C110.248 94.7347 110.066 94.1523 110.084 94.3525C110.102 94.5527 109.52 94.7347 109.72 94.7165C109.92 94.6983 110.102 95.2806 110.084 95.0805Z" fill="white"/>
<path fill-rule="evenodd" clip-rule="evenodd" d="M103.289 76.135C103.27 75.9348 103.853 75.7528 103.653 75.771C103.452 75.7892 103.27 75.2069 103.289 75.4071C103.307 75.6072 102.724 75.7892 102.925 75.771C103.125 75.7528 103.307 76.3352 103.289 76.135Z" fill="white"/>
<path fill-rule="evenodd" clip-rule="evenodd" d="M113.586 68.106C113.567 67.9059 114.15 67.7239 113.95 67.7421C113.746 67.7566 113.567 67.1779 113.586 67.3781C113.6 67.5783 113.021 67.7566 113.222 67.7421C113.422 67.7239 113.6 68.3062 113.586 68.106Z" fill="white"/>
<path fill-rule="evenodd" clip-rule="evenodd" d="M118.321 59.0414C118.303 58.8412 118.885 58.6592 118.685 58.6774C118.485 58.6956 118.303 58.1132 118.321 58.3134C118.339 58.5136 117.757 58.6956 117.957 58.6774C118.157 58.6592 118.339 59.2416 118.321 59.0414Z" fill="white"/>
<path fill-rule="evenodd" clip-rule="evenodd" d="M111.937 59.6625C111.918 59.4623 112.501 59.2803 112.301 59.2985C112.1 59.3167 111.918 58.7343 111.937 58.9345C111.955 59.1347 111.373 59.3167 111.573 59.2985C111.773 59.2803 111.955 59.8627 111.937 59.6625Z" fill="white"/>
<path fill-rule="evenodd" clip-rule="evenodd" d="M122.849 44.4244C122.834 44.2206 123.413 44.0422 123.213 44.0568C123.013 44.075 122.834 43.4963 122.849 43.6965C122.867 43.893 122.285 44.075 122.485 44.0568C122.685 44.0422 122.867 44.6246 122.849 44.4244Z" fill="white"/>
<path fill-rule="evenodd" clip-rule="evenodd" d="M117.702 48.9515C117.684 48.7514 118.266 48.5694 118.066 48.5876C117.866 48.6058 117.684 48.0234 117.702 48.2236C117.72 48.4238 117.138 48.6058 117.338 48.5876C117.538 48.5694 117.72 49.1517 117.702 48.9515Z" fill="white"/>
<path fill-rule="evenodd" clip-rule="evenodd" d="M118.732 38.2446C118.714 38.0444 119.296 37.8625 119.096 37.8807C118.896 37.8989 118.714 37.3165 118.732 37.5167C118.75 37.7169 118.168 37.8989 118.368 37.8807C118.568 37.8625 118.75 38.4448 118.732 38.2446Z" fill="white"/>
<path fill-rule="evenodd" clip-rule="evenodd" d="M124.705 33.098C124.687 32.8978 125.269 32.7159 125.069 32.7341C124.869 32.7522 124.687 32.1699 124.705 32.3701C124.72 32.5703 124.137 32.7522 124.338 32.7341C124.538 32.7159 124.72 33.2982 124.705 33.098Z" fill="white"/>
<path fill-rule="evenodd" clip-rule="evenodd" d="M133.765 44.6293C133.746 44.4291 134.329 44.2471 134.129 44.2653C133.928 44.2835 133.746 43.7011 133.765 43.9013C133.783 44.1015 133.2 44.2835 133.401 44.2653C133.601 44.2471 133.783 44.8295 133.765 44.6293Z" fill="white"/>
<path fill-rule="evenodd" clip-rule="evenodd" d="M138.5 36.393C138.482 36.1928 139.064 36.0108 138.864 36.029C138.664 36.0472 138.482 35.4648 138.5 35.665C138.518 35.8652 137.936 36.0472 138.136 36.029C138.336 36.0108 138.518 36.5931 138.5 36.393Z" fill="white"/>
<path fill-rule="evenodd" clip-rule="evenodd" d="M142.62 41.1273C142.602 40.9271 143.184 40.7488 142.981 40.7633C142.78 40.7815 142.602 40.1992 142.62 40.3994C142.635 40.5996 142.052 40.7815 142.256 40.7633C142.453 40.7488 142.635 41.3275 142.62 41.1273Z" fill="white"/>
<path fill-rule="evenodd" clip-rule="evenodd" d="M151.68 40.0961C151.662 39.8959 152.244 39.7139 152.044 39.7357C151.844 39.7503 151.662 39.1679 151.68 39.3681C151.698 39.5719 151.116 39.7503 151.316 39.7357C151.516 39.7139 151.698 40.2963 151.68 40.0961Z" fill="white"/>
<path fill-rule="evenodd" clip-rule="evenodd" d="M147.971 48.9515C147.956 48.7514 148.535 48.5694 148.338 48.5876C148.134 48.6058 147.956 48.0234 147.971 48.2236C147.989 48.4238 147.407 48.6058 147.61 48.5876C147.811 48.5694 147.989 49.1517 147.971 48.9515Z" fill="white"/>
<path fill-rule="evenodd" clip-rule="evenodd" d="M133.557 49.7791C133.539 49.5753 134.121 49.3969 133.921 49.4115C133.721 49.4297 133.539 48.8473 133.557 49.0511C133.575 49.2513 132.993 49.4297 133.193 49.4115C133.393 49.3969 133.575 49.9793 133.557 49.7791Z" fill="white"/>
<path fill-rule="evenodd" clip-rule="evenodd" d="M123.468 53.6876C123.449 53.4874 124.032 53.3054 123.832 53.3236C123.631 53.3418 123.449 52.7594 123.468 52.9633C123.486 53.1598 122.904 53.3418 123.104 53.3236C123.304 53.3054 123.486 53.8878 123.468 53.6876Z" fill="white"/>
<path fill-rule="evenodd" clip-rule="evenodd" d="M156.415 53.0728C156.397 52.8727 156.979 52.6907 156.779 52.7089C156.579 52.7234 156.397 52.1447 156.415 52.3449C156.433 52.5451 155.851 52.7234 156.051 52.7089C156.251 52.6907 156.433 53.273 156.415 53.0728Z" fill="white"/>
<path fill-rule="evenodd" clip-rule="evenodd" d="M159.917 46.6898C159.898 46.4896 160.481 46.3076 160.281 46.3258C160.08 46.344 159.898 45.7617 159.917 45.9619C159.935 46.1621 159.352 46.344 159.553 46.3258C159.753 46.3076 159.935 46.89 159.917 46.6898Z" fill="white"/>
<path fill-rule="evenodd" clip-rule="evenodd" d="M174.949 58.8383C174.931 58.6381 175.513 58.4561 175.313 58.4743C175.113 58.4925 174.931 57.9101 174.949 58.1103C174.967 58.3105 174.385 58.4925 174.585 58.4743C174.785 58.4561 174.967 59.0385 174.949 58.8383Z" fill="white"/>
<path fill-rule="evenodd" clip-rule="evenodd" d="M168.153 58.6312C168.135 58.431 168.718 58.2491 168.517 58.2673C168.317 58.2855 168.135 57.7031 168.153 57.9033C168.172 58.1035 167.589 58.2855 167.789 58.2673C167.99 58.2491 168.172 58.8314 168.153 58.6312Z" fill="white"/>
<path fill-rule="evenodd" clip-rule="evenodd" d="M158.475 62.7507C158.457 62.5469 159.039 62.3685 158.839 62.3867C158.639 62.4013 158.457 61.8225 158.475 62.0227C158.493 62.2229 157.911 62.4013 158.111 62.3867C158.311 62.3685 158.493 62.9509 158.475 62.7507Z" fill="white"/>
<path fill-rule="evenodd" clip-rule="evenodd" d="M166.505 71.8109C166.49 71.6107 167.069 71.4287 166.869 71.4469C166.668 71.4651 166.49 70.8828 166.505 71.083C166.523 71.2832 165.94 71.4651 166.141 71.4469C166.341 71.4287 166.523 72.0111 166.505 71.8109Z" fill="white"/>
<path fill-rule="evenodd" clip-rule="evenodd" d="M179.066 70.1625C179.047 69.9623 179.63 69.7803 179.43 69.7985C179.229 69.8167 179.047 69.2343 179.066 69.4345C179.084 69.6347 178.501 69.8167 178.702 69.7985C178.902 69.7803 179.084 70.3627 179.066 70.1625Z" fill="white"/>
<path fill-rule="evenodd" clip-rule="evenodd" d="M169.595 78.8109C169.577 78.6107 170.159 78.4324 169.959 78.4469C169.759 78.4651 169.577 77.8828 169.595 78.083C169.613 78.2832 169.031 78.4651 169.231 78.4469C169.431 78.4324 169.613 79.0111 169.595 78.8109Z" fill="white"/>
<path fill-rule="evenodd" clip-rule="evenodd" d="M174.126 81.9008C174.108 81.7006 174.687 81.5186 174.487 81.5368C174.287 81.555 174.108 80.9726 174.126 81.1728C174.141 81.373 173.559 81.555 173.759 81.5368C173.959 81.5186 174.141 82.101 174.126 81.9008Z" fill="white"/>
<path fill-rule="evenodd" clip-rule="evenodd" d="M169.183 90.1371C169.165 89.9369 169.748 89.7549 169.547 89.7731C169.344 89.7913 169.165 89.2089 169.183 89.4091C169.198 89.6093 168.619 89.7913 168.819 89.7731C169.02 89.7549 169.198 90.3373 169.183 90.1371Z" fill="white"/>
<path fill-rule="evenodd" clip-rule="evenodd" d="M163.622 85.1937C163.604 84.9935 164.186 84.8116 163.986 84.8298C163.786 84.848 163.604 84.2656 163.622 84.4658C163.64 84.666 163.058 84.848 163.258 84.8298C163.458 84.8116 163.64 85.3939 163.622 85.1937Z" fill="white"/>
<path fill-rule="evenodd" clip-rule="evenodd" d="M156.623 88.0767C156.604 87.8765 157.187 87.6981 156.987 87.7127C156.786 87.7309 156.604 87.1485 156.623 87.3487C156.637 87.5489 156.058 87.7309 156.259 87.7127C156.455 87.6981 156.637 88.2769 156.623 88.0767Z" fill="white"/>
<path fill-rule="evenodd" clip-rule="evenodd" d="M159.709 76.5453C159.695 76.3451 160.273 76.1631 160.073 76.1813C159.873 76.1995 159.695 75.6171 159.709 75.8173C159.727 76.0175 159.145 76.1995 159.345 76.1813C159.545 76.1631 159.727 76.7455 159.709 76.5453Z" fill="white"/>
<path fill-rule="evenodd" clip-rule="evenodd" d="M142.62 83.3422C142.602 83.142 143.184 82.96 142.981 82.9782C142.78 82.9964 142.602 82.414 142.62 82.6142C142.635 82.8144 142.053 82.9964 142.256 82.9782C142.453 82.96 142.635 83.5424 142.62 83.3422Z" fill="white"/>
<path fill-rule="evenodd" clip-rule="evenodd" d="M146.325 75.516C146.307 75.3158 146.89 75.1338 146.689 75.152C146.489 75.1702 146.307 74.5879 146.325 74.788C146.344 74.9882 145.761 75.1702 145.962 75.152C146.162 75.1338 146.344 75.7162 146.325 75.516Z" fill="white"/>
<path fill-rule="evenodd" clip-rule="evenodd" d="M147.148 59.8653C147.13 59.6688 147.712 59.4868 147.512 59.505C147.312 59.5195 147.13 58.9372 147.148 59.141C147.166 59.3412 146.584 59.5195 146.784 59.505C146.984 59.4868 147.166 60.0691 147.148 59.8653Z" fill="white"/>
<path fill-rule="evenodd" clip-rule="evenodd" d="M132.942 87.8733C132.924 87.6731 133.503 87.4911 133.302 87.5093C133.106 87.5275 132.924 86.9452 132.942 87.1453C132.957 87.3455 132.378 87.5275 132.578 87.5093C132.778 87.4911 132.957 88.0735 132.942 87.8733Z" fill="white"/>
<path fill-rule="evenodd" clip-rule="evenodd" d="M114.82 86.0212C114.801 85.821 115.384 85.639 115.183 85.6572C114.983 85.6717 114.801 85.0894 114.82 85.2932C114.838 85.4934 114.255 85.6717 114.456 85.6572C114.656 85.639 114.838 86.2214 114.82 86.0212Z" fill="white"/>
<path fill-rule="evenodd" clip-rule="evenodd" d="M121.819 98.7855C121.804 98.5853 122.383 98.4034 122.183 98.4216C121.986 98.4398 121.804 97.8574 121.819 98.0576C121.837 98.2578 121.258 98.4398 121.458 98.4216C121.655 98.4034 121.837 98.9857 121.819 98.7855Z" fill="white"/>
<path fill-rule="evenodd" clip-rule="evenodd" d="M126.146 93.8422C126.128 93.642 126.707 93.4636 126.507 93.4782C126.31 93.4964 126.128 92.914 126.146 93.1142C126.161 93.3144 125.582 93.4964 125.783 93.4782C125.979 93.4636 126.161 94.0424 126.146 93.8422Z" fill="white"/>
<path fill-rule="evenodd" clip-rule="evenodd" d="M130.882 105.17C130.864 104.97 131.446 104.788 131.246 104.806C131.046 104.825 130.864 104.242 130.882 104.442C130.9 104.643 130.318 104.825 130.518 104.806C130.718 104.788 130.9 105.37 130.882 105.17Z" fill="white"/>
<path fill-rule="evenodd" clip-rule="evenodd" d="M149.208 96.5219C149.19 96.3217 149.772 96.1397 149.572 96.1579C149.372 96.1761 149.19 95.5937 149.208 95.7939C149.226 95.9941 148.644 96.1761 148.844 96.1579C149.045 96.1397 149.226 96.722 149.208 96.5219Z" fill="white"/>
<path fill-rule="evenodd" clip-rule="evenodd" d="M150.031 101.049C150.016 100.849 150.595 100.67 150.395 100.685C150.195 100.703 150.016 100.121 150.031 100.321C150.049 100.521 149.467 100.703 149.667 100.685C149.867 100.67 150.049 101.249 150.031 101.049Z" fill="white"/>
<path fill-rule="evenodd" clip-rule="evenodd" d="M158.679 96.7249C158.664 96.5247 159.243 96.3463 159.043 96.3609C158.843 96.3791 158.664 95.7967 158.679 95.9969C158.697 96.1971 158.115 96.3791 158.315 96.3609C158.515 96.3463 158.697 96.9251 158.679 96.7249Z" fill="white"/>
<path fill-rule="evenodd" clip-rule="evenodd" d="M140.764 100.639C140.749 100.439 141.328 100.261 141.128 100.275C140.928 100.293 140.749 99.7109 140.764 99.9111C140.782 100.111 140.2 100.293 140.4 100.275C140.6 100.261 140.782 100.839 140.764 100.639Z" fill="white"/>
<path fill-rule="evenodd" clip-rule="evenodd" d="M106.994 105.581C106.976 105.38 107.558 105.198 107.358 105.217C107.158 105.235 106.976 104.652 106.994 104.853C107.012 105.053 106.43 105.235 106.63 105.217C106.83 105.198 107.012 105.781 106.994 105.581Z" fill="white"/>
<path fill-rule="evenodd" clip-rule="evenodd" d="M98.1382 101.463C98.1237 101.263 98.706 101.081 98.5022 101.099C98.302 101.114 98.1237 100.535 98.1382 100.736C98.1564 100.936 97.5741 101.114 97.7742 101.099C97.9744 101.081 98.1564 101.664 98.1382 101.463Z" fill="white"/>
<path fill-rule="evenodd" clip-rule="evenodd" d="M96.493 90.9595C96.4748 90.7593 97.0572 90.5809 96.857 90.5955C96.6568 90.6137 96.4748 90.0313 96.493 90.2315C96.5112 90.4317 95.9289 90.6137 96.129 90.5955C96.3292 90.5809 96.5112 91.1597 96.493 90.9595Z" fill="white"/>
<path fill-rule="evenodd" clip-rule="evenodd" d="M86.6073 96.5219C86.5928 96.3217 87.1715 96.1397 86.9713 96.1579C86.7711 96.1761 86.5928 95.5937 86.6073 95.7939C86.6255 95.9941 86.0432 96.1761 86.2434 96.1579C86.4436 96.1397 86.6255 96.722 86.6073 96.5219Z" fill="white"/>
<path fill-rule="evenodd" clip-rule="evenodd" d="M102.466 96.5222C102.43 96.1219 103.594 95.7579 103.194 95.7943C102.794 95.8307 102.43 94.6659 102.466 95.0663C102.499 95.4667 101.338 95.8307 101.738 95.7943C102.138 95.7579 102.499 96.9226 102.466 96.5222Z" fill="white"/>
<path fill-rule="evenodd" clip-rule="evenodd" d="M148.797 88.489C148.761 88.0887 149.925 87.7283 149.525 87.7611C149.125 87.7975 148.761 86.6327 148.797 87.0331C148.83 87.4335 147.669 87.7975 148.069 87.7611C148.469 87.7283 148.83 88.8894 148.797 88.489Z" fill="white"/>
<path fill-rule="evenodd" clip-rule="evenodd" d="M176.802 76.9578C176.765 76.5574 177.93 76.1934 177.53 76.2298C177.129 76.2662 176.765 75.1015 176.802 75.5019C176.834 75.9022 175.673 76.2662 176.074 76.2298C176.474 76.1934 176.834 77.3582 176.802 76.9578Z" fill="white"/>
<path fill-rule="evenodd" clip-rule="evenodd" d="M92.3728 73.6629C92.34 73.2625 93.5011 72.8985 93.1007 72.9349C92.7003 72.9713 92.34 71.8066 92.3728 72.2069C92.4092 72.6073 91.2444 72.9713 91.6448 72.9349C92.0452 72.8985 92.4092 74.0632 92.3728 73.6629Z" fill="white"/>
<path fill-rule="evenodd" clip-rule="evenodd" d="M141.477 54.4165C141.445 54.0161 142.606 53.6557 142.205 53.6885C141.805 53.7249 141.445 52.5602 141.477 52.9642C141.514 53.3646 140.353 53.7249 140.749 53.6885C141.15 53.6557 141.514 54.8168 141.477 54.4165Z" fill="white"/>
<path fill-rule="evenodd" clip-rule="evenodd" d="M66.8396 47.5105C66.8032 47.1101 67.9679 46.7498 67.5675 46.7826C67.1671 46.819 66.8032 45.6542 66.8396 46.0546C66.876 46.455 65.7112 46.819 66.1116 46.7826C66.512 46.7498 66.876 47.9109 66.8396 47.5105Z" fill="white"/>
<path fill-rule="evenodd" clip-rule="evenodd" d="M88.2489 43.8367C88.2707 43.7166 88.278 43.6001 88.2707 43.4873C90.7203 42.6247 96.2091 40.7538 98.9462 40.6446C96.0635 40.7611 90.3163 41.9695 87.9031 42.6538C87.823 42.5701 87.7247 42.4936 87.6155 42.4281C89.6211 41.5473 92.522 40.3461 94.8588 40.1387C92.0161 40.3898 88.4709 41.449 86.5163 42.1624C85.479 42.2024 84.5072 42.9086 84.2997 43.8076C84.0849 44.743 84.7911 45.5256 85.8794 45.5511C86.5418 45.5693 87.1897 45.2999 87.6447 44.8777C89.5992 44.066 92.9624 42.7229 95.634 42.4863C93.2427 42.6975 90.2981 43.2762 88.2489 43.8367Z" fill="white"/>
<path fill-rule="evenodd" clip-rule="evenodd" d="M37.3427 48.6827L38.1944 47.5762L44.5495 49.902L43.7014 51.0012L42.2127 50.4298L41.0625 51.9294L41.998 53.2215L41.1717 54.2916L37.3427 48.6827ZM40.4037 51.0231L41.1717 50.0258C41.1717 50.0258 40.5056 49.7819 39.9269 49.5162C39.6539 49.3852 38.8677 49.0248 38.8677 49.0248C38.8677 49.0248 39.3555 49.6363 39.6648 50.0258C39.956 50.4043 40.1489 50.6554 40.4037 51.0231Z" fill="#231F20"/>
<path fill-rule="evenodd" clip-rule="evenodd" d="M43.6978 41.6881L44.9935 40.5962C45.8307 39.8901 46.1546 39.759 46.5623 39.6826C47.2393 39.5479 47.869 39.7918 48.3494 40.3596C48.899 41.0111 49.041 41.8119 48.717 42.5217C48.5787 42.8165 48.4149 43.0531 47.8726 43.5117L47.3266 43.9739L48.8554 45.7866L47.8653 46.6237L43.6978 41.6881ZM45.3648 41.6517L46.646 43.1659L47.1628 42.7291C47.5669 42.3906 47.6433 42.2378 47.6033 41.9211C47.5741 41.7136 47.4795 41.528 47.283 41.295C46.8935 40.8328 46.413 40.7673 45.9945 41.1203L45.3648 41.6517Z" fill="#231F20"/>
<path fill-rule="evenodd" clip-rule="evenodd" d="M52.1785 35.2647L53.6307 34.3911C54.5698 33.827 54.912 33.7505 55.3269 33.7396C56.0148 33.7141 56.5972 34.0563 56.9794 34.6932C57.4198 35.4248 57.4307 36.2365 57.0012 36.8844C56.8156 37.1574 56.6154 37.3649 56.0039 37.7325L55.3924 38.1001L56.6154 40.1347L55.5016 40.8008L52.1785 35.2647ZM53.8273 35.494L54.8501 37.1938L55.4288 36.8444C55.8838 36.575 55.9821 36.4367 55.9966 36.1164C56.0003 35.9089 55.9347 35.7087 55.7782 35.4467C55.4688 34.9298 55.003 34.7879 54.5371 35.0681L53.8273 35.494Z" fill="#231F20"/>
<path fill-rule="evenodd" clip-rule="evenodd" d="M61.4454 30.2379L62.6575 29.6992L64.8414 34.602L66.9488 33.6593L67.1745 34.7367L64.0661 36.1235L61.4454 30.2379Z" fill="#231F20"/>
<path fill-rule="evenodd" clip-rule="evenodd" d="M69.5949 26.8593L71.0727 26.3716L72.4194 27.802C72.6815 28.0896 72.8416 28.2788 72.9872 28.4863C72.9981 28.2861 73.0236 27.9476 73.06 27.6127L73.2929 25.6509L74.7452 25.1741L73.9772 29.4254L74.8071 31.9441L73.5223 32.3663L72.6924 29.8512L69.5949 26.8593Z" fill="#231F20"/>
<path fill-rule="evenodd" clip-rule="evenodd" d="M80.0084 23.7835L81.3224 23.4668L82.8365 29.72L81.5226 30.0403L80.0084 23.7835Z" fill="#231F20"/>
<path fill-rule="evenodd" clip-rule="evenodd" d="M87.4663 22.1679L88.8822 21.935L90.5128 24.279C90.9423 24.9051 91.299 25.5311 91.4992 25.9679C91.3755 25.4838 91.1971 24.6758 91.1134 24.239L90.6657 21.6475L91.8814 21.4473L92.9151 27.8024L91.5793 28.0207L90.0979 25.7641C89.6211 25.0252 89.0824 24.1953 88.8968 23.8204C89.0278 24.3336 89.1588 25.0834 89.2571 25.6112L89.7339 28.3192L88.5 28.523L87.4663 22.1679Z" fill="#231F20"/>
<path fill-rule="evenodd" clip-rule="evenodd" d="M102.75 20.9775L102.131 21.8365C101.687 21.5271 101.243 21.4034 100.752 21.4434C100.373 21.4725 100.06 21.6072 99.8526 21.8402C99.4522 22.2879 99.394 22.9903 99.4704 23.9512C99.5432 24.8648 99.747 25.4436 100.096 25.742C100.355 25.9531 100.715 26.055 101.13 26.0223C101.418 26.0005 101.643 25.9349 101.847 25.8075L101.734 24.348L100.755 24.4281L100.504 23.3871L102.99 23.1905L103.23 26.2589C102.604 26.6957 101.898 26.9395 101.141 26.9978C100.18 27.0742 99.4449 26.8158 98.8771 26.1897C98.3566 25.6256 98.0909 24.9595 98.0145 24.0022C97.9089 22.6409 98.2765 21.6473 99.1246 20.9775C99.5723 20.6245 100.042 20.4498 100.65 20.3988C101.429 20.3406 102.149 20.5335 102.75 20.9775Z" fill="#231F20"/>
<path fill-rule="evenodd" clip-rule="evenodd" d="M118.077 20.2754L119.475 20.3518L121.138 26.9144L119.751 26.8343L119.384 25.2838L117.498 25.1782L116.956 26.6778L115.609 26.6014L118.077 20.2754ZM117.87 24.1227L119.129 24.1918C119.129 24.1918 118.954 23.5075 118.849 22.8778C118.801 22.5794 118.656 21.7277 118.656 21.7277C118.656 21.7277 118.427 22.4738 118.281 22.947C118.135 23.4056 118.033 23.7041 117.87 24.1227Z" fill="#231F20"/>
<path fill-rule="evenodd" clip-rule="evenodd" d="M127.351 21.0642L129.011 21.3044L129.386 24.6167C129.441 25.0935 129.459 25.2827 129.47 25.6212C129.579 25.2973 129.688 25.017 129.841 24.6531L131.159 21.6138L132.836 21.854L132.487 28.3111L131.224 28.1291L131.475 24.6931C131.504 24.2854 131.515 24.0052 131.566 23.6667C131.439 24.0234 131.366 24.1981 131.202 24.5693L129.692 27.907L128.563 27.7469L128.137 24.2672C128.097 23.9433 128.039 23.1207 128.039 23.1207C127.985 23.4992 127.915 23.8523 127.832 24.2418L127.133 27.5394L125.841 27.3538L127.351 21.0642Z" fill="#231F20"/>
<path fill-rule="evenodd" clip-rule="evenodd" d="M139.341 23.1426L142.908 23.9943L142.5 24.9843L140.356 24.4711L140.01 25.9234L141.805 26.3492L141.561 27.3793L139.785 26.9534L139.384 28.6314L141.754 29.1956L141.495 30.2766L137.845 29.4067L139.341 23.1426Z" fill="#231F20"/>
<path fill-rule="evenodd" clip-rule="evenodd" d="M148.659 25.625L150.926 26.4003C152.007 26.7643 152.477 27.7215 152.116 28.7953C151.807 29.7089 150.948 30.2585 150.187 30.0219C150.278 30.1566 150.311 30.2293 150.355 30.3604C150.559 30.9173 151.021 33.2249 151.021 33.2249L149.572 32.7372C149.474 32.2531 149.434 32.0529 149.339 31.5433C149.106 30.2403 149.012 29.8872 148.833 29.7125C148.782 29.6652 148.753 29.6361 148.659 29.5924L147.8 32.1366L146.599 31.7326L148.659 25.625ZM149.536 27.0263L148.972 28.6715L149.383 28.8098C149.907 28.9882 150.155 29.0137 150.373 28.919C150.57 28.8317 150.73 28.6388 150.817 28.3876C150.944 28.0091 150.879 27.7033 150.628 27.4922C150.508 27.3903 150.264 27.2702 149.965 27.1683L149.536 27.0263Z" fill="#231F20"/>
<path fill-rule="evenodd" clip-rule="evenodd" d="M158.424 29.2948L159.662 29.8408L157.056 35.7263L155.818 35.1767L158.424 29.2948Z" fill="#231F20"/>
<path fill-rule="evenodd" clip-rule="evenodd" d="M168.852 35.0958L167.906 35.5653C167.746 35.1941 167.509 34.9175 167.196 34.7391C166.818 34.5207 166.344 34.4916 165.97 34.6699C165.569 34.8665 165.202 35.2778 164.827 35.9257C164.386 36.69 164.204 37.1523 164.197 37.5527C164.186 38.0914 164.43 38.5209 164.91 38.8011C165.216 38.9758 165.533 39.0413 165.911 39.0159C165.959 39.0086 166.017 39.0013 166.075 38.9904L166.181 39.995C165.529 40.1005 164.965 39.9877 164.328 39.6201C163.56 39.176 163.109 38.5827 162.956 37.7965C162.796 37.0322 162.963 36.2314 163.436 35.4088C163.84 34.7136 164.281 34.2295 164.816 33.8947C165.715 33.3378 166.796 33.3196 167.695 33.8401C168.248 34.1567 168.699 34.6554 168.852 35.0958Z" fill="#231F20"/>
<path fill-rule="evenodd" clip-rule="evenodd" d="M175.156 39.0684L176.248 39.9456L173.781 46.2497L172.7 45.3761L173.304 43.902L171.83 42.7191L170.519 43.6254L169.464 42.7773L175.156 39.0684ZM172.75 42.0785L173.73 42.8647C173.73 42.8647 173.988 42.2059 174.268 41.6344C174.403 41.3651 174.781 40.5862 174.781 40.5862C174.781 40.5862 174.159 41.0593 173.766 41.3614C173.38 41.6453 173.125 41.831 172.75 42.0785Z" fill="#231F20"/>
<path fill-rule="evenodd" clip-rule="evenodd" d="M182.145 45.5488L183.048 46.6662L181.821 49.2432C181.493 49.9275 181.122 50.5463 180.845 50.9394C181.206 50.5863 181.817 50.0331 182.156 49.7455L184.183 48.0712L184.958 49.0285L179.954 53.0796L179.102 52.024L180.325 49.6181C180.729 48.8392 181.188 47.9584 181.421 47.6126C181.038 47.9802 180.452 48.4679 180.041 48.8137L177.926 50.5718L177.14 49.5999L182.145 45.5488Z" fill="#231F20"/>
<path fill-rule="evenodd" clip-rule="evenodd" d="M42.453 87.7175L41.3465 87.783C41.2773 87.106 41.1281 86.6765 40.8369 86.2907C40.5202 85.8684 40.0543 85.7556 39.7049 86.014C39.4392 86.2142 39.4101 86.4581 39.6139 86.9749L39.9124 87.7247C40.3164 88.7439 40.1199 89.6065 39.3591 90.1816C38.3109 90.9642 36.9896 90.6366 36.0287 89.3554C35.5883 88.7694 35.268 87.9904 35.177 87.2479L36.2726 87.0295C36.3818 87.6993 36.531 88.2343 36.9205 88.7548C37.3645 89.3481 37.845 89.4755 38.3036 89.1297C38.6348 88.8786 38.6894 88.5037 38.4637 87.9577L38.1908 87.2698C37.9469 86.651 37.9069 86.1815 38.0816 85.7629C38.2053 85.4499 38.4164 85.1769 38.704 84.9585C39.6467 84.2524 40.866 84.5181 41.6813 85.61C42.1545 86.2397 42.442 87.0186 42.453 87.7175Z" fill="#231F20"/>
<path fill-rule="evenodd" clip-rule="evenodd" d="M46.5623 91.2952L47.8471 92.4017C48.677 93.1114 48.859 93.4135 49.001 93.803C49.2375 94.4472 49.0992 95.1097 48.6188 95.6738C48.0619 96.3181 47.2939 96.5874 46.5404 96.3836C46.2274 96.2963 45.969 96.1689 45.4267 95.7066L44.8843 95.2407L43.3411 97.0424L42.3547 96.198L46.5623 91.2952ZM46.8644 92.9367L45.5723 94.44L46.0855 94.8804C46.4858 95.2225 46.6496 95.2771 46.9554 95.1898C47.1556 95.1279 47.323 95.0005 47.5232 94.7712C47.9163 94.3126 47.9054 93.8285 47.4904 93.4718L46.8644 92.9367Z" fill="#231F20"/>
<path fill-rule="evenodd" clip-rule="evenodd" d="M55.4398 97.9688L56.6336 98.6967L55.003 105.267L53.8164 104.542L54.2241 102.999L52.6117 102.016L51.4287 103.083L50.2749 102.38L55.4398 97.9688ZM53.4415 101.263L54.5153 101.918C54.5153 101.918 54.6863 101.23 54.8902 100.629C54.9921 100.342 55.2651 99.5193 55.2651 99.5193C55.2651 99.5193 54.7082 100.073 54.3551 100.422C54.013 100.753 53.78 100.972 53.4415 101.263Z" fill="#231F20"/>
<path fill-rule="evenodd" clip-rule="evenodd" d="M66.5229 104.117L65.6276 104.678C65.431 104.324 65.1689 104.073 64.8414 103.924C64.441 103.746 63.9678 103.768 63.6147 103.982C63.2326 104.219 62.9123 104.663 62.6029 105.347C62.2425 106.148 62.1079 106.625 62.1406 107.029C62.1807 107.564 62.4682 107.968 62.9741 108.197C63.2944 108.343 63.6147 108.376 63.9896 108.31C64.037 108.299 64.0952 108.285 64.1498 108.27L64.3573 109.256C63.7203 109.427 63.1452 109.373 62.4791 109.071C61.6675 108.707 61.1615 108.161 60.9286 107.396C60.6956 106.65 60.7793 105.835 61.1652 104.972C61.4964 104.237 61.8858 103.713 62.3845 103.327C63.2253 102.679 64.299 102.556 65.2454 102.981C65.8277 103.243 66.3264 103.691 66.5229 104.117Z" fill="#231F20"/>
<path fill-rule="evenodd" clip-rule="evenodd" d="M71.695 105.693L75.1747 106.854L74.6833 107.804L72.5941 107.106L72.1209 108.521L73.868 109.104L73.5331 110.105L71.8042 109.53L71.2583 111.164L73.5695 111.932L73.2165 112.988L69.6604 111.801L71.695 105.693Z" fill="#231F20"/>
<path fill-rule="evenodd" clip-rule="evenodd" d="M87.6047 109.941L92.1799 110.717L91.7904 111.739L90.2726 111.481L89.3772 116.77L88.0815 116.551L88.9769 111.263L87.4227 111.001L87.6047 109.941Z" fill="#231F20"/>
<path fill-rule="evenodd" clip-rule="evenodd" d="M97.3593 111.357L101.014 111.692L100.752 112.733L98.5532 112.529L98.4185 114.014L100.253 114.186L100.158 115.237L98.3384 115.07L98.1819 116.784L100.61 117.01L100.508 118.117L96.7697 117.771L97.3593 111.357Z" fill="#231F20"/>
<path fill-rule="evenodd" clip-rule="evenodd" d="M110.819 112.449L110.219 113.319C109.898 113.071 109.56 112.944 109.2 112.937C108.763 112.929 108.333 113.133 108.093 113.472C107.838 113.839 107.715 114.374 107.704 115.124C107.685 116.005 107.751 116.496 107.94 116.853C108.191 117.33 108.614 117.588 109.167 117.599C109.52 117.607 109.829 117.508 110.146 117.301C110.186 117.275 110.233 117.239 110.277 117.203L110.856 118.029C110.339 118.436 109.789 118.611 109.058 118.6C108.166 118.582 107.489 118.284 106.968 117.669C106.462 117.075 106.219 116.293 106.233 115.35C106.248 114.542 106.401 113.905 106.706 113.355C107.223 112.427 108.159 111.888 109.2 111.907C109.837 111.921 110.474 112.136 110.819 112.449Z" fill="#231F20"/>
<path fill-rule="evenodd" clip-rule="evenodd" d="M116.279 111.979L117.56 111.903L117.706 114.4L119.555 114.294L119.413 111.797L120.723 111.725L121.091 118.152L119.78 118.225L119.617 115.361L117.768 115.466L117.928 118.331L116.643 118.404L116.279 111.979Z" fill="#231F20"/>
<path fill-rule="evenodd" clip-rule="evenodd" d="M126.656 111.142L128.079 110.942L129.655 113.319C130.074 113.952 130.416 114.589 130.609 115.029C130.492 114.538 130.332 113.73 130.259 113.289L129.866 110.691L131.086 110.52L131.985 116.893L130.645 117.082L129.211 114.793C128.749 114.046 128.228 113.202 128.054 112.824C128.174 113.34 128.287 114.09 128.37 114.622L128.793 117.341L127.555 117.515L126.656 111.142Z" fill="#231F20"/>
<path fill-rule="evenodd" clip-rule="evenodd" d="M139.21 108.824C140.88 108.435 142.191 109.414 142.649 111.38C142.981 112.796 142.729 113.968 141.943 114.681C141.612 114.979 141.281 115.14 140.757 115.263C139.81 115.485 139.137 115.365 138.511 114.856C137.892 114.353 137.463 113.614 137.248 112.694C136.935 111.343 137.204 110.138 137.983 109.432C138.307 109.148 138.74 108.934 139.21 108.824ZM139.421 109.804C138.995 109.902 138.667 110.208 138.573 110.579C138.453 111.037 138.478 111.609 138.656 112.366C138.908 113.451 139.253 114.073 139.69 114.266C139.919 114.364 140.189 114.379 140.487 114.31C141.361 114.106 141.576 113.352 141.204 111.755C141.055 111.114 140.895 110.666 140.706 110.342C140.531 110.047 140.087 109.647 139.421 109.804Z" fill="#231F20"/>
<path fill-rule="evenodd" clip-rule="evenodd" d="M147.29 106.706L148.546 106.283L150.242 111.372L152.433 110.64L152.553 111.736L149.328 112.809L147.29 106.706Z" fill="#231F20"/>
<path fill-rule="evenodd" clip-rule="evenodd" d="M157.875 102.537C159.432 101.824 160.917 102.519 161.755 104.357C162.362 105.682 162.348 106.879 161.722 107.735C161.456 108.092 161.165 108.317 160.674 108.543C159.789 108.947 159.105 108.965 158.391 108.587C157.682 108.219 157.118 107.582 156.724 106.723C156.146 105.456 156.171 104.222 156.794 103.378C157.056 103.036 157.438 102.737 157.875 102.537ZM158.275 103.454C157.878 103.636 157.616 104 157.602 104.383C157.572 104.856 157.714 105.413 158.038 106.119C158.501 107.131 158.963 107.673 159.429 107.778C159.673 107.826 159.942 107.786 160.219 107.658C161.038 107.283 161.096 106.505 160.415 105.012C160.142 104.412 159.895 104.008 159.644 103.724C159.414 103.473 158.897 103.167 158.275 103.454Z" fill="#231F20"/>
<path fill-rule="evenodd" clip-rule="evenodd" d="M169.395 96.9586L169.249 98.0032C168.714 97.9377 168.259 98.0396 167.844 98.3017C167.524 98.5055 167.313 98.7712 167.236 99.0696C167.094 99.6557 167.371 100.3 167.888 101.115C168.376 101.89 168.827 102.305 169.275 102.407C169.602 102.473 169.97 102.396 170.323 102.171C170.563 102.018 170.734 101.854 170.854 101.647L170.072 100.409L169.242 100.937L168.536 100.132L170.64 98.8003L172.288 101.395C171.939 102.076 171.429 102.622 170.789 103.026C169.973 103.543 169.202 103.659 168.408 103.372C167.688 103.117 167.138 102.655 166.625 101.84C165.897 100.689 165.755 99.6375 166.192 98.6474C166.421 98.1306 166.752 97.7557 167.269 97.4245C167.928 97.0095 168.656 96.8457 169.395 96.9586Z" fill="#231F20"/>
<path fill-rule="evenodd" clip-rule="evenodd" d="M172.892 93.5513L174.05 92.5103L175.859 93.2747C176.212 93.4275 176.434 93.5404 176.652 93.6678C176.583 93.4821 176.467 93.1618 176.365 92.8415L175.79 90.9525L176.925 89.9297L177.941 94.13L179.713 96.0955L178.709 97.0018L176.936 95.0363L172.892 93.5513Z" fill="#231F20"/>
<path fill-rule="evenodd" clip-rule="evenodd" d="M178.541 88.3497L179.746 86.9375L180.019 87.2796L179.619 87.7492L181.253 89.1396L180.911 89.54L179.28 88.1496L178.869 88.6264L178.541 88.3497Z" fill="#231F20"/>
<path fill-rule="evenodd" clip-rule="evenodd" d="M180.234 86.336L180.627 85.7936L181.868 86.285C182.047 86.3542 182.116 86.3833 182.236 86.4415C182.145 86.3432 182.065 86.2523 181.966 86.1285L181.14 85.0948L181.541 84.5488L183.754 85.881L183.451 86.2959L182.287 85.5607C182.148 85.4733 182.05 85.4187 181.941 85.335C182.043 85.4479 182.094 85.5061 182.192 85.6335L183.084 86.7946L182.818 87.1622L181.511 86.6599C181.388 86.6126 181.086 86.4779 181.086 86.4779C181.209 86.5689 181.322 86.6599 181.442 86.7618L182.476 87.6281L182.167 88.0467L180.234 86.336Z" fill="#231F20"/>
</g>
<defs>
<clipPath id="clip0_1189_5807">
<rect width="181" height="105.525" fill="white" transform="translate(21 16.7383)"/>
</clipPath>
</defs>
</svg>
