<svg width="223" height="139" viewBox="0 0 223 139" fill="none" xmlns="http://www.w3.org/2000/svg">
<rect x="0.5" y="0.5" width="222" height="138" rx="19.5" fill="#151515"/>
<rect x="0.5" y="0.5" width="222" height="138" rx="19.5" stroke="#4B4B4B"/>
<path d="M72.9665 54.749V60.0257H69.8422L69.3021 57.8304C68.7238 57.5217 67.0251 57.253 65.4831 57.253C61.9331 57.253 60.5838 58.4479 60.5838 61.1443C60.5838 66.4991 73.7777 65.1118 73.7777 73.4718C73.7777 78.2111 70.3823 80.5607 65.0594 80.5607C63.1298 80.5607 61.2785 80.2921 60.122 79.7909L59.5437 80.3682H56.9595V75.0515H60.124L60.7023 77.2869C61.5898 77.6337 63.2864 77.8643 64.947 77.8643C68.6515 77.8643 69.9627 76.5551 69.9627 73.8587C69.9627 68.1952 56.7688 69.7368 56.7688 61.5693C56.7688 56.9082 60.0858 54.5586 65.3726 54.5586C66.8766 54.5586 68.6897 54.8272 69.8482 55.3685L70.4647 54.7531H72.9665V54.749Z" fill="white"/>
<path d="M84.811 80.7507C83.1524 80.7507 81.3775 80.3277 80.1045 79.1709H79.8735V83.8621L80.1828 84.1708H83.3854V86.5585H73.392V84.1708H75.9381L76.2473 83.8621V63.6458L75.9381 63.3371H72.9684V60.9494H79.488C79.6426 61.1799 79.7189 61.643 79.7189 62.1823C79.7189 62.5672 79.6808 63.1065 79.6025 63.4534H79.8715C81.2992 61.1799 83.1504 60.5645 85.4655 60.5645C89.6701 60.5645 93.2582 63.4153 93.2582 70.5042C93.2602 78.1304 89.3629 80.7507 84.811 80.7507ZM83.7307 78.0161C87.3188 78.0161 89.4412 76.8614 89.4412 70.5804C89.4412 65.3419 87.6662 63.4914 84.3873 63.4914C82.7669 63.4914 80.8373 64.147 79.8735 65.0331V77.2844C80.7209 77.7074 82.3794 78.0161 83.7307 78.0161Z" fill="white"/>
<path d="M111.084 80.6745C109.155 80.6745 107.806 80.1352 106.763 78.4392H106.494C104.912 79.9027 103.215 80.7507 100.9 80.7507C96.8504 80.7507 94.6498 78.7078 94.6498 75.3959C94.6498 71.6209 97.234 69.5399 103.408 69.5399H106.071V68.0384C106.071 64.8026 104.914 63.6459 100.9 63.6459C99.0872 63.6459 97.1958 63.9145 95.8846 64.2613L95.8083 61.4486C97.0813 60.9093 99.1655 60.5625 101.286 60.5625C106.378 60.5625 109.657 62.6435 109.657 67.6133V77.3987C110.08 77.8618 110.699 78.0924 111.663 78.0924C112.048 78.0924 112.667 78.0543 112.936 77.9761V80.2495C112.396 80.5222 111.663 80.6745 111.084 80.6745ZM106.069 71.8535H103.406C99.3161 71.8535 98.507 72.8559 98.507 75.1674C98.507 77.1321 99.1234 78.0944 102.288 78.0944C103.599 78.0944 105.105 77.8257 106.069 77.4007V71.8535Z" fill="white"/>
<path d="M127.326 64.4938C126.246 63.9546 124.162 63.5696 122.62 63.5696C118.915 63.5696 116.602 65.1875 116.602 70.7347C116.602 75.8971 118.801 77.7455 122.582 77.7455C124.395 77.7455 126.439 77.1681 127.519 76.5506L127.636 79.3634C126.401 80.1733 124.126 80.7507 122.351 80.7507C116.1 80.7507 112.783 77.0137 112.783 70.7347C112.783 64.1851 116.447 60.5645 122.543 60.5645C124.202 60.5645 126.363 60.9113 127.559 61.4125L127.326 64.4938Z" fill="white"/>
<path d="M144.456 79.3634C142.873 80.3256 140.637 80.7507 138.783 80.7507C131.916 80.7507 128.366 76.9376 128.366 70.7347C128.366 64.2633 131.954 60.5645 137.318 60.5645C142.873 60.5645 145.419 63.6458 145.419 68.3851C145.419 68.9244 145.419 69.8867 145.381 70.7728H132.147C132.147 75.4721 134.346 77.7455 138.86 77.7455C141.137 77.7455 143.181 77.2062 144.337 76.5506L144.456 79.3634ZM132.304 68.345H141.795V67.6133C141.795 64.8387 140.598 63.2609 137.32 63.2609C134.155 63.2609 132.651 65.0331 132.304 68.345Z" fill="white"/>
<path d="M172.62 57.1397H169.996L169.649 57.4484V80.3692H165.906L152.905 59.0262H152.636V77.6707L152.945 77.9795H155.955V80.3672H146.387V77.9795H149.012L149.359 77.6707V57.4464L149.012 57.1377H146.042V54.75H154.22L166.103 74.2806H166.372V57.4464L166.063 57.1377H163.093V54.75H172.622V57.1397H172.62Z" fill="white"/>
<path d="M188.129 79.3634C186.547 80.3256 184.31 80.7507 182.457 80.7507C175.59 80.7507 172.04 76.9376 172.04 70.7347C172.04 64.2633 175.628 60.5645 180.991 60.5645C186.547 60.5645 189.093 63.6458 189.093 68.3851C189.093 68.9244 189.093 69.8867 189.055 70.7728H175.821C175.821 75.4721 178.02 77.7455 182.533 77.7455C184.81 77.7455 186.854 77.2062 188.011 76.5506L188.129 79.3634ZM175.978 68.345H185.469V67.6133C185.469 64.8387 184.272 63.2609 180.993 63.2609C177.829 63.2609 176.325 65.0331 175.978 68.345Z" fill="white"/>
<path d="M197.852 80.7511C194.573 80.7511 192.527 79.4801 192.527 75.7812V63.3375H189.402V60.9498H192.527V57.1367H196.153V60.9498H200.898V63.3375H196.153V75.4344C196.153 77.361 196.577 77.9384 198.584 77.9384C199.355 77.9384 200.514 77.784 201.014 77.6297L201.13 80.2098C200.283 80.5206 199.086 80.7511 197.852 80.7511Z" fill="white"/>
<path d="M35.8584 81.5892C43.6287 81.5892 49.9278 75.2999 49.9278 67.5417C49.9278 59.7834 43.6287 53.4941 35.8584 53.4941C28.0881 53.4941 21.7891 59.7834 21.7891 67.5417C21.7891 75.2999 28.0881 81.5892 35.8584 81.5892Z" fill="#7A7A7A"/>
<path d="M37.1073 61.584H34.6095V67.5422H37.1073V61.584Z" fill="black"/>
<path d="M42.8741 67.5411C41.5529 70.0652 38.9085 71.7893 35.8585 71.7893C32.8085 71.7893 30.1641 70.0652 28.8429 67.5411H26.1082C27.59 71.4805 31.395 74.2832 35.8585 74.2832C40.3221 74.2832 44.127 71.4805 45.6089 67.5411H42.8741Z" fill="black"/>
</svg>
