<svg width="1046" height="560" viewBox="0 0 1046 560" fill="none" xmlns="http://www.w3.org/2000/svg">
<path d="M836.093 86.9158L838.252 86.834L838.858 87.6339C838.805 89.3677 836.631 91.3629 835.48 92.6051C827.799 100.899 819.277 108.582 811.248 116.55L764.762 162.949L618.841 308.621C590.67 336.701 561.691 364.254 534.433 393.217C533.405 392.89 533.485 392.878 532.958 391.922C533.658 389.107 536.713 386.402 538.709 384.342C544.829 378.023 551.465 372.139 557.711 365.926L610.129 313.556L785.313 138.393C791.88 131.838 834.813 90.6592 836.093 86.9158Z" fill="white"/>
<path d="M808.537 77.5525C809.317 77.4525 810.051 77.4662 810.832 77.4745L811.339 78.1441C811.059 80.4127 808.983 82.3397 807.469 83.9274C800.576 91.1278 792.963 97.7277 785.903 104.796L716.73 173.93L654.339 236.238C637.658 253.015 621.19 269.966 604.079 286.309C603.527 286.455 603.196 286.343 602.645 286.239C602.236 285.097 602.317 284.906 602.998 283.868C605.955 279.359 611.266 275.074 615.129 271.201L644.589 241.944L754.89 131.817C771.625 115.084 789.07 98.8608 805.416 81.7572C806.635 80.4832 807.938 79.247 808.537 77.5525Z" fill="white"/>
<path d="M905.985 103.044C906.697 102.978 907.333 103.04 908.045 103.099L908.454 104.04C907.757 105.917 906.401 107.308 905.045 108.744C889.495 125.293 872.618 140.965 856.53 157.03L749.163 264.284C741.415 272.06 708.022 307.456 701.186 311.221L700.317 311.928L699.61 311.503C700.057 309.372 702.574 306.682 704.063 305.069C710.195 298.422 716.902 292.148 723.336 285.785L759.975 249.549L871.603 138.117C876.284 133.448 905.129 106.191 905.985 103.044Z" fill="white"/>
<path d="M890.222 93.68C890.714 93.5596 891.229 93.4134 891.737 93.3801C892.88 93.3066 893.555 93.2718 894.395 94.0247L893.502 94.3996L893.979 94.8329C889.078 101.502 881.905 107.389 876.019 113.234L840.873 148.254L740.212 248.919L711.342 277.961C706.136 283.182 699.13 291.659 692.821 295.22L691.835 296.216L691.14 296.175C690.353 295.006 692.893 292.248 693.63 291.333C696.926 287.24 701.216 283.694 704.972 280L726.078 258.958L838.464 146.541C853.394 131.6 868.944 117.118 883.564 101.897C885.374 100.011 889.782 96.266 890.222 93.68Z" fill="white"/>
<path d="M820.603 77.553C821.663 77.2871 822.269 77.1758 823.33 77.478L823.678 78.2476C822.997 80.142 821.618 81.613 820.255 83.0583C800.848 103.677 779.427 123.431 759.339 143.553L610.321 292.57C609.801 292.704 609.197 292.616 608.661 292.598L608.158 291.957C608.485 289.905 610.6 288.137 612.003 286.672C629.247 268.671 647.594 251.549 665.243 233.921L778.814 120.302C784.358 114.773 819.02 82.5697 820.603 77.553Z" fill="#808080"/>
<path d="M896.615 99.9222C897.675 99.7094 898.327 99.6859 899.395 99.8594L899.849 100.624C899.039 102.835 896.759 104.841 895.123 106.498L753.34 247.83C745.127 256.046 699.963 302.797 695.458 304.999C694.969 305.539 694.752 305.603 694.089 305.854L693.762 305.021C694.343 302.721 696.498 300.303 698.093 298.579C702.389 293.936 707.439 289.63 711.941 285.138L748.79 248.358L856.568 140.726C863.271 134.064 893.903 105.62 896.615 99.9222Z" fill="#808080"/>
<path d="M882.223 90.0383C882.988 89.9678 883.745 90.036 884.51 90.0784L885.018 90.7109C884.238 92.9492 693.358 285.426 686.592 288.944L686.086 289.358L685.318 289.08C685.578 286.801 688.89 283.911 690.49 282.195C706.684 264.839 724.213 248.395 741.043 231.628L846.872 126.314C852.765 120.415 879.822 94.6043 882.223 90.0383Z" fill="#808080"/>
<path d="M776.261 48.4197C777.215 48.2258 777.67 48.1318 778.617 48.4507L778.874 49.5066C777.283 53.5977 750.172 79.0896 744.635 84.6509L645.872 183.416C626.366 202.843 606.449 221.937 587.513 241.919L586.291 241.255C585.834 239.799 586.086 239.332 587.095 238.195C592.496 232.109 598.69 226.572 604.455 220.828L638.24 187.03L744.602 80.6583C749.589 75.6794 774.966 51.7836 776.261 48.4197Z" fill="white"/>
<path d="M796.523 77.5536C797.917 77.4241 798.303 77.2968 799.598 77.924C799.447 79.3041 798.705 80.0184 797.773 81.0107C780.374 99.5967 761.422 117.099 743.386 135.084C695.857 181.943 648.678 229.157 601.854 276.721C601.073 276.809 600.949 276.698 600.234 276.341C599.86 274.86 600.884 273.809 601.819 272.712C606.787 266.883 612.761 261.661 618.186 256.246L651.34 223.116L760.225 114.334C765.497 109.09 794.417 81.7901 796.523 77.5536Z" fill="white"/>
<path d="M841.289 93.679C842.07 93.51 842.872 93.4154 843.66 93.2949L844.486 93.9365C844.448 94.1243 844.425 94.3145 844.38 94.5001C844.236 95.1265 843.895 95.6491 843.509 96.1544C838.858 102.29 832.328 107.881 826.829 113.322L794.122 145.69L699.578 240.201C692.744 247.051 669.143 272.513 663.2 275.955C662.681 276.459 662.373 276.5 661.694 276.697L661.018 276.051C661.449 273.897 664.072 271.6 665.573 270.009C681.273 253.365 698.109 237.627 714.326 221.468L807.211 128.692C812.672 123.244 839.668 98.2313 841.289 93.679Z" fill="white"/>
<path d="M832.98 77.5524C833.185 77.5289 833.389 77.4994 833.601 77.4835C834.79 77.3918 835.419 77.2115 836.298 78.0326C833.669 83.1501 797.326 118.084 790.721 124.705L644.598 270.283L643.354 270.085C642.319 267.228 661.194 250.257 664.446 247.026L777.571 134.009C793.13 118.425 809.188 103.239 824.504 87.4245C826.981 84.8635 831.927 80.8262 832.98 77.5524Z" fill="#808080"/>
<path d="M876.042 83.7956C876.868 83.741 877.708 83.76 878.534 83.7539L879.102 84.4932C875.542 90.7181 866.612 97.7065 861.377 102.929L829.185 135.195L730.336 233.889C718.116 246.096 706.241 258.709 693.894 270.771C690.971 273.625 687.444 277.682 683.713 279.403C683.385 279.893 683.358 279.775 682.813 279.886C682.776 277.555 684.375 275.961 685.879 274.29C690.401 269.262 695.768 264.774 700.58 259.999L734.074 226.537L839.312 121.28C846.16 114.45 872.982 89.9204 876.042 83.7956Z" fill="#808080"/>
<path d="M853.939 93.6799C854.893 93.4655 855.689 93.4534 856.658 93.4966L857.173 94.3131C855.56 98.1187 817.581 134.603 812.021 140.156L712.823 239.106C704.602 247.313 683.17 271.404 675.327 275.764C675.062 276.179 674.725 276.315 674.312 276.567L673.802 275.933C674.084 274.231 675.313 272.684 676.429 271.41C680.758 266.463 686.089 261.916 690.783 257.252L722.054 226.066L819.747 128.48C825.435 122.808 851.311 99.036 853.939 93.6799Z" fill="white"/>
<path d="M916.127 106.166C916.801 106.207 917.067 106.389 917.597 106.793C917.566 107.077 917.559 107.276 917.46 107.539C916.938 108.997 748.78 278.953 741.397 283.037L740.881 282.886C740.739 282.437 740.511 282.18 740.739 281.743C742.856 277.708 769.542 252.4 774.663 247.31L869.785 152.512C875.027 147.254 913.84 106.945 916.127 106.166Z" fill="#808080"/>
<path d="M757.604 54.6633C758.559 54.4558 759.119 54.4278 760.089 54.5845L760.551 55.3867C760.051 57.2183 758.824 58.4991 757.551 59.858C749.417 68.5477 740.586 76.7314 732.115 85.1037L692.248 124.87C664.298 153.248 636.115 181.395 607.703 209.309L606.302 209.46L605.762 208.893C606.08 207.17 607.014 206.028 608.166 204.768C621.249 190.462 635.84 177.252 649.582 163.567L728.067 85.0901C732.66 80.5165 756.646 58.3901 757.604 54.6633Z" fill="white"/>
<path d="M794.031 55.1842C795.129 54.8501 795.925 54.7948 797.068 54.9228L797.462 55.6341C796.978 57.277 795.781 58.5943 794.607 59.7994C786.585 68.0558 778.048 75.9327 769.883 84.0611L707.517 146.252C684.487 169.207 662.072 193.106 638.308 215.281L637.427 215.788L636.576 215.468C636.163 213.765 638.118 211.99 639.236 210.783C643.746 205.914 648.699 201.431 653.393 196.733L683.579 166.539L763.391 86.7592C767.838 82.3265 793.311 58.9071 794.031 55.1842Z" fill="white"/>
<path d="M782.965 54.666C784.07 54.7698 784.184 54.7562 785.025 55.4644C784.767 56.7831 783.964 57.4929 783.071 58.4518C767.27 75.5123 749.778 91.7797 733.272 108.254L641.541 199.935C640.91 199.682 640.572 199.422 640.045 199.005C640.335 197.359 641.432 196.31 642.522 195.11C656.238 180.011 671.465 165.859 685.926 151.442C718.274 119.193 751.005 87.2818 782.965 54.666Z" fill="#808080"/>
<path d="M784.548 77.5517L786.547 77.5449L787.025 78.3236C786.563 79.8613 785.699 80.8255 784.616 81.9754C781.23 85.59 777.359 88.8706 773.845 92.3913L744.525 121.767C709.734 156.279 674.466 190.438 640.477 225.741L639.207 224.894L639.009 223.767C639.683 222.003 640.981 220.688 642.267 219.346C652.87 208.284 664.376 197.868 675.237 187.025L756.735 105.558L773.693 88.7418C777.367 85.1264 781.404 81.6413 784.548 77.5517Z" fill="#808080"/>
<path d="M341.341 152.559C342.045 153.619 342.015 153.796 342.032 155.012C341.408 156.483 340.513 157.483 339.426 158.627C330.055 168.488 320.13 177.803 310.419 187.326L276.51 221.163L241.235 256.499C234.537 263.222 227.981 270.25 220.954 276.628C220.559 275.934 220.066 275.392 220.123 274.568C220.241 272.85 222.287 270.882 223.411 269.713C229.879 262.991 236.854 256.657 243.476 250.071L294.176 199.557L324.77 169.131C330.252 163.628 335.493 157.651 341.341 152.559Z" fill="white"/>
<path d="M670.395 93.1465C671.411 93.1844 671.942 93.2048 672.781 93.8684C672.729 95.5378 670.995 97.1489 669.909 98.3071C653.923 115.357 635.832 132.133 619.107 148.664L552.089 216.029C551.368 215.836 550.952 215.536 550.363 215.084C551.653 209.995 635.755 128.045 644.049 119.829C652.825 111.137 662.626 102.74 670.395 93.1465Z" fill="white"/>
<path d="M676.263 99.8984L678.042 99.9636L678.552 100.648C678.361 102.154 676.35 103.97 675.295 105.062C666.205 114.477 656.648 123.5 647.364 132.726L598.825 181.304L573.702 206.505C567.304 213.008 561.033 219.859 553.98 225.662L553.047 224.772C552.565 222.244 563.456 212.545 565.675 210.404C593.11 183.929 619.757 156.535 646.701 129.555C652.741 123.507 658.649 117.319 664.765 111.351C668.368 107.836 673.476 104.017 676.263 99.8984Z" fill="white"/>
<path d="M337.795 143.691C338.585 144.458 338.609 144.573 338.844 145.656C338.167 147.506 336.638 149.05 335.302 150.46C331.101 154.889 326.478 159.017 322.155 163.343L287.54 197.957C264.282 221.14 241.326 244.687 217.771 267.563L216.618 266.106C216.839 264.412 218.22 263.181 219.339 261.972C233.037 247.165 248.012 233.304 262.362 219.114C287.738 194.205 312.883 169.064 337.795 143.691Z" fill="#808080"/>
<path d="M347.731 158.783C348.19 159.141 348.412 159.538 348.732 160.019C348.402 161.632 347.341 162.862 346.223 164.023C336.529 174.093 326.085 183.672 316.192 193.584L227.579 282.169L226.52 281.47L226.399 280.299C228.845 274.902 273.94 232.127 281.572 224.484L324.635 181.287C332.146 173.792 339.602 165.588 347.731 158.783Z" fill="white"/>
<path d="M859.544 173.79C860.514 173.557 861.12 173.422 862.112 173.684L862.392 174.649C861.423 176.72 859.802 178.376 858.242 180.011C846.38 192.398 833.745 204.15 821.626 216.299L772.39 265.622C767.338 270.687 753.734 286.271 748.475 288.939C748.087 289.379 747.814 289.444 747.279 289.654L746.614 289.064C746.679 287.756 747.588 286.859 748.404 285.9C756.763 276.067 769.383 264.319 778.806 254.93L833.904 200.228C838.623 195.575 858.09 178.641 859.544 173.79Z" fill="white"/>
<path d="M413.72 362.713C414.34 363.321 414.397 363.523 414.652 364.363C414.108 366.213 412.612 367.686 411.314 369.052C399.399 381.589 386.519 393.343 374.296 405.598C352.667 427.286 331.349 449.378 309.33 470.664C308.645 469.821 308.437 469.342 308.193 468.283C308.429 467.621 308.618 467.173 309.108 466.653C315.892 459.46 323.163 452.621 330.182 445.651L370.181 405.858L396.144 379.802C401.881 374.029 407.52 367.99 413.72 362.713Z" fill="white"/>
<path d="M652.796 98.9316C653.5 99.4869 653.803 99.9323 654.246 100.69C653.888 102.183 652.532 103.296 651.495 104.385C635.738 120.938 618.964 136.715 602.778 152.872C583.841 171.778 565.252 191.191 545.793 209.546C545.269 209.34 544.83 208.978 544.371 208.657C544.614 206.314 547.215 204.09 548.811 202.399C559.433 191.147 571.076 180.636 582.083 169.732C605.809 146.288 629.38 122.687 652.796 98.9316Z" fill="#808080"/>
<path d="M631.588 218.566C632.488 218.947 632.505 218.935 632.964 219.793C632.376 221.596 631.053 222.919 629.781 224.275C618.762 236.023 606.693 246.949 595.276 258.332L518.639 334.97L517.658 334.669L517.273 333.817C518.107 331.469 520.363 329.445 522.057 327.654C533.473 315.583 545.772 304.223 557.524 292.468L631.588 218.566Z" fill="white"/>
<path d="M292.631 103.109C293.503 103.34 293.526 103.393 294.1 104.098C293.826 105.714 292.557 106.977 291.471 108.143C279.973 120.483 267.379 132.015 255.424 143.936L183.044 216.42L181.839 215.974L181.539 214.968C182.11 213.434 183.058 212.38 184.161 211.199C186.726 208.453 189.678 206.055 192.342 203.397L216.478 179.249L292.631 103.109Z" fill="white"/>
<path d="M637.221 311.211C637.532 311.632 637.739 312.209 637.967 312.684C637.664 314.384 636.606 315.614 635.466 316.86C628.881 324.058 621.436 330.695 614.456 337.524C603.996 347.837 593.606 358.219 583.286 368.673L555.297 396.79C550.098 402.025 544.915 407.976 539.141 412.547C538.622 411.933 538.356 411.378 538.027 410.654C539.411 407.033 626.408 320.989 637.221 311.211Z" fill="white"/>
<path d="M407.544 356.428C408.192 356.803 408.442 357.109 408.839 357.742C407.018 362.943 322.741 445.286 310.496 457.47C309.67 457.02 309.573 456.83 309.073 456.018C309.345 454.594 310.229 453.752 311.184 452.714C323.574 439.231 337.369 426.587 350.345 413.623C369.405 394.579 388.138 375.114 407.544 356.428Z" fill="white"/>
<path d="M463.113 6.36157L464.224 6.61835L464.606 7.30689C462.735 12.5811 377.735 95.6148 366.363 107.182C365.428 106.507 365.284 106.367 364.814 105.319C366.495 101.426 452.694 16.4897 463.113 6.36157Z" fill="white"/>
<path d="M618.264 108.789C619.185 109.228 619.394 109.507 619.885 110.351C619.007 113.323 529.725 201.208 518.124 212.747C517.323 212.48 517.222 212.349 516.661 211.702C517.611 209.088 520.373 206.514 522.285 204.488C529.776 196.552 537.974 189.229 545.703 181.514C570.085 157.469 594.272 133.226 618.264 108.789Z" fill="white"/>
<path d="M636.942 102.564C637.708 102.819 637.949 103.078 638.558 103.593C637.795 107.722 549.629 193.668 540.323 202.872L539.089 202.362L539.075 201.119C542.539 194.563 558.821 180.778 564.895 174.698L636.942 102.564Z" fill="white"/>
<path d="M638.926 272.73C639.473 273.227 639.513 273.488 639.74 274.171C639.422 275.101 639.071 275.721 638.41 276.458C631.145 284.554 623.148 292.197 615.456 299.891L579.036 336.14C565.273 349.713 551.98 364.338 537.68 377.297C537.391 376.66 536.995 376.06 537.008 375.348C537.027 374.258 537.851 373.156 538.565 372.383C542.774 367.831 547.669 363.671 552.077 359.273L586.401 324.967L620.315 291.134C626.473 284.987 632.468 278.552 638.926 272.73Z" fill="white"/>
<path d="M353.988 164.492L355.011 164.917L355.332 165.829C354.627 167.917 352.875 169.605 351.4 171.198C338.017 185.65 323.252 198.941 309.329 212.869C292.94 229.263 277.201 246.432 259.968 261.948C258.984 261.573 258.97 261.582 258.438 260.675C261.314 255.204 280.934 237.57 286.701 231.814L353.988 164.492Z" fill="#808080"/>
<path d="M625.047 311.312C625.549 311.857 625.702 312.26 626.011 312.928C625.083 316.003 546.421 393.617 536.654 403.01C535.933 402.291 535.886 402.113 535.629 401.119C537.086 397.109 617.775 317.434 625.047 311.312Z" fill="white"/>
<path d="M263.784 95.2422C264.825 95.5512 264.764 95.5876 265.34 96.5231C265.056 98.0675 263.906 99.2439 262.859 100.358C254.103 109.67 244.366 118.297 235.315 127.356C214.558 148.131 193.998 169.04 172.988 189.564L171.972 189.223L171.611 188.019C172.27 186.144 173.642 184.8 174.977 183.383C187.369 170.221 200.951 157.852 213.749 145.051C230.361 128.437 246.549 111.197 263.784 95.2422Z" fill="white"/>
<path d="M267.094 104.152C267.599 104.51 267.878 104.93 268.264 105.414C268.137 106.904 267.086 108.044 266.112 109.114C257.378 118.704 247.41 127.558 238.215 136.743L179.45 195.508C178.536 194.619 178.467 194.661 178.345 193.312C179.442 190.719 259.35 110.562 267.094 104.152Z" fill="#808080"/>
<path d="M273.606 109.885L274.559 110.476L274.701 111.374C271.49 117.118 254.677 132.443 249.109 138.031L182.694 204.418C181.88 203.915 181.592 203.628 181.177 202.765C183.535 197.811 204.501 178.397 209.975 172.928C231.013 151.74 252.223 130.725 273.606 109.885Z" fill="white"/>
<path d="M400.126 388.717C400.897 389.012 400.896 389.152 401.335 389.868C400.561 392.123 398.492 394.015 396.871 395.733C388.422 404.686 379.21 412.973 370.496 421.677L308.914 483.254L308.039 482.703L307.783 481.514C309.184 477.953 390.109 397.949 400.126 388.717Z" fill="white"/>
<path d="M273.085 159.242C274.092 159.549 274.375 159.538 275.056 160.378C273.644 163.755 198.557 237.851 189.621 246.815C188.794 246.702 188.406 246.465 187.732 245.982C188.713 241.046 263.637 168.483 273.085 159.242Z" fill="white"/>
<path d="M289.61 167.594L290.825 168.263L290.982 169.133C284.667 177.592 270.883 190.151 263.1 197.999C243.065 218.461 222.705 238.603 202.03 258.417L201.361 258.396L200.884 257.642C203.112 252.123 278.604 177.813 289.61 167.594Z" fill="white"/>
<path d="M293.089 176.48C293.592 176.865 293.801 177.192 294.148 177.714C293.119 181.796 215.139 258.206 205.019 267.87C204.164 267.117 204.22 267.079 204.043 265.94C204.937 263.864 206.795 262.233 208.333 260.622C224.212 243.987 241.088 228.119 257.354 211.834C268.221 200.954 281.596 186.145 293.089 176.48Z" fill="white"/>
<path d="M687.974 99.9126C688.95 99.7293 689.594 99.5475 690.536 100.001C690.597 101.933 689.357 103.242 688.123 104.658C681.731 111.984 673.978 118.43 667.085 125.311L619.061 173.085C609.165 182.899 598.873 192.543 589.57 202.915C588.482 202.915 588.568 202.927 587.792 202.156C588.001 200.881 588.122 200.61 588.977 199.576C594.426 192.993 601.964 186.744 608.117 180.647L660.421 128.271C668.505 120.192 677.083 112.465 684.911 104.15C686.081 102.907 687.594 101.615 687.974 99.9126Z" fill="#808080"/>
<path d="M231.738 78.1602L232.842 78.9199L232.933 80.1129C230.638 85.094 209.03 104.628 203.609 110.03L150.38 163.236C149.913 162.834 149.569 162.325 149.192 161.838C149.392 160.173 150.032 159.487 151.102 158.24C159.29 148.693 169.222 140.257 178.104 131.329C195.866 113.476 213.312 95.338 231.738 78.1602Z" fill="white"/>
<path d="M684.966 115.521L686.705 115.711L687.248 116.443C686.947 117.806 685.754 119.027 684.825 120.034C675.786 129.834 665.723 138.975 656.286 148.423C635.947 168.955 615.482 189.361 594.891 209.64C594.067 209.284 594.084 209.259 593.665 208.457C595.313 203.769 655.995 144.813 664.405 136.538C671.107 129.946 679.748 123.297 684.966 115.521Z" fill="#808080"/>
<path d="M263.658 156.65L265.001 157.111L265.39 158.131C262.82 162.992 247.385 177.016 242.213 182.184L186.017 238.16C185.011 237.738 185.054 237.734 184.569 236.749C184.847 235.629 185.244 235.023 185.99 234.164C196.755 221.775 209.37 210.558 221.018 198.994C235.229 184.886 248.951 170.248 263.658 156.65Z" fill="white"/>
<path d="M147.37 113C148.431 113.248 148.663 113.239 149.447 114.049C148.8 116.182 146.506 118.289 144.962 119.901C137.329 127.872 129.068 135.301 121.194 143.04C101.693 161.951 82.5403 181.219 63.746 200.834L62.1568 200.158L62 199.251C68.1393 190.528 80.1823 179.98 87.9319 172.166L147.37 113Z" fill="#808080"/>
<path d="M282.941 161.859C283.76 162.209 283.882 162.43 284.431 163.15C284.299 164.413 283.554 165.257 282.729 166.172C274.165 175.663 262.694 186.081 253.409 195.282L195.85 252.566L194.706 252.369L194.396 251.321C194.963 249.616 196.255 248.356 197.464 247.078C210.152 233.664 223.794 220.943 236.878 207.898C252.238 192.585 267.262 176.832 282.941 161.859Z" fill="white"/>
<path d="M402.387 349.816L403.165 351.168C402.938 352.751 401.723 353.815 400.678 354.948C389.794 366.748 377.708 377.654 366.329 388.999C348.713 406.564 331.418 424.539 313.463 441.749L312.765 439.866C313.137 438.274 314.213 437.252 315.308 436.093C320.645 430.443 326.434 425.123 331.939 419.629L369.325 382.261L389.551 362.032C393.668 357.912 397.722 353.31 402.387 349.816Z" fill="white"/>
<path d="M572.095 253.488C572.873 253.879 572.759 254.059 573.072 254.833C571.289 259.971 507.147 322.419 497.015 332.224L495.9 330.695C495.973 330.272 495.942 329.818 496.118 329.428C497.563 326.246 564.435 260.657 572.095 253.488Z" fill="white"/>
<path d="M453.732 40.1387C454.267 40.4977 454.61 40.909 455.049 41.3817C454.942 42.6307 454.365 43.2307 453.561 44.1313C444.194 54.6336 433.418 64.3413 423.444 74.2853L369.347 128.406L368.26 126.954C368.548 125.131 369.4 124.315 370.639 122.96C378.836 113.995 388.238 105.821 396.827 97.1904C415.749 78.1734 434.521 58.8504 453.732 40.1387Z" fill="white"/>
<path d="M562.585 250.258C563.155 250.553 563.699 251.006 564.229 251.374C564.256 252.847 563.799 253.65 562.804 254.741C554.239 264.135 544.245 272.744 535.113 281.625C517.201 298.995 499.625 316.707 482.392 334.753L481.192 334.544L480.657 333.59C481.317 330.936 484.246 328.41 486.103 326.451C493.253 318.906 501.085 311.905 508.477 304.588C526.61 286.575 544.646 268.464 562.585 250.258Z" fill="white"/>
<path d="M551.203 163.934L552.515 164.283L552.871 165.086C550.747 169.923 489.255 229.577 480.333 238.484L478.925 237.987L478.594 237.006C481.572 231.155 542.288 172.186 551.203 163.934Z" fill="white"/>
<path d="M431.292 1.12695C432.053 1.90889 432.133 2.05273 432.385 3.1144C430.588 7.72594 368.765 67.6727 359.692 76.6957C359.194 76.2882 358.926 75.9177 358.553 75.3989C359.116 71.2048 423.359 8.91365 431.292 1.12695Z" fill="white"/>
<path d="M441.239 3.76758C441.699 4.18267 441.899 4.61897 442.199 5.1545C441.86 6.69444 440.998 7.78443 439.943 8.90548C432.754 16.54 424.756 23.7397 417.313 31.1614C397.916 50.2905 378.698 69.5999 359.659 89.0857C358.704 88.3722 358.674 88.3661 358.36 87.2201C361.053 82.4556 377.792 66.8313 382.629 61.985C402.054 42.5174 421.285 22.6853 441.239 3.76758Z" fill="white"/>
<path d="M595.152 279.471L596.399 279.868L596.855 280.817C595.436 284.653 534.627 344.404 527.065 350.904L526.046 350.602L525.64 349.643C526.91 346.157 587.857 286.307 595.152 279.471Z" fill="white"/>
<path d="M444.148 13.0488L445.157 13.3738L445.582 14.2827C444.373 18.1216 378.64 82.37 369.551 91.2673L368.521 90.8355C368.555 89.2796 369.306 88.4146 370.276 87.2405C377.85 78.0722 387.216 69.7233 395.644 61.295L444.148 13.0488Z" fill="#808080"/>
<path d="M450.762 55.8184C451.231 56.1585 451.545 56.5751 451.925 57.0136C451.164 60.6162 384.204 125.708 375.569 134.187L374.694 133.484L374.638 132.423C379.737 124.918 395.312 110.711 402.285 103.72C418.228 87.7365 433.895 70.8177 450.762 55.8184Z" fill="white"/>
<path d="M529.717 234.195C530.509 234.516 530.592 234.666 531.11 235.36C529.471 240.506 470.548 297.708 462.121 305.815C461.456 305.725 461.012 305.54 460.397 305.285C460.575 301.539 521.951 241.804 529.717 234.195Z" fill="white"/>
<path d="M583.906 253.955L584.982 254.352L585.336 255.34C584.073 258.751 520.25 321.255 512.79 328.703L511.617 327.779C511.617 327.623 511.608 327.468 511.618 327.313C511.841 324.034 577.1 260.222 583.906 253.955Z" fill="white"/>
<path d="M257.742 150.451L258.589 151.425C258.524 152.688 258.384 153.329 257.511 154.285C251.062 161.353 243.598 167.909 236.8 174.686C218.648 192.57 200.684 210.644 182.912 228.906C182.479 228.717 182.051 228.376 181.66 228.117L181.467 226.975C182.145 225.286 183.36 224.031 184.595 222.728C188.947 218.135 193.755 213.949 198.296 209.545C204.77 203.266 211.053 196.761 217.412 190.364C230.639 177.059 243.634 162.801 257.742 150.451Z" fill="#808080"/>
<path d="M597.75 288.852C598.524 289.18 598.6 289.422 599.107 290.062C599.052 291.296 598.429 292.155 597.651 293.072C591.485 300.339 583.893 307.082 577.11 313.821C562.224 328.424 547.473 343.165 532.861 358.042C531.945 357.225 531.777 357.235 531.592 355.967C536.087 348.998 547.54 338.794 553.683 332.651L597.75 288.852Z" fill="white"/>
<path d="M334.749 196.229L335.926 196.948L336.092 198.033C334.73 201.147 276.851 257.845 269.848 264.891L268.512 264.372L268.169 263.261C269.51 259.3 327.781 202.078 334.749 196.229Z" fill="white"/>
<path d="M389.496 350.182L390.414 350.711L390.469 351.687C386.048 358.714 375.794 367.468 369.729 373.584C352.522 390.965 335.161 408.192 317.647 425.263C317.36 425.145 316.937 424.713 316.693 424.51C317.375 420.168 379.979 359.092 389.496 350.182Z" fill="white"/>
<path d="M532.137 244.125L533.35 244.534L533.775 245.432C533.197 246.987 532.174 248.047 531.065 249.242C527.209 253.395 522.917 257.191 518.872 261.161C512.19 267.718 505.638 274.417 499.037 281.056C487.662 292.498 476.487 305.012 464.166 315.428C463.83 315.4 463.236 315.097 462.914 314.969L462.702 313.953C463.145 312.814 463.745 311.992 464.571 311.109C473.401 301.672 483.238 292.861 492.397 283.703C505.579 270.52 518.476 256.8 532.137 244.125Z" fill="white"/>
<path d="M453.334 65.1094C454.007 65.2109 454.457 65.4949 455.038 65.835C454.897 67.3871 454.207 68.1892 453.186 69.3406C445.821 77.6402 437.141 85.1853 429.256 93.0175L382.784 139.373L381.77 139.497L381.146 138.366C382.535 134.411 444.173 74.2778 453.334 65.1094Z" fill="white"/>
<path d="M383.554 343.516C384.357 344.25 384.363 344.323 384.591 345.392C382.768 350.319 326.386 404.575 318.427 412.462C317.827 412.063 317.564 411.562 317.184 410.965C317.921 407.313 375.637 351.005 383.554 343.516Z" fill="#808080"/>
<path d="M547.788 253.453L548.774 254.692C548.721 256.004 548.248 256.488 547.38 257.457C540.508 265.132 532.454 272.05 525.166 279.371C508.796 295.952 492.307 312.416 475.7 328.76C475.081 328.297 474.864 327.897 474.525 327.21C474.659 326.522 474.794 326.106 475.269 325.566C483.383 316.347 494.212 306.721 503.04 297.821C517.761 282.981 532.203 267.369 547.788 253.453Z" fill="white"/>
<path d="M235.379 111.416L236.331 112.372C236.197 113.912 235.749 114.733 234.722 115.914C228.599 122.953 221.137 129.245 214.529 135.88C199.634 150.839 184.914 165.933 169.602 180.472L168.69 179.943L168.532 178.77C171.496 173.465 182.032 164.242 186.641 159.598C202.714 143.362 218.96 127.301 235.379 111.416Z" fill="#808080"/>
<path d="M419.384 1.18555C419.848 1.7813 419.976 2.18973 420.239 2.8916C419.2 6.37375 362.975 61.7394 356.101 67.8991C355.505 66.9136 355.465 66.5107 355.525 65.3593C359.838 58.155 378.182 41.9035 384.837 35.2772C396.259 23.9031 407.087 11.6382 419.384 1.18555Z" fill="#808080"/>
<path d="M592.994 269.572C593.699 270.409 593.726 270.46 593.809 271.549C591.914 275.264 535.466 331.362 527.183 338.784C526.708 338.016 526.623 337.503 526.502 336.629C530.937 329.6 543.216 318.799 549.683 312.285C558.796 303.087 567.962 293.94 577.179 284.845C582.366 279.723 587.455 274.312 592.994 269.572Z" fill="#808080"/>
<path d="M603.994 295.049C604.955 295.665 605.055 295.668 605.446 296.726C604.393 299.674 542.48 360.385 535.593 367.27C534.673 367.07 534.707 367.062 534.138 366.305C534.602 364.041 537.443 361.414 539.025 359.709C546.314 351.847 554.437 344.661 562.053 337.108L603.994 295.049Z" fill="#808080"/>
<path d="M154.039 106.254C155.104 106.535 155.415 106.428 156.02 107.387C155.444 109.281 154.068 110.65 152.743 112.069C146.677 118.569 139.873 124.441 133.559 130.713L89.6146 174.783L88.3981 175.072L87.9754 174.293C88.4965 171.913 90.0342 170.14 91.6173 168.362C97.4369 161.824 104.276 155.959 110.512 149.792C125.189 135.448 139.699 120.935 154.039 106.254Z" fill="white"/>
<path d="M607.36 353.299C608.087 353.57 608.008 353.637 608.418 354.243C606.958 359.449 549.529 414.733 542.253 421.919C541.432 421.497 541.433 421.49 541.056 420.646C543.139 415.148 598.233 362.129 607.36 353.299Z" fill="white"/>
<path d="M538.193 250.387C539.072 251.02 539.22 251.058 539.569 252.066C539.301 252.867 538.952 253.476 538.382 254.107C531.864 261.325 524.173 268.011 517.232 274.893C501.454 290.391 485.86 306.074 470.454 321.942L469.337 321.519L468.948 320.603C471.297 315.028 528.523 259.911 538.193 250.387Z" fill="#808080"/>
<path d="M810.551 235.172C811.741 234.957 812.483 234.78 813.604 235.291L813.551 236.247C808.574 243.952 789.819 260.686 782.116 268.32C773.208 277.154 764.74 286.605 755.586 295.166C754.037 296.615 752.534 298.163 750.508 298.912C749.977 299.353 749.846 299.214 749.182 299.207C748.831 297.636 749.655 296.866 750.617 295.659C755.336 289.738 761.649 284.681 767.042 279.359L796.788 249.695C800.182 246.365 809.006 239.327 810.551 235.172Z" fill="white"/>
<path d="M579.242 86.4258L580.551 86.8121L580.929 87.6233C578.068 93.6528 527.017 142.75 517.968 151.714L516.642 150.882L516.546 149.976C523.111 141.593 531.511 134.055 539.043 126.506L579.242 86.4258Z" fill="white"/>
<path d="M609.473 375.74C610.147 376.077 610.307 376.458 610.653 377.108C609.122 382.011 557.99 430.816 550.703 437.914C550.257 437.7 549.817 437.294 549.415 436.997C550.369 432.3 602.511 382.309 609.473 375.74Z" fill="white"/>
<path d="M813.884 244.535C814.96 244.477 815.187 244.279 816.02 245.01C815.952 245.366 815.922 245.618 815.793 245.946C814.286 249.674 759.869 303.56 756.208 305.303C755.712 305.63 755.608 305.533 755.037 305.511C755.268 303.811 756.266 302.642 757.343 301.36C762.066 295.742 767.838 290.549 773.034 285.343L801.378 257.14C805.302 253.299 811.013 249.073 813.884 244.535Z" fill="white"/>
<path d="M374.681 340.346C375.218 340.699 375.476 341.078 375.881 341.577C375.442 345.122 329.361 389.502 322.338 396.475C321.489 395.745 321.279 395.437 320.994 394.353C322.284 390.968 368.256 345.868 374.681 340.346Z" fill="white"/>
<path d="M606.511 366.357L607.433 366.793L607.777 367.77C605.874 372.563 555.049 421.441 547.915 428.386L546.89 427.274C546.957 426.934 546.995 426.262 547.146 425.978C549.835 420.932 564.539 408.142 569.296 403.407C581.692 391.074 593.834 378.397 606.511 366.357Z" fill="white"/>
<path d="M368.361 334.096L369.918 334.894L370.061 335.973C366.318 341.566 357.409 349.4 352.41 354.385L316.997 389.589L315.655 389.099L315.309 388.2C317.614 382.999 361.519 340.667 368.361 334.096Z" fill="#808080"/>
<path d="M517.481 234.123C518.075 234.381 518.513 234.778 519.017 235.178C518.242 239.352 469.226 286.402 462.215 293.217L461.184 292.739L460.956 291.722C463.505 286.325 509 242.563 517.481 234.123Z" fill="white"/>
<path d="M407.509 0.802734C407.9 1.18579 408.228 1.71639 408.561 2.15603C407.365 6.37664 356.983 54.7485 349.697 61.8354C349.094 61.2802 348.978 60.8856 348.764 60.1038C350.259 56.0597 399.506 8.31424 407.509 0.802734Z" fill="white"/>
<path d="M570.492 82.8594C571.219 83.1775 571.561 83.7252 572.021 84.3387C571.379 87.6042 524.707 132.683 518.425 138.913C517.855 138.751 517.495 138.483 517.004 138.161L517.007 137.171C520.528 131.118 529.934 123.137 535.098 117.982L570.492 82.8594Z" fill="white"/>
<path d="M218.72 115.568C219.293 115.969 219.473 116.272 219.848 116.849C218.592 121.46 167.437 170.533 160.098 178.144C159.356 177.068 158.947 176.667 158.821 175.345C163.841 168.838 172.389 161.94 178.458 155.904C191.919 142.513 205.057 128.746 218.72 115.568Z" fill="white"/>
<path d="M192.832 104.676C193.83 105.018 193.891 105.028 194.493 105.887C193.418 109.667 148.038 153.244 140.96 160.215C140.166 160.068 139.888 159.769 139.326 159.209C139.413 158.047 139.754 157.619 140.513 156.714C145.941 150.24 152.74 144.265 158.743 138.286C170.002 126.978 181.365 115.773 192.832 104.676Z" fill="white"/>
<path d="M746.242 54.6641C747.257 54.8148 747.345 54.7678 748.047 55.4965C747.972 55.8995 747.947 56.1638 747.799 56.5312C746.885 58.8082 700.942 104.558 695.766 109.315C694.378 110.591 693.056 111.714 691.315 112.474C690.799 112.323 690.694 112.084 690.338 111.697C692.022 105.911 738.239 64.5452 746.242 54.6641Z" fill="white"/>
<path d="M871.906 173.79C872.755 173.676 873.429 173.727 874.27 173.819L874.626 174.551C874.194 176.004 873.376 177.024 872.399 178.154C866.225 185.3 858.749 191.898 852.053 198.593C845.562 205.075 828.17 223.948 821.292 228.042L820.398 228.457L819.777 227.941C820.141 224.284 854.81 191.591 860.817 185.692C863.65 182.907 870.672 177.449 871.906 173.79Z" fill="white"/>
<path d="M362.948 327.365C363.876 328.143 364.039 328.08 364.169 329.341C359.02 336.253 351.908 342.543 345.804 348.618L310.583 383.311C310.044 382.882 309.632 382.387 309.177 381.873C309.693 378.748 356.526 333.708 362.948 327.365Z" fill="white"/>
<path d="M859.37 382.908L861.65 382.717L862.248 383.343C862.233 383.693 862.256 383.842 862.082 384.198C859.878 388.776 837.381 409.215 832.298 414.349C826.685 420.027 821.474 426.141 815.649 431.606C813.596 433.535 811.301 435.928 808.673 437.014L807.87 437.12L807.4 436.515C808.665 432.355 840.494 402.236 846.607 396.338C850.523 392.557 856.976 387.702 859.37 382.908Z" fill="white"/>
<path d="M138.52 109.857C139.344 110.632 139.388 110.697 139.62 111.801C137.467 117.043 96.146 156.242 89.1387 162.795C88.332 162.17 88.2547 161.998 87.8677 161.043C88.8175 157.785 132.446 115.604 138.52 109.857Z" fill="white"/>
<path d="M853.712 376.145C854.613 376.066 855.106 376.123 855.954 376.443L856.174 377.387C854.416 381.593 806.749 428.491 802.522 430.518C802.219 430.779 801.916 430.805 801.537 430.904C801.492 429.247 802.212 428.336 803.227 427.111C806.628 422.997 810.854 419.54 814.657 415.811L838.381 392.44C843.615 387.206 849.144 381.984 853.712 376.145Z" fill="#808080"/>
<path d="M878.943 376.146L880.231 376.317L880.807 377.161C880.754 377.458 880.723 377.73 880.61 378.01C879.829 379.974 838.411 421.254 833.844 425.53C831.76 427.476 829.594 429.749 826.988 430.964L826.11 430.607C826.163 429.047 826.776 428.273 827.761 427.105C831.874 422.227 837.108 418.075 841.661 413.577C854.159 401.231 867.028 389.053 878.943 376.146Z" fill="#808080"/>
<path d="M848.031 369.902C849.129 369.949 849.258 369.915 850.121 370.569C850.084 370.92 850.076 371.148 849.962 371.472C848.887 374.613 804.764 418.866 799.72 421.407L799.28 421.34L798.674 420.503C800.348 414.809 840.812 379.271 848.031 369.902Z" fill="white"/>
<path d="M205.999 116.135C206.412 116.316 206.834 116.736 207.196 117.016C207.16 117.394 207.2 117.788 207.088 118.151C206.365 120.505 162.976 162.814 157.26 168.499C156.713 168.335 156.246 167.997 155.759 167.704L155.656 166.606C157.691 162.616 199.783 121.539 205.999 116.135Z" fill="white"/>
<path d="M339.234 314.309L340.307 315.707C339.71 319.215 299.397 358.079 293.124 364.292C292.669 363.954 292.271 363.473 291.871 363.068C291.892 362.721 291.84 362.033 291.953 361.731C293.236 358.349 332.904 320.021 339.234 314.309Z" fill="white"/>
<path d="M393.532 2.75391L394.441 3.75664C393.754 7.40991 349.156 50.3599 343.328 56.1219C342.535 55.5288 342.509 55.3592 342.156 54.4184C343.56 50.4697 387.371 7.70457 393.532 2.75391Z" fill="white"/>
<path d="M348.042 317.463L349.255 319.005C348.352 323.158 304.958 364.551 298.736 370.682C298.101 370.246 297.891 369.842 297.542 369.165C301.088 362.494 339.895 325.668 348.042 317.463Z" fill="white"/>
<path d="M328.883 5.82422C329.276 6.18477 329.517 6.63849 329.805 7.08464C328.577 11.1674 283.756 54.6317 278.75 58.8523C278.423 58.2455 278.164 57.5888 277.881 56.9601C280.131 52.3494 322.255 11.5386 328.883 5.82422Z" fill="white"/>
<path d="M353.966 324.166C354.7 324.378 354.912 324.617 355.38 325.211C354.4 329.052 311.174 370.572 304.85 377.052C304.013 376.336 303.867 376.218 303.523 375.183C304.879 371.294 347.746 330.26 353.966 324.166Z" fill="#808080"/>
<path d="M128.618 107.262C129.247 107.768 129.738 108.416 130.257 109.03C128.662 112.402 85.5061 154.312 79.591 160.17C78.7161 159.547 78.5654 159.469 78.1655 158.485C79.5978 154.969 122.223 113.656 128.618 107.262Z" fill="white"/>
<path d="M376.76 6.86304C377.31 7.32964 377.523 7.74322 377.829 8.3901C376.965 12.1259 336.582 50.5083 330.637 56.6666C330.135 56.203 329.686 55.6485 329.225 55.1425C329.606 51.9225 371.738 11.3904 376.76 6.86304Z" fill="white"/>
<path d="M170.869 102.125C171.501 102.819 171.724 103.157 171.944 104.106C168.765 109.883 156.293 120.399 150.954 125.65C142.041 134.325 133.267 143.142 124.637 152.097C123.703 151.332 123.638 151.316 123.355 150.151C125.045 145.541 164.025 108.737 170.869 102.125Z" fill="white"/>
<path d="M180.259 105.184C180.984 105.44 181.061 105.564 181.537 106.13C180.171 110.536 140.186 148.549 134.192 154.421C133.469 153.936 133.424 153.797 133.063 152.995C134.507 148.53 174.451 110.256 180.259 105.184Z" fill="white"/>
<path d="M937.284 109.285C937.958 109.408 938.374 109.624 938.98 109.925L939.033 111.005C937.738 113.407 905.477 145.757 901.402 149.545C899.486 151.326 897.388 153.619 894.896 154.545C894.479 154.437 894.199 154.057 893.888 153.763C894.752 149.388 931.822 115.339 937.284 109.285Z" fill="white"/>
<path d="M315.088 6.85938C315.877 6.98663 316.201 7.29795 316.791 7.81757C316.772 8.83788 316.594 9.09012 315.925 9.87864C311.906 14.6136 306.823 18.9592 302.412 23.3691C292.535 33.1973 282.714 43.0815 272.95 53.0202C272.215 52.6635 272.044 52.3953 271.519 51.7863C272.462 46.9249 308.711 13.0297 315.088 6.85938Z" fill="white"/>
<path d="M596.442 401.318C596.886 401.818 596.961 402.233 597.175 402.864C594.989 408.328 562.652 438.696 556.023 444.707C555.412 444.336 555.229 443.865 554.907 443.247C555.891 438.867 591.542 405.084 596.442 401.318Z" fill="white"/>
<path d="M924.755 109.285C925.406 109.332 926.073 109.509 926.717 109.631L927.11 110.318C927.05 110.493 926.989 110.671 926.921 110.844C925.853 113.589 886.669 152.182 882.647 154.025L881.981 154.176L881.609 153.346C885.056 146.135 916.824 118.828 924.755 109.285Z" fill="white"/>
<path d="M880.655 386.029C881.413 385.935 882.147 386.062 882.897 386.153C883.2 387.106 883.253 387.266 882.806 388.181C880.526 392.853 865.748 405.644 861.37 410.069C856.825 414.662 852.659 419.646 847.887 424.012C846.311 425.456 844.804 426.945 842.744 427.65L842.07 427.667L841.448 426.886C844.827 418.389 877.928 393.153 880.655 386.029Z" fill="white"/>
<path d="M359.827 11.072C360.544 11.1985 361.251 11.478 361.944 11.7L362.1 12.5771C358.3 17.7855 352.803 22.3204 348.201 26.8758L321.935 53.0585C320.896 53.5796 320.762 53.4963 319.661 53.3297C319.658 53.1865 319.647 53.0426 319.652 52.8994C319.799 49.3704 354.556 16.3387 359.827 11.072Z" fill="#808080"/>
<path d="M966.597 116.049C967.832 115.782 968.741 115.464 969.923 116.019C969.877 116.172 969.832 116.328 969.779 116.48C968.317 120.709 932.989 155.16 928.732 157.148C928.36 157.687 928.277 157.614 927.686 157.822C926.52 152.014 965.257 122.218 966.597 116.049Z" fill="white"/>
<path d="M498.653 240.951L500.041 241.362L500.349 242.212C498.887 245.582 465.011 278.289 459.877 283.457L458.521 282.857L458.338 281.892C460.56 278.175 464.637 274.63 467.66 271.492C477.718 261.049 488.24 251.037 498.653 240.951Z" fill="white"/>
<path d="M948.873 109.286C949.782 109.192 950.304 109.226 951.206 109.485L951.478 110.482C949.767 114.727 917.824 145.643 913.575 147.784L912.954 147.853L912.317 147.165C914.355 142.18 936.087 122.603 941.647 117.165C943.927 114.934 947.547 112.127 948.873 109.286Z" fill="white"/>
<path d="M592.907 121.738L594.243 122.35L594.441 123.4C591.042 129.508 564.286 154.559 557.435 161.311C556.487 160.904 556.445 160.929 555.966 160.027C557.558 155.185 587.506 127.081 592.907 121.738Z" fill="white"/>
<path d="M600.121 102.525C600.967 102.816 601.327 103.047 601.922 103.715C601.479 106.777 569.087 137.517 564.522 141.858C563.53 141.861 563.516 141.945 562.793 141.286C562.875 140.178 563.237 139.604 563.931 138.741C567.759 133.985 572.753 129.689 577.115 125.393L600.121 102.525Z" fill="white"/>
<path d="M865.347 193.037L867.18 192.982L867.672 193.765C867.596 194.047 867.528 194.383 867.407 194.655C866.044 197.626 833.366 230.045 830.102 231.368L829.632 231.536L828.844 231.001C829.647 227.018 852.364 206.165 857.121 201.561C859.666 199.097 863.627 196.079 865.347 193.037Z" fill="white"/>
<path d="M536.412 166.586C537.209 167.396 537.388 167.422 537.508 168.598C532.798 175.841 510.335 197.011 502.855 203.283C502.199 202.707 502.21 202.575 501.992 201.715C504.542 195.753 530.006 172.162 536.412 166.586Z" fill="white"/>
<path d="M886.859 392.271C888.146 392.478 888.684 392.313 889.51 393.362C889.449 393.517 889.396 393.674 889.328 393.827C887.919 397.073 855.409 429.179 851.545 430.77L850.856 430.879L850.288 430.109C852.704 424.107 880.39 401.262 886.859 392.271Z" fill="white"/>
<path d="M559.676 118.648C560.27 118.78 560.754 119.073 561.291 119.35C561.085 122.68 528.756 153.058 523.7 158.084L523.027 158.337L522.126 157.921C523.722 151.762 553.065 124.985 559.676 118.648Z" fill="white"/>
<path d="M329.517 311.68L331.279 312.331L331.592 313.191C328.124 317.791 323.277 321.91 319.172 326.005L293.787 351.123C292.895 350.735 292.617 350.419 292.051 349.67C292.933 346.894 324.586 316.594 329.517 311.68Z" fill="white"/>
<path d="M594.06 96.3828L595.541 96.7835L595.78 97.6334C592.661 103.486 565.534 128.763 558.866 135.29C557.765 134.924 557.679 135.023 557.092 133.952C558.448 130.454 588.663 101.741 594.06 96.3828Z" fill="white"/>
<path d="M892.138 399.036C892.252 399.022 892.358 399.005 892.472 398.996C893.737 398.887 894.403 398.624 895.388 399.455C895.342 399.598 895.305 399.744 895.259 399.886C894.055 403.393 865.066 431.652 861.302 433.598C860.87 433.982 860.166 434.266 859.65 434.55L860.794 433.756L859.59 433.943L860.241 434.05L859.544 433.828C859.529 427.373 889.601 407.027 892.138 399.036Z" fill="#808080"/>
<path d="M975.513 119.17L977.853 119.049L978.687 119.821L978.52 120.851C974.18 126.308 950.175 151.209 944.563 154.101L944.07 154.54L943.214 154.318L942.881 154.801L943.919 154.384L942.949 154.271C943.063 148.481 973.937 126.387 975.513 119.17Z" fill="white"/>
<path d="M628.184 234.174C629.098 234.713 629.098 234.654 629.407 235.661C626.847 241.701 604.792 261.342 598.507 267.358L597.335 267.053L597.068 265.97C599.659 259.916 621.79 240.303 628.184 234.174Z" fill="white"/>
<path d="M899.425 405.277L900.531 405.512L900.894 406.223C899.599 409.494 869.975 438.91 866.225 440.653C865.952 440.47 865.725 439.919 865.559 439.633C866.415 436.726 895.676 407.548 899.425 405.277Z" fill="white"/>
<path d="M829.973 376.145L831.533 376.341L831.889 377.084C829.359 381.951 801.5 409.318 797.008 411.524L796.175 411.302C796.697 406.972 825.125 381.345 829.973 376.145Z" fill="white"/>
<path d="M625.921 211.824C626.501 212.012 627.021 212.357 627.55 212.657C627.435 215.553 600.48 241.109 596.607 244.978C595.661 244.662 595.685 244.723 595.218 243.848C596.799 238.644 620.569 216.883 625.921 211.824Z" fill="white"/>
<path d="M957.621 112.927C958.901 112.787 959.576 112.435 960.644 113.209L960.522 113.993C956.432 119.311 935.018 141.73 929.898 144.141L929.193 144.828L928.519 144.613C929.05 137.098 954.622 120.704 957.621 112.927Z" fill="white"/>
<path d="M116.313 107.844C116.795 108.305 116.921 108.615 117.191 109.212C115.314 114.442 91.1531 136.347 85.6547 141.506C85.2115 140.989 84.5457 140.524 84.6154 139.818C84.8631 137.313 112.296 111.114 116.313 107.844Z" fill="white"/>
<path d="M815.785 254.419C816.656 254.324 817.444 254.423 818.3 254.53L818.944 255.403C815.164 260.585 793.841 282.903 788.229 285.637C787.895 286.252 787.736 286.153 787.108 286.376L786.615 285.637C787.865 278.628 813.089 262.512 815.785 254.419Z" fill="white"/>
<path d="M295.906 63.0195L296.944 63.3831L297.254 64.4186C294.812 70.3533 274.931 87.8531 269.682 92.8607C268.864 92.7176 268.884 92.5873 268.355 91.9283C268.957 86.9858 291.518 67.1311 295.906 63.0195Z" fill="white"/>
<path d="M512.571 214.926C513.282 215.385 513.288 215.54 513.617 216.336C511.82 220.761 490.912 240.023 485.897 244.977L484.94 244.546L484.649 243.434C487.069 237.56 506.801 219.951 512.571 214.926Z" fill="white"/>
<path d="M357.245 185.814L358.437 186.607L358.494 187.709C354.789 194.321 340.324 206.733 334.256 212.661C333.6 212.404 333.382 212.058 332.904 211.543C333.173 207.121 352.978 189.668 357.245 185.814Z" fill="white"/>
<path d="M322.165 147.346C322.74 147.855 322.899 148.337 323.184 149.032C321.513 154.315 303.213 170.237 298.189 174.705C297.618 174.073 297.468 173.7 297.292 172.869C298.608 169.115 318.013 151.002 322.165 147.346Z" fill="white"/>
<path d="M332.169 468.871C332.721 469.4 332.692 469.699 332.891 470.419C331.007 475.541 312.901 491.872 307.886 496.595C307.578 495.925 307.392 495.229 307.19 494.522C309.335 489.102 326.777 474.004 332.169 468.871Z" fill="white"/>
<path d="M897.599 418.282C898.569 418.15 899.243 418.233 900.19 418.451L900.554 419.247C897.016 424.588 881.193 440.653 876.057 443.255C875.633 443.837 875.678 443.709 875.027 443.861C873.989 438.256 894.623 424.533 897.599 418.282Z" fill="white"/>
<path d="M254.032 264.373C254.931 264.796 254.972 264.879 255.48 265.741C254.074 269.823 235.057 287.093 231.237 290.836L230.338 290.946L229.695 290.336C230.085 286.143 249.823 268.369 254.032 264.373Z" fill="white"/>
<path d="M328.685 104.223C329.349 104.515 329.318 104.735 329.655 105.35C328.846 109.965 312.384 124.112 308.205 128.113L307.114 127.499L306.847 126.313C309.201 120.704 323.481 107.903 328.685 104.223Z" fill="white"/>
<path d="M659.261 54.5579C660.665 54.5442 661.161 54.3223 662.292 55.2085C661.454 59.3375 642.506 76.3017 638.074 80.5466L637.124 80.7647L636.453 80.1361C636 73.9862 658.291 61.6993 659.261 54.5579Z" fill="white"/>
<path d="M296.235 75.0273C297.014 75.7939 297.021 75.8545 297.203 76.9369C294.858 82.1938 280.777 94.3564 275.941 99.0633C275.06 98.274 274.993 98.2733 274.788 97.1197C276.608 91.9363 291.336 79.1215 296.235 75.0273Z" fill="white"/>
<path d="M655.744 279.285L657.6 279.783L658.032 280.604C656.907 285.719 641.685 298.339 637.346 302.464C636.313 302.58 636.299 302.705 635.498 302.069C636.423 295.379 651.959 286.249 655.744 279.285Z" fill="white"/>
<path d="M302.975 80.7812L303.792 81.7281C303.246 86.1502 286.161 101.223 282.17 104.792C281.737 104.362 281.418 103.849 281.068 103.349C282.317 99.0968 298.59 84.1679 302.975 80.7812Z" fill="white"/>
<path d="M305.551 237.357C306.372 237.663 306.441 237.8 306.976 238.51C305.623 243.214 289.45 257.273 285.452 261.103C285.001 260.884 284.636 260.428 284.283 260.079C284.595 255.946 301.702 240.707 305.551 237.357Z" fill="white"/>
<path d="M283.354 14.2559C284.011 14.7293 284.147 15.1118 284.426 15.8594C282.933 20.7027 267.354 33.9424 262.982 38.0419L261.868 36.9238C262.581 32.4419 279.225 17.8955 283.354 14.2559Z" fill="white"/>
<path d="M302.321 7.38672C303.261 7.75485 303.361 7.82227 303.957 8.63351C302.589 13.4828 286.836 26.8506 282.751 30.6766C282.064 30.5811 281.703 30.4206 281.086 30.1267L281.055 29.0382C283.957 23.9647 297.227 12.3898 302.321 7.38672Z" fill="white"/>
<path d="M106.321 105.213C107.007 105.93 107.089 106.08 107.325 107.044C105.321 111.885 90.7273 124.662 86.1158 128.962L85.2523 128.469L84.9985 127.417C87.0793 121.724 101.285 109.896 106.321 105.213Z" fill="white"/>
<path d="M585.546 92.6855C586.014 92.8908 586.339 93.3089 586.701 93.6642C586.375 98.0143 569.904 112.084 565.636 115.922C564.74 115.697 564.715 115.701 564.146 114.977C565.651 110.017 581.277 96.7153 585.546 92.6855Z" fill="white"/>
<path d="M777.427 292.914C778.359 292.658 778.844 292.587 779.829 292.763L780.063 293.735C778.306 298.001 763.536 312.574 759.021 314.769C758.741 315.116 758.506 315.133 758.097 315.291C756.746 309.892 775.072 298.321 777.427 292.914Z" fill="white"/>
<path d="M859.522 235.172C860.665 234.994 861.264 234.701 862.309 235.243L862.355 236.344C859.847 241.265 846.97 254.095 842.1 256.639L841.335 257.324L840.577 257.259C839.903 250.717 858.832 241.568 859.522 235.172Z" fill="white"/>
<path d="M807.044 324.646C808.332 324.667 809.021 324.43 810.029 325.286C808.097 329.527 792.463 344.903 788.464 346.817L787.403 347.63L787.04 347.298C787.138 340.568 804.052 331.903 807.044 324.646Z" fill="white"/>
<path d="M325.159 95.3516C325.575 95.6689 325.795 96.0977 326.082 96.5294C325.281 101.277 311.635 112.896 307.734 116.393L306.862 114.753C307.574 110.224 321.317 98.6806 325.159 95.3516Z" fill="white"/>
<path d="M595.051 218.076C595.568 218.392 596.046 218.856 596.516 219.241C595.969 223.669 581.827 235.265 578.2 238.626C577.337 238.092 577.285 238.082 576.917 237.142C578.765 232.53 590.964 221.92 595.051 218.076Z" fill="white"/>
<path d="M273.09 282.02C273.966 282.286 274.132 282.35 274.759 283.01C273.807 287.498 260.992 298.103 257.212 301.627C256.125 301.772 256.185 301.671 255.292 301.002C255.603 297.243 269.827 285.093 273.09 282.02Z" fill="white"/>
<path d="M195.64 77.1404L197.165 77.6161L197.381 78.6311C195.217 83.6978 184.068 92.7972 179.772 96.9732C178.781 96.7649 178.857 96.7384 178.278 95.893C179.3 91.3384 191.883 80.724 195.64 77.1404Z" fill="white"/>
<path d="M502.577 163.457C503.188 164.02 503.323 164.323 503.508 165.13C501.422 170.089 489.844 180.092 485.483 184.119C484.682 183.163 484.645 183.152 484.601 181.911C487.572 175.638 497.365 168.136 502.577 163.457Z" fill="white"/>
<path d="M552.449 138C553.178 138.115 553.408 138.356 553.918 138.873C553.564 142.683 539.239 155.079 536.04 158.138L535.158 157.737L534.787 156.716C536.427 151.436 548.01 142.121 552.449 138Z" fill="white"/>
<path d="M341.055 116.135C341.924 116.77 342.079 116.718 342.289 117.822C339.569 123.265 329.05 131.836 324.391 136.301C323.429 135.855 323.503 135.848 323.098 134.856C324.68 129.749 336.653 120.183 341.055 116.135Z" fill="white"/>
<path d="M231.46 90.6035C232.343 91.0671 232.3 91.0747 232.665 92.0109C230.732 97.1458 219.397 106.513 215.113 110.636C214.182 110.349 214.262 110.282 213.781 109.415C215.076 104.405 227.26 94.4772 231.46 90.6035Z" fill="white"/>
<path d="M588.68 420.939C589.131 421.161 589.458 421.568 589.816 421.916C588.893 426.462 575.841 437.458 572.048 441.051C571.548 440.723 571.152 440.287 570.727 439.868C571.088 436.123 585.442 423.966 588.68 420.939Z" fill="white"/>
<path d="M308.499 38.1504C309.483 38.3738 309.523 38.4284 310.198 39.1851C309.229 43.3398 296.051 54.2504 292.299 57.7423C291.447 57.3969 291.475 57.4226 291.07 56.597C292.549 51.9689 304.569 41.7893 308.499 38.1504Z" fill="white"/>
<path d="M921.278 161.305C922.316 161.049 922.96 160.998 924.028 161.127C924.225 161.525 924.444 161.68 924.285 162.122C922.869 166.13 911.09 177.155 907.068 179.213C906.651 179.847 906.5 179.929 905.826 180.288C904.636 173.738 919.566 167.623 921.278 161.305Z" fill="white"/>
<path d="M689.828 73.9043L691.619 74.2921C691.932 75.2011 691.928 75.3685 691.496 76.26C689.581 80.2155 680.628 88.6151 676.654 90.0611L675.787 89.8255L675.524 88.8741C678.055 83.2961 685.556 79.0604 689.515 74.2876L689.828 73.9043Z" fill="white"/>
<path d="M494.058 208.656C494.619 208.831 494.942 209.091 495.414 209.432L495.389 210.576C492.509 216.153 485.501 221.41 480.897 225.717C479.886 225.417 479.84 225.48 479.279 224.603C480.295 220.198 490.377 212.028 494.058 208.656Z" fill="white"/>
<path d="M443.948 86.9785C444.522 87.2088 444.76 87.4989 445.191 87.9299C445.19 88.1011 445.199 88.273 445.187 88.4435C444.964 91.5483 432.714 102.046 429.882 104.656C429.51 104.079 428.934 103.484 428.96 102.782C429.082 99.5161 441.168 89.4941 443.948 86.9785Z" fill="white"/>
<path d="M92.8367 106.23C93.4722 106.424 93.8305 106.707 94.366 107.088C94.1305 111.632 83.2351 120.041 79.753 123.244C78.8978 122.593 78.8099 122.552 78.4872 121.537C80.4551 116.262 88.71 110.035 92.8367 106.23Z" fill="white"/>
<path d="M211.996 85.4199C212.699 85.4987 213.014 85.7328 213.576 86.1501C213.19 90.701 202.561 98.8097 198.992 102.042L197.614 101.584L197.42 100.685C199.255 95.9078 207.983 88.9823 211.996 85.4199Z" fill="white"/>
<path d="M824.716 343.893L826.337 344.155C826.701 344.916 826.844 344.963 826.541 345.76C824.966 349.907 815.672 358.771 811.627 360.543C810.953 360.218 811.006 359.961 810.703 359.309C812.271 354.201 821.383 348.832 824.716 343.893Z" fill="white"/>
<path d="M318.683 138.541C319.089 138.833 319.356 139.288 319.657 139.685C319.007 143.865 308.355 152.788 304.91 156.01C304.808 155.905 304.698 155.807 304.604 155.696C304.206 155.219 303.798 154.669 303.867 154.045C304.233 150.706 315.753 141.187 318.683 138.541Z" fill="white"/>
<path d="M878.777 350.655C880.095 350.584 880.496 350.314 881.519 351.201C881.549 351.69 881.564 352.069 881.39 352.536C879.928 356.463 870.967 364.586 867.286 366.265C866.968 366.845 866.922 366.737 866.331 366.953C864.438 360.974 877.421 356.253 878.777 350.655Z" fill="white"/>
<path d="M529.862 160.334C530.661 160.751 530.913 161.047 531.361 161.824C530.429 165.859 520.271 174.093 516.78 177.339C516.373 177.196 515.898 176.825 515.543 176.601L515.505 175.491C518.15 170.039 525.441 164.542 529.862 160.334Z" fill="white"/>
<path d="M510.945 179.609L511.861 180.068L512.16 181.212C510.222 186.011 501.29 193.222 497.366 197.023C496.513 196.074 496.476 196.144 496.493 194.778C499.311 189.05 506.188 183.816 510.945 179.609Z" fill="white"/>
<path d="M322.319 86.0859L322.931 87.1479C322.225 91.2019 311.591 100.45 308.196 103.731C308.112 103.641 308.02 103.559 307.946 103.462C307.694 103.127 307.249 102.413 307.309 102.004C308.023 96.9965 318.363 89.1953 322.319 86.0859Z" fill="white"/>
<path d="M237.975 96.3574C238.421 96.4824 238.905 96.7907 239.311 96.9982L239.353 97.9988C236.632 103.544 229.117 109.099 224.579 113.345C224.116 113.142 223.711 112.703 223.333 112.376C223.335 112.211 223.325 112.047 223.338 111.882C223.575 108.696 235.174 98.9215 237.975 96.3574Z" fill="white"/>
<path d="M456.668 110.875C457.681 111.451 457.858 111.376 458.209 112.538C456.183 117.601 447.968 123.585 443.873 127.358C442.982 127.577 442.934 127.369 442.138 126.992C442.433 123.251 453.527 113.831 456.668 110.875Z" fill="white"/>
<path d="M267.557 17.832C268.069 18.3335 268.52 18.4842 268.516 19.2485C268.493 22.8503 256.26 32.6534 253.311 35.3303L252.359 34.8266L252.362 33.707C255.267 27.8352 262.636 22.1102 267.557 17.832Z" fill="white"/>
<path d="M203.186 82.4219C203.754 83.0771 203.689 83.4081 203.787 84.2527C201.196 89.9488 193.348 96.0662 188.612 100.148C188.071 99.3293 188.032 98.8461 187.951 97.8977C190.456 92.6553 198.584 86.0161 203.186 82.4219Z" fill="white"/>
<path d="M630.223 391.859C631.087 392.403 630.988 392.463 631.243 393.47C629.188 398.352 620.569 405.209 616.572 409.034C615.64 408.295 615.596 408.321 615.35 407.168C617.083 402.518 626.26 395.266 630.223 391.859Z" fill="white"/>
<path d="M338.081 8.43945C338.821 9.10981 339.038 9.38174 339.279 10.3968C337.407 14.8317 327.992 22.6662 324.1 25.9309C323.624 25.4901 323.188 25.3583 323.196 24.6682C323.227 21.8618 335.458 10.9391 338.081 8.43945Z" fill="white"/>
<path d="M317.23 311.666C317.977 311.987 318.114 312.245 318.621 312.898C317.726 316.805 307.387 325.344 304.018 328.502C303.125 328.38 303.198 328.227 302.615 327.596C302.964 323.909 314.152 314.541 317.23 311.666Z" fill="white"/>
<path d="M630.645 378.883L631.591 380.057C631.054 384.721 620.492 392.983 616.838 396.37C616.499 396.146 616.172 395.708 615.893 395.407C616.154 391.552 627.422 381.92 630.645 378.883Z" fill="white"/>
<path d="M809.764 334.529L811.362 334.584L811.885 335.437C811.862 335.528 811.839 335.619 811.809 335.709C810.582 339.877 801.212 348.218 797.379 350.27L796.432 350.86L796.175 350.17C797.19 344.807 806.31 339.102 809.764 334.529Z" fill="white"/>
<path d="M225.391 59.9277C226.048 60.3807 226.221 60.6261 226.491 61.3753C224.936 65.7315 215.025 73.7848 211.474 77.2624C210.747 76.6163 210.7 76.5292 210.445 75.5884C212.455 70.1998 221.173 63.762 225.391 59.9277Z" fill="white"/>
<path d="M707.206 80.6687C707.961 80.5649 708.669 80.5815 709.427 80.5914L709.876 81.3239C709.825 81.592 709.814 81.6799 709.725 81.9654C708.467 86.005 699.213 94.1902 695.401 96.0263L694.697 96.5369L693.903 96.346C694.456 89.9492 706.3 86.7345 707.206 80.6687Z" fill="white"/>
<path d="M678.019 48.4043L679.881 48.4119L680.507 49.1958C680.44 49.6049 680.431 49.7988 680.295 50.1677C678.836 54.1361 670.002 61.8789 666.287 63.7817L665.334 64.3179C663.542 60.2609 676.848 53.0506 678.019 48.4043Z" fill="white"/>
<path d="M325.235 33.9456C325.742 34.2993 325.956 34.653 326.307 35.153C325.576 39.5425 317.452 45.4417 314.192 48.3011C313.605 47.8481 313.498 47.5277 313.152 46.8808C313.989 42.1346 321.733 36.8807 325.235 33.9456Z" fill="white"/>
<path d="M344.214 14.6951C345.156 15.3594 345.243 15.2685 345.448 16.3835C343.876 20.8631 337.741 25.4322 334.245 28.7135C333.64 28.6794 333.23 28.2947 332.724 27.975L332.672 27.0403C334.36 22.522 340.527 17.7598 344.214 14.6951Z" fill="#808080"/>
<path d="M276.206 33.3789C276.686 33.4827 277.189 33.7607 277.643 33.9523L277.86 35.0203C275.959 39.5015 270.187 43.6805 266.575 46.9573C265.735 47.0451 265.546 46.8709 264.79 46.5346C264.78 46.3899 264.761 46.2453 264.759 46.0998C264.709 42.901 273.872 35.4869 276.206 33.3789Z" fill="#808080"/>
<path d="M870.868 64.5496C872.103 64.4451 872.437 64.3186 873.565 64.9101L873.527 66.113C871.641 69.8041 865.816 75.3965 861.968 77.0372L861.393 77.5583L860.771 77.0251C861.044 71.6304 868.414 68.9172 870.868 64.5496Z" fill="white"/>
<path d="M247.762 73.9766C248.287 74.6128 248.801 74.9408 248.785 75.8081C248.715 79.7098 239.996 85.9908 237.246 88.3404C236.618 87.7663 236.566 87.5118 236.288 86.6929C237.559 82.211 244.349 77.1519 247.762 73.9766Z" fill="white"/>
<path d="M356.883 173.922C357.42 174.064 357.843 174.343 358.326 174.612L358.454 175.638C356.418 180.231 350.518 184.42 346.745 187.743C346.225 187.51 345.915 187.137 345.509 186.745C345.506 186.566 345.49 186.387 345.499 186.209C345.661 183.011 354.471 176.083 356.883 173.922Z" fill="white"/>
<path d="M869.846 347.536C871.27 347.373 871.603 347.08 872.777 347.982C872.793 348.442 872.808 348.816 872.656 349.258C871.52 352.483 864.574 358.632 861.34 359.977L860.552 360.587L860.113 359.767C860.612 354.415 867.998 352.317 869.846 347.536Z" fill="white"/>
<path d="M253.841 55.752L255.037 56.495L255.146 57.6971C253.247 62.1336 247.503 66.4156 243.956 69.7083C243.28 69.4121 243.511 69.5932 243 69.0448C242.555 68.5668 242.601 68.7494 242.673 68.0631C243.054 64.4295 251.142 58.1857 253.841 55.752Z" fill="white"/>
<path d="M480.954 160.305C481.977 160.951 482.015 160.877 482.331 162.031C480.963 166.26 474.177 171.343 470.751 174.176C469.935 173.975 469.89 173.909 469.326 173.276C469.777 169.384 478.069 162.931 480.954 160.305Z" fill="white"/>
<path d="M873.444 209.162L875.413 209.145L875.951 209.772C875.928 210.256 875.913 210.653 875.701 211.103C874.103 214.549 867.998 220.427 864.407 221.9L863.657 222.184L863.157 221.239C864.604 216.173 871.073 213.658 873.444 209.162Z" fill="white"/>
<path d="M324.455 488.559L325.722 489.104L325.96 490.238C324.23 494.605 317.935 499.055 314.381 502.191C313.597 502.118 313.477 501.873 312.874 501.4C312.874 501.273 312.858 501.146 312.875 501.021C313.38 497.439 321.843 490.92 324.455 488.559Z" fill="white"/>
<path d="M767.232 327.768C768.353 327.926 768.451 327.952 769.285 328.702C769.285 329.201 769.277 329.607 769.08 330.076C767.603 333.587 761.369 339.071 757.907 340.784L757.033 340.86L756.374 340.16C757.589 335.893 764.157 331.974 766.899 328.236L767.232 327.768Z" fill="white"/>
<path d="M655.885 8.98242C656.551 9.18391 657.166 9.47781 657.8 9.76034L658.003 10.9761C656.482 15.4277 650.353 19.7263 646.844 22.8623L645.693 22.4646C644.005 18.3894 654.827 13.2811 655.885 8.98242Z" fill="white"/>
<path d="M468.327 111.979C468.994 112.618 469.001 112.765 469.218 113.676C467.273 118.303 460.866 122.894 457.113 126.274C456.438 125.708 456.424 125.532 456.153 124.679C457.379 120.036 464.682 114.99 468.327 111.979Z" fill="white"/>
<path d="M629.673 404.875L630.423 405.21L630.78 406.238C629.189 410.576 622.626 415.521 619.188 418.767C618.154 418.139 618.195 418.209 617.883 417.042C619.23 412.764 626.176 407.666 629.673 404.875Z" fill="white"/>
<path d="M311.873 83.8887L312.996 84.378L313.293 85.3824C311.757 89.678 305.573 94.1592 302.167 97.2603L301.072 96.7709L300.726 95.8347C302.087 91.5633 308.469 86.8322 311.873 83.8887Z" fill="white"/>
<path d="M582.844 218.17C583.774 219.061 583.718 218.992 583.774 220.284C581.788 224.821 576.048 228.916 572.347 232.189C571.49 231.354 571.408 231.441 571.385 230.17C573.604 225.523 579.023 221.579 582.844 218.17Z" fill="white"/>
<path d="M783.51 299.155C784.623 299.149 784.873 299.039 785.805 299.704L785.744 300.845C783.669 304.628 778.586 309.842 774.594 311.646L773.746 311.93L773.231 311.384C774.291 306.229 781.063 303.694 783.51 299.155Z" fill="white"/>
<path d="M815.816 266.904C816.96 266.887 817.149 266.772 818.096 267.474C818.103 267.975 818.119 268.388 817.929 268.864C816.641 272.137 809.991 277.969 806.741 279.487C806.257 279.532 805.916 279.411 805.446 279.289C805.075 275.971 813.953 270.184 815.816 266.904Z" fill="white"/>
<path d="M891.714 350.657C892.949 350.604 893.123 350.418 894.093 351.251C894.062 351.745 894.047 352.154 893.843 352.616C892.456 355.822 885.882 361.75 882.549 363.01L881.905 363.506L881.17 362.974C882.17 358.575 889.07 354.481 891.714 350.657Z" fill="white"/>
<path d="M753.696 22.4102C754.871 22.5473 754.859 22.4526 755.602 23.3555C755.549 23.8706 755.51 24.2129 755.292 24.6879C753.801 27.9366 747.227 34.1873 743.681 35.2833L742.973 34.6145C743.434 30.8203 750.782 26.1013 753.316 22.898L753.696 22.4102Z" fill="white"/>
<path d="M287.033 304.969C288.025 305.582 288.067 305.594 288.486 306.677C287.567 310.417 282.893 313.51 280.085 315.916L278.73 315.2L278.66 314.058C280.307 310.47 284.143 307.59 287.033 304.969Z" fill="white"/>
<path d="M80.269 131.256L81.2105 131.635L81.5787 132.632C80.5311 136.403 75.0463 140.351 72.2467 142.928C72.1854 142.888 72.1166 142.856 72.0627 142.806C71.5578 142.334 71.2132 141.916 71.2604 141.204C71.469 138.062 77.886 133.313 80.269 131.256Z" fill="white"/>
<path d="M609.366 105.672C609.95 105.893 610.228 106.204 610.68 106.622C610.683 106.805 610.696 106.988 610.687 107.171C610.564 110.036 604.706 114.43 602.503 116.29C601.75 116.169 601.525 115.801 600.975 115.304C600.968 115.146 600.949 114.986 600.952 114.827C601.003 112.142 607.244 107.454 609.366 105.672Z" fill="white"/>
<path d="M483.527 169.682C483.941 169.823 484.41 170.19 484.771 170.417L484.929 171.621C483.356 175.359 479.611 178.114 476.624 180.728L475.629 180.458L475.179 179.539C476.363 175.771 480.746 172.358 483.527 169.682Z" fill="white"/>
<path d="M215.338 44.8633C216.212 45.3465 216.26 45.439 216.723 46.3297C215.997 49.9739 211.034 53.631 208.407 56.1034C207.458 55.483 207.444 55.5224 207.13 54.4392C208.059 50.8018 212.682 47.3788 215.338 44.8633Z" fill="white"/>
<path d="M292.63 127.613L293.886 128.047L294.233 128.999C293.271 132.366 288.832 135.508 286.259 137.785L284.785 137.461L284.429 136.406C285.558 132.954 289.934 129.924 292.63 127.613Z" fill="white"/>
<path d="M247.536 283.035C248.346 283.421 248.458 283.605 248.983 284.347C248.335 287.837 243.33 291.528 240.82 293.915C239.926 293.914 239.883 293.816 239.156 293.274C239.162 293.113 239.158 292.952 239.173 292.792C239.466 289.713 245.184 285.137 247.536 283.035Z" fill="white"/>
<path d="M238.188 59.4414C238.597 59.6391 239.001 60.0633 239.357 60.3549L239.356 61.4388C237.512 65.0042 233.929 67.6296 230.91 70.1876L229.95 69.6718L229.667 68.4735C231.071 64.8399 235.277 61.9047 238.188 59.4414Z" fill="white"/>
<path d="M473.505 8.61719C473.892 8.95881 474.164 9.46934 474.448 9.89428C473.959 13.3415 468.801 16.9463 466.297 19.1778C465.266 18.965 465.326 18.9263 464.696 18.0674C465.285 14.4042 470.695 10.6783 473.505 8.61719Z" fill="white"/>
<path d="M395.673 134.885C396.428 135.326 396.68 135.557 397.047 136.354C396.379 139.979 391.483 143.41 388.852 145.807C387.923 145.508 387.919 145.509 387.384 144.694C387.932 141.292 393.255 137.212 395.673 134.885Z" fill="white"/>
<path d="M548.87 227.498C549.493 228.205 549.51 228.53 549.71 229.43C548.589 233.2 543.982 236.451 541.137 239.007C540.445 238.095 540.469 237.872 540.364 236.773C542.037 232.99 545.826 230.183 548.87 227.498Z" fill="white"/>
<path d="M247.595 37.5723C248.54 38.0593 248.543 38.0707 248.983 39.038C248.197 42.4079 243.179 45.9491 240.662 48.2117L239.545 47.5299L239.339 46.4013C240.89 42.8003 244.69 40.0848 247.595 37.5723Z" fill="white"/>
<path d="M281.074 298.725L282.239 299.49L282.348 300.66C280.632 304.25 277.183 306.866 274.243 309.446L273.196 308.66L273.066 307.528C274.465 303.978 278.275 301.205 281.074 298.725Z" fill="white"/>
<path d="M494.027 147.377C494.604 147.706 494.733 148.005 495.082 148.554C494.777 151.97 489.455 156.005 487.077 158.307L486.35 158.004C485.916 157.441 485.634 157.361 485.717 156.606C486.07 153.437 491.719 149.25 494.027 147.377Z" fill="white"/>
<path d="M818.596 337.652C820.035 337.721 820.292 337.524 821.345 338.581C821.307 338.978 821.315 339.148 821.201 339.505C820.368 342.033 815.377 345.963 812.968 347.021L812.324 347.434L811.529 347.098C811.9 343.698 816.581 340.741 818.437 337.912C818.49 337.827 818.543 337.739 818.596 337.652Z" fill="white"/>
<path d="M260.803 85.9941C261.311 86.3736 261.472 86.7334 261.786 87.2743C261.17 90.8813 256.174 94.4725 253.592 96.8759C252.956 96.6502 252.713 96.426 252.214 95.9889C252.191 95.6223 252.161 95.5072 252.211 95.1701C252.666 92.0834 258.444 87.9726 260.803 85.9941Z" fill="white"/>
<path d="M273.611 294.045L274.487 294.541L274.707 295.749C273.226 299.408 269.096 302.431 266.201 304.996C265.831 304.84 265.46 304.395 265.163 304.12C265.137 303.716 265.102 303.565 265.158 303.191C265.611 300.151 271.252 296.022 273.611 294.045Z" fill="white"/>
<path d="M534.931 205.168C535.327 205.578 535.437 206.023 535.644 206.547C534.712 210.355 529.513 213.883 526.664 216.389C526.233 215.909 526.078 215.48 525.827 214.893C526.521 210.904 531.862 207.386 534.931 205.168Z" fill="white"/>
<path d="M202.408 58.373L203.521 58.6412L203.903 59.538C202.62 63.208 198.573 66.0765 195.727 68.5754L194.656 68.2376L194.12 67.196C194.964 63.8511 199.853 60.5432 202.408 58.373Z" fill="white"/>
<path d="M688.538 86.907C689.35 86.7336 690.072 86.7699 690.891 86.8131L691.469 87.6335C691.421 87.8327 691.384 88.0349 691.327 88.2319C690.495 91.0981 685.693 94.9756 683.126 96.2959L682.421 96.7829L681.798 96.2678C681.945 92.3078 686.812 90.2089 688.538 86.907Z" fill="white"/>
<path d="M981.784 125.413L983.958 125.398L984.595 126.049C984.572 126.528 984.549 126.889 984.345 127.33C983.118 129.918 978.489 133.678 975.906 134.778L975.308 135.327L974.755 134.821C974.763 131.095 979.891 128.459 981.784 125.413Z" fill="white"/>
<path d="M273.548 60.9766L274.619 61.6734L274.606 62.9475C272.791 66.4523 269.542 68.9489 266.554 71.422C266.024 71.4054 265.596 71.0744 265.133 70.829L265.043 69.9707C266.923 66.2811 270.418 63.5868 273.548 60.9766Z" fill="white"/>
<path d="M504.854 173.367L505.807 173.624L506.295 174.514C505.497 177.919 500.533 181.492 498.012 183.775C497.3 183.707 497.074 183.389 496.512 182.97C496.519 182.8 496.516 182.63 496.533 182.462C496.843 179.517 502.677 175.121 504.854 173.367Z" fill="white"/>
<path d="M768.838 338.17C770.262 338.026 770.671 337.749 771.867 338.6C771.867 339.064 771.86 339.412 771.678 339.847C770.693 342.181 766.345 345.952 764.005 346.838L763.028 347.376L762.331 346.915C762.96 343.325 766.83 341.552 768.557 338.653C768.656 338.494 768.747 338.331 768.838 338.17Z" fill="white"/>
<path d="M325.366 119.793C325.819 120.204 325.966 120.616 326.229 121.16C325.318 124.859 320.067 128.563 317.335 131.035C316.952 130.703 316.715 130.255 316.435 129.835C316.94 125.8 322.347 122.182 325.366 119.793Z" fill="white"/>
<path d="M785.669 309.04C787.017 308.885 787.6 308.52 788.698 309.388C788.683 309.894 788.668 310.289 788.449 310.756C787.32 313.188 783.154 316.754 780.783 317.889L779.783 318.68L779.048 318.212C778.761 314.217 784.767 312.579 785.669 309.04Z" fill="white"/>
<path d="M286.353 60.4316C286.924 60.8407 287.064 61.1028 287.414 61.6943C286.797 65.2355 281.824 68.8623 279.296 71.2498C279.134 71.165 278.948 71.1165 278.81 70.996C278.278 70.5272 278.079 70.0697 278.167 69.394C278.57 66.3399 284.109 62.2806 286.353 60.4316Z" fill="white"/>
<path d="M337.85 106.773C338.475 107.166 338.627 107.588 338.931 108.242C338.258 111.854 333.629 115.107 331.015 117.484C330.033 117.251 330.111 117.225 329.558 116.367C330.349 112.845 335.286 109.167 337.85 106.773Z" fill="white"/>
<path d="M944.858 456.777C945.585 456.676 946.282 456.662 947.017 456.645L947.714 457.35C947.661 457.75 947.668 457.932 947.54 458.293C946.623 460.926 942.328 464.534 939.881 465.694L938.783 466.438L938.215 466.066C938.344 461.401 943.926 460.337 944.858 456.777Z" fill="white"/>
<path d="M868.475 238.295C869.02 238.143 869.475 238.021 870.051 238.021C871.043 238.023 871.096 237.997 871.808 238.704C871.755 239.107 871.755 239.276 871.634 239.639C870.679 242.343 866.415 245.744 863.885 246.901C863.567 247.457 863.415 247.453 862.877 247.756L862.393 247.166C862.643 243.084 867.778 241.732 868.475 238.295Z" fill="white"/>
<path d="M208.908 64.1387C209.371 64.2031 209.881 64.4258 210.319 64.5712L210.391 65.64C208.609 69.0728 204.932 71.805 202.026 74.3107C201.558 74.2304 201.083 74.0183 200.634 73.8615L200.665 72.6594C202.596 69.2395 205.917 66.6118 208.908 64.1387Z" fill="white"/>
<path d="M308.81 135.93C309.49 136.393 309.561 136.612 309.929 137.364C309.196 140.961 304.572 144.286 301.972 146.696L301.01 146.253L300.709 145.238C301.734 141.592 306.094 138.413 308.81 135.93Z" fill="white"/>
<path d="M861.006 344.414C862.415 344.265 862.741 343.99 863.9 344.877C863.862 345.304 863.877 345.442 863.748 345.823C862.892 348.405 857.976 352.318 855.59 353.453L854.947 353.844L854.022 353.518C854.878 349.511 859.537 347.896 861.006 344.414Z" fill="white"/>
<path d="M251.055 83.4395C251.518 83.8795 251.726 84.2931 252.035 84.8453C251.547 88.0994 246.047 92.1518 243.699 94.347C242.733 93.3047 242.775 93.3373 242.827 91.9117C244.683 88.3744 248.041 85.9527 251.055 83.4395Z" fill="white"/>
<path d="M286.233 121.861C286.95 122.094 287.046 122.244 287.553 122.819C287.198 126.13 281.912 130.084 279.571 132.307C278.879 132.048 279.12 132.21 278.569 131.718C278.116 131.315 278.159 131.48 278.173 130.884C278.241 128.133 284.122 123.689 286.233 121.861Z" fill="white"/>
<path d="M913.082 157.664L914.733 157.735L915.37 158.455C915.324 158.793 915.324 159.001 915.218 159.312C914.34 161.836 909.56 165.955 907.106 167.031C906.462 167.144 906.295 167.052 905.697 166.837C905.871 164.037 911.151 159.869 913.082 157.664Z" fill="white"/>
<path d="M709.068 312.154H711.029L711.581 312.772C711.54 313.272 711.502 313.655 711.284 314.115C710.115 316.571 705.68 320.408 703.229 321.465L702.692 321.604L702.036 321.197C702.595 317.815 706.815 315.388 708.707 312.684C708.829 312.509 708.948 312.331 709.068 312.154Z" fill="white"/>
<path d="M577.18 211.805C577.859 212.158 577.875 212.4 578.251 213.042C577.429 216.582 572.143 220.22 569.499 222.562L568.539 221.593C568.553 221.389 568.556 221.184 568.582 220.981C568.968 217.906 574.854 213.71 577.18 211.805Z" fill="white"/>
<path d="M991.866 128.535L993.26 128.89L993.647 129.769C993.518 130.196 993.487 130.364 993.298 130.74C991.912 133.453 987.064 137.335 984.246 138.419L983.648 137.828C983.777 134.999 989.806 130.46 991.866 128.535Z" fill="white"/>
<path d="M820.452 360.539C821.406 360.318 821.876 360.251 822.86 360.505C823.065 361.24 823.201 361.379 822.883 362.074C821.588 364.848 817.437 368.681 814.581 369.67C814.089 369.92 813.793 369.721 813.263 369.606C814.468 365.574 818.952 364.034 820.452 360.539Z" fill="white"/>
<path d="M918.294 176.912C919.422 177.005 919.634 176.922 920.513 177.689C920.505 178.191 920.49 178.573 920.286 179.042C919.225 181.501 914.93 185.109 912.552 186.279C912.181 186.387 911.666 186.337 911.28 186.344L911.06 185.584C912.59 182.459 916.021 179.584 918.294 176.912Z" fill="white"/>
<path d="M768.019 32.2927C768.936 32.0935 769.428 32.0473 770.368 32.2518C770.663 32.9631 770.883 33.0358 770.58 33.8001C769.421 36.7807 764.891 40.3636 761.998 41.5005C761.452 41.7467 761.27 41.5558 760.71 41.3975C762.505 37.8215 766.497 35.7119 768.019 32.2927Z" fill="white"/>
<path d="M759.081 29.1731L761.096 29.0391L761.687 29.8768C761.589 30.2889 761.558 30.4904 761.399 30.8585C760.127 33.6839 755.859 37.1644 753.084 38.4059L752.344 39.0149L751.895 37.8529L751.52 38.3453L752.781 38.6135L751.638 38.0045C753.416 34.4792 757.37 32.5848 759.081 29.1731Z" fill="white"/>
<path d="M828.208 315.803C829.602 315.548 829.965 315.273 831.23 315.975L831.026 317.26C829.094 320.071 826.322 322.668 823.345 324.339L822.625 324.929L821.58 324.473C821.648 321.026 827.45 319.046 828.208 315.803Z" fill="white"/>
<path d="M303.549 288.428C304.45 289.591 304.499 289.616 304.44 291.079C303.349 293.441 300.939 295.205 299.034 296.922C298.486 296.309 297.949 296.017 297.985 295.149C298.083 292.77 301.867 289.968 303.549 288.428Z" fill="white"/>
<path d="M546.07 218.053C546.724 218.309 546.976 218.615 547.465 219.103C547.303 221.903 544.16 223.984 542.171 225.761C541.69 225.49 541.243 225.061 540.809 224.715L540.798 223.532C541.868 221.282 544.202 219.652 546.07 218.053Z" fill="white"/>
<path d="M183.437 77.1055L184.743 78.0682L184.806 79.2408C183.817 81.4632 181.507 83.1296 179.712 84.7218L178.527 84.5211L178.053 83.603C178.757 80.914 181.402 78.837 183.437 77.1055Z" fill="white"/>
<path d="M966.241 141.02C967.264 141.074 967.567 141.25 968.347 141.837C968.4 142.277 968.544 142.675 968.355 143.087C967.438 145.106 965.166 146.976 963.128 147.784L961.931 147.753L961.538 147.022C962.363 144.811 964.658 142.777 966.241 141.02Z" fill="white"/>
<path d="M817.891 289.272C818.868 289.234 819.33 289.431 820.194 289.828C820.292 290.336 820.512 290.736 820.27 291.216C819.209 293.373 816.914 295.316 814.634 296.04L813.778 295.848L813.536 295.205C814.346 292.995 816.361 291.06 817.891 289.272Z" fill="white"/>
<path d="M637.871 15.7285C638.571 15.8194 638.923 16.1398 639.471 16.5602L639.505 17.6548C638.395 19.812 636.073 21.5565 634.3 23.1979L633.602 22.9601C633.208 22.426 632.766 22.1094 632.855 21.4156C633.121 19.3242 636.374 16.9852 637.871 15.7285Z" fill="white"/>
<path d="M327.136 497.932C327.6 498.145 327.988 498.566 328.369 498.9C328.244 501.877 325.351 503.819 323.284 505.725C322.429 505.654 322.375 505.448 321.729 504.928C321.729 504.772 321.719 504.615 321.729 504.459C321.866 502.332 325.598 499.378 327.136 497.932Z" fill="white"/>
<path d="M496.17 157.125C496.716 157.276 497.27 157.584 497.79 157.814L497.997 158.891C497.091 160.981 494.737 162.789 493.088 164.361C492.083 164.471 492.062 164.503 491.215 163.967C491.529 161.085 494.182 158.99 496.17 157.125Z" fill="white"/>
<path d="M625.768 15.6875L627.29 16.5571L627.386 17.7319C626.296 20.0232 623.892 21.6776 621.981 23.2955L620.877 22.3419L620.85 21.1701C621.811 18.9393 624 17.2971 625.768 15.6875Z" fill="white"/>
<path d="M254.219 43.3379C255.155 44.0613 255.066 44.087 255.275 45.2679C254.389 47.6252 252.179 49.5635 250.477 51.3875C249.714 50.8679 249.501 50.4944 249.092 49.6999C249.413 46.8018 252.15 45.0839 254.219 43.3379Z" fill="white"/>
<path d="M80.8308 143.197C81.2231 143.828 81.636 144.224 81.5973 144.997C81.4769 147.396 77.5017 150.045 75.7489 151.488C75.3331 150.937 75.2255 150.52 75.0022 149.868C75.6954 146.912 78.5985 144.998 80.8308 143.197Z" fill="white"/>
<path d="M539.914 211.865C540.424 212.022 540.805 212.299 541.254 212.582L541.283 213.788C540.218 216.092 538.223 217.794 536.436 219.545L535.191 218.439L535.187 217.053C536.108 214.932 538.219 213.382 539.914 211.865Z" fill="white"/>
<path d="M298.464 317.885L299.773 318.648L299.927 319.89C298.982 322.143 296.734 323.923 295 325.609C294.016 324.775 293.839 324.812 293.651 323.478C294.469 321.224 296.748 319.499 298.464 317.885Z" fill="white"/>
<path d="M634.702 92.7324C635.158 92.8862 635.608 93.2202 636.025 93.4649L636.106 94.4352C635.026 96.7864 632.695 98.6119 630.848 100.38C629.966 100.044 629.938 99.9443 629.404 99.1527C629.949 96.3614 632.662 94.495 634.702 92.7324Z" fill="white"/>
<path d="M308.313 295.529C308.969 295.637 309.504 295.89 310.113 296.145L310.29 297.259C309.408 299.364 307.265 301.133 305.678 302.748L304.061 302.363L303.809 301.337C304.622 299.069 306.684 297.26 308.313 295.529Z" fill="white"/>
<path d="M254.094 288.838C254.602 289.056 255.008 289.453 255.437 289.798L255.442 290.807C254.391 293.005 252.066 294.796 250.309 296.466C249.831 296.115 249.422 295.646 249.002 295.226C249.003 295.029 248.994 294.83 249.005 294.633C249.134 292.392 252.462 290.188 254.094 288.838Z" fill="white"/>
<path d="M363.559 191.551C363.966 191.752 364.371 192.177 364.727 192.47L364.785 193.584C363.733 195.881 361.529 197.638 359.724 199.365C358.8 199.062 358.8 199.065 358.273 198.249C358.566 195.63 361.709 193.263 363.559 191.551Z" fill="white"/>
<path d="M797.053 64.5482C798.031 64.3906 798.644 64.4141 799.621 64.5959L800.098 65.4844C799.349 67.7606 797.303 69.3194 795.281 70.4428C794.751 70.901 794.523 70.8526 793.857 70.9783L793.402 70.0413C793.751 67.9015 795.849 66.9455 796.788 65.095C796.879 64.9148 796.962 64.7307 797.053 64.5482Z" fill="white"/>
<path d="M795.508 360.539C796.637 360.27 797.334 360.257 798.477 360.483L798.856 361.268C798.076 363.693 795.887 365.339 793.705 366.471L792.819 366.944L792.13 366.213C792.266 363.968 794.569 363.078 795.319 361.097C795.387 360.913 795.448 360.726 795.508 360.539Z" fill="white"/>
<path d="M293.303 262.455C293.938 263.232 293.944 263.303 294.018 264.309C293.036 266.587 290.802 268.306 289.013 269.975L287.964 269.604L287.445 268.495C288.154 265.814 291.16 263.95 293.303 262.455Z" fill="white"/>
<path d="M564.431 224.354C565.121 225.263 565.083 225.453 565.16 226.549C564.122 228.979 561.75 230.884 559.89 232.714C559.48 232.016 558.986 231.497 559.044 230.662C559.214 228.22 562.666 225.857 564.431 224.354Z" fill="white"/>
<path d="M890.631 437.528C891.82 437.314 892.335 437.305 893.418 437.861C893.494 438.344 893.653 438.619 893.418 439.066C892.244 441.302 890.26 442.824 887.889 443.595L887.003 443.673L886.73 442.931C887.457 440.894 889.427 439.909 890.373 438.05C890.464 437.877 890.548 437.701 890.631 437.528Z" fill="white"/>
<path d="M300.576 279.463L301.792 280.276L301.856 281.455C300.765 283.644 298.609 285.206 296.785 286.783C295.791 286.528 295.841 286.506 295.26 285.649C295.816 283.129 298.687 281.031 300.576 279.463Z" fill="white"/>
<path d="M833.957 334.531C834.881 334.444 835.54 334.475 836.449 334.653L836.896 335.499C836.101 337.797 833.737 339.391 831.662 340.47L830.761 341.115L830.003 340.253C830.321 338.221 832.73 336.202 833.957 334.531Z" fill="white"/>
<path d="M875.186 183.153C875.928 183.124 876.572 183.342 877.277 183.549C877.413 184.017 877.678 184.412 877.466 184.872C876.527 186.901 874.345 188.708 872.262 189.469C871.384 189.489 871.429 189.439 870.755 188.846C871.338 186.75 873.777 184.818 875.186 183.153Z" fill="white"/>
<path d="M869.944 77.5537C871.088 77.2803 871.74 77.1447 872.868 77.5174L873.171 78.2756C872.353 80.5086 870.134 82.2629 868.111 83.3832C867.649 83.7362 867.422 83.6354 866.862 83.6559L866.339 82.7651C866.718 80.5374 868.96 80.0299 869.74 78.1036C869.816 77.9226 869.876 77.737 869.944 77.5537Z" fill="white"/>
<path d="M820.406 299.155C821.406 299.018 822.035 298.908 822.981 299.356L823.224 300.368C822.133 302.559 819.808 304.346 817.566 305.243L816.573 305.594C816.301 303.272 819.058 300.956 820.406 299.155Z" fill="white"/>
<path d="M266.577 55.2227C267.682 55.4347 267.747 55.3522 268.432 56.224C268.19 58.6737 264.975 60.8832 263.24 62.3906C262.796 62.2959 262.338 62.055 261.917 61.8823C261.972 59.1713 264.756 57.0527 266.577 55.2227Z" fill="white"/>
<path d="M673.447 16.1565C674.392 16.0853 675.134 16.1951 676.058 16.3966L676.489 17.1783C675.836 19.3773 673.445 20.9808 671.526 22.061L670.758 22.6079L670.071 22.4094C669.603 20.162 672.279 18.5501 673.192 16.7019C673.281 16.5224 673.362 16.3383 673.447 16.1565Z" fill="white"/>
<path d="M257.457 64.6526C257.894 64.8457 258.207 65.2442 258.549 65.5744C258.328 68.3952 255.574 70.2253 253.581 72.0235C253.065 71.7569 252.708 71.3993 252.271 71.0183L252.378 69.6587C253.55 67.5832 255.636 66.1372 257.457 64.6526Z" fill="white"/>
<path d="M835.086 235.174C836.229 234.878 836.896 234.717 838.04 235.071C838.191 235.471 838.419 235.732 838.252 236.146C837.411 238.204 835.184 240.002 833.2 240.9L832.132 241.418L831.526 240.885C831.866 238.558 833.806 237.694 834.813 235.737C834.904 235.551 834.995 235.361 835.086 235.174Z" fill="white"/>
<path d="M647.432 79.793C648.33 80.5368 648.349 80.6035 648.646 81.7366C647.843 83.9568 645.547 85.7338 643.873 87.3555C643.409 87.1828 642.944 86.8155 642.521 86.5511L642.399 85.446C643.408 83.1834 645.644 81.4617 647.432 79.793Z" fill="white"/>
<path d="M235.044 38.0642L236.168 38.8118L236.256 39.9367C235.111 42.222 232.729 43.9884 230.86 45.6934C230.438 45.4813 230.026 45.0791 229.651 44.786C229.951 41.8712 232.952 39.9117 235.044 38.0642Z" fill="white"/>
<path d="M754.342 328.284C755.367 328.103 755.926 328.128 756.939 328.37C757.093 328.816 757.334 329.092 757.129 329.54C756.118 331.752 753.764 333.565 751.545 334.437L750.681 334.587C750.018 332.312 753.165 330.717 754.101 328.803C754.185 328.632 754.262 328.458 754.342 328.284Z" fill="white"/>
<path d="M958.28 431.288C959.25 431.138 959.878 431.163 960.84 431.336L961.303 432.215C961.212 432.495 961.197 432.581 961.06 432.876C960.189 434.785 957.939 436.554 956.008 437.283L955.228 437.486L954.508 436.716C954.917 434.536 957.182 433.7 958.061 431.791C958.144 431.625 958.212 431.456 958.28 431.288Z" fill="white"/>
<path d="M771.572 347.532C772.708 347.276 773.299 347.269 774.42 347.621L774.716 348.488C773.86 350.655 771.845 352.317 769.762 353.262C769.247 353.831 769.141 353.722 768.421 353.855C767.27 351.289 770.852 349.915 771.572 347.532Z" fill="white"/>
<path d="M880.647 447.412C881.723 447.201 882.45 447.14 883.533 447.356L884.018 448.148C883.95 448.352 883.897 448.558 883.821 448.758C883.094 450.633 880.7 452.231 878.928 452.964C878.61 453.259 878.193 453.38 877.799 453.551L877.193 452.932C877.618 450.592 880.11 449.679 880.647 447.412Z" fill="white"/>
<path d="M715.287 318.398C716.265 318.302 716.748 318.356 717.672 318.687L717.915 319.562C717 321.784 714.46 323.679 712.326 324.656L711.726 324.731L711.101 324.194C711.759 321.95 713.851 320.216 715.287 318.398Z" fill="white"/>
<path d="M818.027 276.789C818.974 276.705 819.739 276.786 820.679 276.955L821.126 277.782C820.368 280.023 818.111 281.492 816.126 282.592L815.111 283.108L814.748 282.47L815.248 282.862L814.596 282.125C815.429 280.185 816.77 278.815 817.868 277.051L818.027 276.789Z" fill="white"/>
<path d="M661.236 16.09C661.998 16.0135 662.76 16.0673 663.523 16.0969L664.112 16.9119C663.42 19.3949 660.818 21.1439 658.784 22.5368C657.944 22.5331 658.06 22.4126 657.494 21.8589C658.047 19.4517 660.38 18.3617 661.236 16.09Z" fill="white"/>
<path d="M774.314 38.5381C775.034 38.5222 775.7 38.7092 776.397 38.8759C776.708 39.5834 776.905 39.5879 776.586 40.3598C775.791 42.2996 773.223 43.9812 771.367 44.7872L770.443 44.8712L770.148 44.2092C770.89 42.1232 772.875 40.228 774.314 38.5381Z" fill="white"/>
<path d="M260.826 73.6624C261.693 74.5918 261.697 74.5743 261.771 75.8416C260.778 78.014 258.529 79.6039 256.752 81.1461C256.326 80.9636 255.917 80.622 255.533 80.3591L255.614 79.0896C256.864 76.8755 258.929 75.3053 260.826 73.6624Z" fill="white"/>
<path d="M832.465 360.539C833.631 360.3 834.283 360.186 835.412 360.613L835.684 361.513C834.768 363.662 832.677 365.248 830.639 366.266C830.261 366.595 829.662 366.829 829.215 367.068C828.837 364.238 831.776 363.084 832.465 360.539Z" fill="white"/>
<path d="M967.347 103.044C968.461 102.839 968.953 102.87 970.029 103.21L970.339 104.04C969.499 106.315 967.416 107.891 965.317 108.95C964.886 109.306 964.605 109.246 964.067 109.317C962.719 106.91 966.749 105.426 967.347 103.044Z" fill="white"/>
<path d="M787.04 356.896C787.986 356.841 788.486 356.927 789.38 357.251C789.509 357.707 789.759 358.099 789.554 358.544C788.615 360.55 786.358 362.364 784.313 363.147C783.691 363.232 783.555 363.105 782.995 362.886C783.351 360.83 785.752 359.037 786.858 357.202C786.918 357.101 786.979 356.999 787.04 356.896Z" fill="white"/>
<path d="M872.52 369.904L874.429 370.21L874.921 371.084C874.194 373.373 871.717 375.06 869.672 376.15L868.68 376.171L868.384 375.522C869.089 373.363 871.028 371.577 872.52 369.904Z" fill="white"/>
<path d="M851.735 341.293C852.682 341.159 853.409 341.18 854.356 341.286L854.969 342.066C854.909 342.259 854.863 342.455 854.795 342.645C854.121 344.531 851.515 346.118 849.811 346.965C849.288 347.308 848.788 347.437 848.198 347.636C848.531 344.673 851.106 343.836 851.735 341.293Z" fill="white"/>
<path d="M822.535 309.04C823.603 308.807 824.262 308.77 825.33 309.002L825.731 309.768C825.655 309.957 825.595 310.15 825.519 310.336C824.769 312.14 822.451 313.799 820.709 314.533C820.429 314.815 819.899 315.057 819.558 315.262L818.959 314.549C819.384 312.317 821.982 311.338 822.535 309.04Z" fill="white"/>
<path d="M889.078 70.791C889.904 70.7365 890.676 70.794 891.502 70.8713L892.078 71.6689C892.017 71.8659 891.964 72.0658 891.888 72.259C891.184 74.0777 888.586 75.679 886.912 76.516C886.677 76.8076 886.344 76.9068 886.01 77.0682L885.745 76.1471C886.609 74.1436 887.927 72.6188 889.078 70.791Z" fill="white"/>
<path d="M717.552 70.7893C718.286 70.8029 718.92 71.0491 719.608 71.2817L719.849 72.2982C718.818 74.4835 716.499 76.1931 714.282 77.0437C714.011 77.0914 713.529 76.918 713.255 76.8551C713.395 74.9766 716.324 72.2186 717.552 70.7893Z" fill="white"/>
<path d="M869.709 225.287C870.641 225.217 871.292 225.261 872.209 225.461L872.656 226.282C872.588 226.474 872.527 226.671 872.444 226.86C871.679 228.678 869.202 230.157 867.475 230.876C867.096 231.204 866.763 231.252 866.293 231.39C866.248 228.919 868.444 227.79 869.467 225.79C869.55 225.624 869.626 225.455 869.709 225.287Z" fill="white"/>
<path d="M332.475 504.693C333.581 505.008 333.722 504.909 334.359 505.927C333.997 507.693 332.312 509.01 331.092 510.271C330.033 509.997 330.021 510.08 329.442 509.168C329.77 507.346 331.279 506.038 332.475 504.693Z" fill="white"/>
<path d="M289.753 314.242C290.622 314.813 290.81 315.186 291.227 316.095C290.799 317.674 289.928 318.279 288.813 319.427C288.015 318.887 287.87 318.464 287.51 317.608C287.693 316.117 288.76 315.279 289.753 314.242Z" fill="white"/>
<path d="M547.798 92.4727C548.661 92.6916 549.16 92.9923 549.886 93.4801C550.176 95.1086 549.509 95.9987 548.872 97.4833C548.089 97.3235 547.486 96.9258 546.809 96.5228C546.459 94.8284 547.123 94.0141 547.798 92.4727Z" fill="white"/>
<path d="M340.735 189.355C341.309 189.721 341.795 190.221 342.3 190.678C342.352 192.419 341.662 193.122 340.801 194.582C339.921 194.147 339.593 193.748 339.009 192.994C339.111 191.398 339.866 190.639 340.735 189.355Z" fill="white"/>
<path d="M210.687 270.05C211.204 269.553 211.955 269.388 212.632 269.623C213.308 269.857 213.797 270.451 213.895 271.161C213.994 271.871 213.686 272.575 213.098 272.986C212.283 273.555 211.168 273.401 210.537 272.633C209.906 271.864 209.972 270.739 210.687 270.05Z" fill="white"/>
<path d="M189.014 58.2422C189.79 58.5141 190.367 59.0724 190.992 59.5882C191.133 61.0728 190.53 61.7402 189.841 62.996C188.859 63.0627 188.769 62.9188 187.921 62.3863C187.663 60.7994 188.369 59.6443 189.014 58.2422Z" fill="white"/>
<path d="M108.715 163.375C109.707 163.696 110.006 163.916 110.662 164.726C110.518 166.216 109.841 166.924 109.027 168.124C108.366 167.852 107.909 167.491 107.343 167.067C107.242 165.387 107.883 164.752 108.715 163.375Z" fill="white"/>
<path d="M657.628 93.0237C659.025 93.2365 659.709 93.1343 660.748 94.2061C660.18 95.5627 659.659 95.7801 658.494 96.633C658.035 96.808 657.697 96.6853 657.221 96.6148C656.869 95.3726 657.336 94.2637 657.628 93.0237Z" fill="white"/>
<path d="M260.592 48.9746C261.178 49.3836 261.454 49.7639 261.904 50.3168C261.751 51.9787 260.963 52.6059 259.961 53.8603C259.199 53.4535 258.93 52.9892 258.456 52.2931C258.796 50.66 259.478 50.1623 260.592 48.9746Z" fill="white"/>
<path d="M326.71 301.725C327.291 301.975 327.799 302.349 328.327 302.695C328.483 304.357 327.586 305.154 326.708 306.523C326.005 306.29 325.54 305.803 325.001 305.319C325.055 303.73 325.836 302.991 326.71 301.725Z" fill="white"/>
<path d="M572.043 240.369L573.682 241.65C573.951 243.176 573.332 243.928 572.69 245.274C571.834 245.002 571.367 244.659 570.674 244.116C570.59 242.501 571.275 241.728 572.043 240.369Z" fill="white"/>
<path d="M362.407 93.502C363.236 93.6928 363.918 94.0087 364.676 94.3768C365.094 95.8463 364.407 96.6523 363.798 97.9877C363.024 97.893 362.445 97.5158 361.78 97.1401C361.474 95.716 361.961 94.8434 362.407 93.502Z" fill="white"/>
<path d="M482.181 208.152C482.631 208.583 482.952 209.144 483.302 209.657C483.057 211.375 482.284 211.951 481.182 213.262C480.508 212.887 480.276 212.385 479.885 211.745C480.007 210.129 481.119 209.265 482.181 208.152Z" fill="white"/>
<path d="M479.51 247.1C480.307 247.284 480.734 247.603 481.385 248.071C481.4 249.799 480.596 250.431 479.62 251.795C479.133 251.604 478.66 251.262 478.208 250.995C478.039 249.277 478.711 248.549 479.51 247.1Z" fill="white"/>
<path d="M904.015 350.656C904.871 350.566 905.583 350.662 906.424 350.805L906.909 351.646C906.159 352.896 905.758 353.062 904.462 353.782L903.379 353.821L903.008 353.137L904.015 350.656Z" fill="white"/>
<path d="M296.037 271.166C296.602 271.671 296.859 272.066 297.277 272.69C297.049 274.295 296.268 275.009 295.314 276.255C294.753 275.853 294.436 275.454 293.988 274.932C294.154 273.176 294.981 272.522 296.037 271.166Z" fill="white"/>
<path d="M731.639 19.2867C732.03 19.2526 732.444 19.2004 732.838 19.2329C733.949 19.3246 734.219 19.4072 734.889 20.2798C734.28 21.6159 733.798 21.6992 732.556 22.4204L731.717 22.9816C731.095 21.7871 731.449 20.5608 731.639 19.2867Z" fill="white"/>
<path d="M613.635 346.443L614.903 347.66C614.949 349.513 614.107 350.265 613.108 351.794L611.819 350.015C611.951 348.27 612.575 347.777 613.635 346.443Z" fill="white"/>
<path d="M622.449 337.016C623.198 337.235 623.842 337.669 624.508 338.062C624.827 339.396 624.088 340.195 623.469 341.367C622.699 341.438 622.217 341.176 621.522 340.885C621.219 339.334 621.862 338.445 622.449 337.016Z" fill="white"/>
<path d="M649.689 89.4414C650.414 89.6346 650.829 89.961 651.414 90.4208C651.479 92.0145 650.582 92.9129 649.755 94.2422L648.32 93.1575C648.108 91.6002 648.929 90.7745 649.689 89.4414Z" fill="white"/>
<path d="M525.947 225.259C526.731 224.846 527.699 225.063 528.231 225.773C528.763 226.482 528.701 227.473 528.086 228.11C527.589 228.623 526.838 228.796 526.168 228.551C525.498 228.306 525.035 227.689 524.987 226.977C524.94 226.265 525.315 225.591 525.947 225.259Z" fill="white"/>
<path d="M829.822 350.654C830.2 350.612 830.359 350.586 830.776 350.581C831.889 350.57 832.17 350.61 832.973 351.385C832.533 352.635 832.086 352.811 831.064 353.608C830.602 354.061 830.503 353.961 829.89 354.032C829.329 352.899 829.64 351.862 829.822 350.654Z" fill="white"/>
<path d="M317.269 298.473L319.22 299.148L319.556 300.082L318.101 302.867C317.257 302.919 317.072 302.78 316.306 302.392C316.103 300.843 316.704 299.899 317.269 298.473Z" fill="white"/>
<path d="M363.024 436.852C363.847 436.957 364.366 437.224 365.093 437.596C365.396 439.104 364.619 439.876 363.892 441.165C362.832 441.11 362.804 441.046 361.98 440.361C361.804 439.005 362.437 438.021 363.024 436.852Z" fill="white"/>
<path d="M230.816 53.543C231.445 53.7217 232.059 54.0035 232.669 54.2436C233.104 55.876 232.346 56.6115 231.613 58.0711L229.997 57.325C229.619 55.8457 230.269 54.917 230.816 53.543Z" fill="white"/>
<path d="M369.828 430.81C370.793 430.725 371.652 431.419 371.772 432.381C371.893 433.342 371.232 434.227 370.276 434.383C369.625 434.49 368.967 434.232 368.563 433.711C368.157 433.19 368.07 432.489 368.333 431.884C368.598 431.279 369.171 430.867 369.828 430.81Z" fill="white"/>
<path d="M492.19 185.742C492.837 186.183 493.027 186.469 493.485 187.086C493.229 188.767 492.434 189.39 491.375 190.638L490.133 189.437C490.285 187.668 491.084 187.098 492.19 185.742Z" fill="white"/>
<path d="M694.617 80.6625C696.025 80.4345 696.841 80.3337 698.093 81.0306C697.82 82.2107 697.289 82.3865 696.365 83.1318L695.576 83.7832L694.781 83.7037C694.262 82.6849 694.487 81.7487 694.617 80.6625Z" fill="white"/>
<path d="M635.045 201.713C635.809 201.957 636.243 202.277 636.867 202.757C637.072 204.309 636.432 205.092 635.762 206.444L634.018 205.394C633.705 203.867 634.39 203.063 635.045 201.713Z" fill="white"/>
<path d="M440.428 114.471L442.007 115.416C442.263 117.058 441.376 117.732 440.478 119.066C439.729 118.928 439.441 118.611 438.904 118.093C438.98 116.518 439.631 115.772 440.428 114.471Z" fill="white"/>
<path d="M740.976 22.4082C742.381 22.4377 742.735 22.2537 743.837 23.1892C743.264 24.5647 742.909 24.5958 741.663 25.3343C741.185 25.7199 740.932 25.7183 740.34 25.8206C740.017 24.464 740.448 23.6588 740.976 22.4082Z" fill="white"/>
<path d="M318.073 27.9961C318.783 28.1991 319.204 28.5369 319.788 28.9725C319.844 30.5677 319.146 31.3327 318.367 32.6629C317.73 32.3485 317.174 31.9448 316.59 31.5441C316.459 30.0882 317.324 29.208 318.073 27.9961Z" fill="white"/>
<path d="M989.98 141.538C991.495 141.41 991.919 141.162 993.222 142.027C992.843 143.453 992.45 143.513 991.298 144.367C990.791 144.712 990.579 144.542 989.995 144.465C989.518 143.504 989.814 142.55 989.98 141.538Z" fill="white"/>
<path d="M858.787 64.4818C859.34 64.1281 860.052 64.1122 860.62 64.4417C861.196 64.7712 861.537 65.3915 861.506 66.0513C861.483 66.711 861.09 67.3018 860.499 67.5844C859.65 67.9851 858.635 67.6586 858.181 66.8375C857.734 66.0164 857.992 64.9848 858.787 64.4818Z" fill="white"/>
<path d="M876.784 70.7919C878.171 70.7601 878.511 70.7586 879.723 71.3949C879.496 72.7061 878.966 72.7962 877.928 73.5756C877.345 74.1021 877.216 74.0915 876.428 74.2172C876.019 73.0318 876.466 71.9516 876.784 70.7919Z" fill="white"/>
<path d="M945.903 443.771C947.274 443.812 947.517 443.669 948.6 444.583C948.13 446.051 947.774 446.07 946.524 446.898C946.047 446.92 945.6 446.739 945.146 446.613C944.956 445.327 945.343 444.918 945.903 443.771Z" fill="white"/>
<path d="M961.295 440.602C961.863 440.28 962.552 440.293 963.105 440.635C963.651 440.977 963.969 441.593 963.931 442.24C963.885 442.886 963.499 443.459 962.908 443.729C962.052 444.124 961.037 443.774 960.606 442.936C960.174 442.099 960.477 441.07 961.295 440.602Z" fill="white"/>
<path d="M870.8 199.277C870.899 199.277 870.997 199.271 871.096 199.274C872.505 199.323 872.793 199.215 873.747 200.283C873.27 201.59 872.846 201.664 871.709 202.406L870.899 202.51L870.263 201.919L870.8 199.277Z" fill="white"/>
<path d="M240.292 31.5859L242.306 32.2601L242.741 33.2486L241.601 35.8838L239.69 35.1779C239.177 33.7758 239.793 32.932 240.292 31.5859Z" fill="white"/>
<path d="M761.119 321.521C762.429 321.593 762.778 321.44 763.785 322.331C763.126 323.699 762.664 323.837 761.399 324.624C761.02 324.903 760.786 324.841 760.324 324.876C760.119 323.563 760.596 322.707 761.119 321.521Z" fill="white"/>
<path d="M903.561 154.543C904.993 154.457 905.371 154.319 906.651 155.042C906.28 156.335 905.803 156.409 904.72 157.147C904.462 157.54 904.008 157.823 903.644 158.118C903.069 156.825 903.379 155.904 903.561 154.543Z" fill="white"/>
<path d="M879.428 215.406C880.541 215.387 881.178 215.548 882.193 216.006L882.147 216.946L880.541 218.165C879.935 218.735 879.928 218.699 879.095 218.743C878.686 217.463 879.026 216.653 879.428 215.406Z" fill="white"/>
<path d="M976.24 106.166C977.452 106.111 978.255 106.238 979.383 106.688L979.323 107.516L977.853 108.735L977.149 109.644L976.459 109.613C975.876 108.456 976.111 107.418 976.24 106.166Z" fill="white"/>
<path d="M838.04 244.535C838.881 244.462 839.615 244.546 840.449 244.661L841.009 245.523C840.274 246.795 839.752 246.927 838.487 247.613L838.085 247.684L837.441 247.098L838.04 244.535Z" fill="white"/>
<path d="M763.967 48.4204C765.429 48.2879 766.012 48.2189 767.156 49.162C766.656 50.4724 766.338 50.4406 765.149 51.0943L764.164 51.7018C763.384 50.6542 763.808 49.6687 763.967 48.4204Z" fill="white"/>
<path d="M241.662 105.199L242.686 106.238C242.465 107.983 241.652 108.538 240.536 109.831C240.085 109.441 239.75 108.946 239.385 108.476C239.698 106.813 240.509 106.336 241.662 105.199Z" fill="white"/>
<path d="M789.312 292.912C790.607 292.594 791.38 292.49 792.652 292.925L792.743 293.794L791.365 295C790.834 295.707 790.812 295.773 789.979 296.036C789.214 295.139 789.35 294.03 789.312 292.912Z" fill="white"/>
<path d="M804.333 363.66C805.643 363.555 806.575 363.608 807.832 364.025L807.862 364.817L806.166 365.976C805.885 366.689 805.825 366.701 805.173 367.116C804.446 366.267 804.469 364.74 804.333 363.66Z" fill="white"/>
<path d="M784.123 335.049C785.54 334.694 786.396 334.486 787.759 335.089L787.683 335.952L786.138 337.136L785.138 338.164L784.54 337.813L784.123 335.049Z" fill="white"/>
<path d="M877.08 193.037C878.534 193.007 878.905 192.967 880.163 193.663L880.049 194.592L878.466 195.644L877.459 196.162L876.837 195.64L877.08 193.037Z" fill="white"/>
<path d="M890.578 363.66C891.994 363.505 892.646 363.41 893.85 364.202C893.57 365.495 893.055 365.543 891.987 366.266L891.252 366.872L890.563 366.56L890.578 363.66Z" fill="white"/>
<path d="M729.439 58.299C730.02 58.1528 730.534 58.0195 731.138 58.0233C732.144 58.0301 732.176 58.024 732.899 58.7444C732.376 59.9995 731.852 60.1593 730.742 60.9017L730.196 61.1137L729.449 60.6782L729.439 58.299Z" fill="white"/>
</svg>
