<svg width="18" height="17" viewBox="0 0 18 17" fill="none" xmlns="http://www.w3.org/2000/svg">
<path fill-rule="evenodd" clip-rule="evenodd" d="M17.3334 8.50008C17.3334 13.1025 13.6024 16.8334 9.00002 16.8334C4.39765 16.8334 0.666687 13.1025 0.666687 8.50008C0.666687 3.89771 4.39765 0.166748 9.00002 0.166748C13.6024 0.166748 17.3334 3.89771 17.3334 8.50008ZM12.3586 5.97481C12.6027 6.21888 12.6027 6.61461 12.3586 6.85869L8.19196 11.0254C7.94788 11.2694 7.55216 11.2694 7.30808 11.0254L5.64141 9.35869C5.39733 9.11461 5.39733 8.71888 5.64141 8.4748C5.88549 8.23073 6.28122 8.23073 6.52529 8.4748L7.75002 9.69953L9.61238 7.83717L11.4747 5.97481C11.7188 5.73073 12.1145 5.73073 12.3586 5.97481Z" fill="#D9D9D9"/>
</svg>
